<?xml version="1.0" standalone="no"?>
<!DOCTYPE svg PUBLIC "-//W3C//DTD SVG 1.1//EN" "http://www.w3.org/Graphics/SVG/1.1/DTD/svg11.dtd" >
<svg xmlns="http://www.w3.org/2000/svg">
<metadata>
This is a custom SVG webfont generated by Font Squirrel.
Copyright   : Copyright c 1993 Adobe Systems Incorporated All Rights Reserved ITC Officina Serif is a trademark of International Typeface Corporation
</metadata>
<defs>
<font id="ITCOfficinaRTVERegular" horiz-adv-x="2500" >
<font-face units-per-em="5000" ascent="4000" descent="-1000" />
<missing-glyph horiz-adv-x="1030" />
<glyph unicode=" "  horiz-adv-x="1030" />
<glyph unicode="&#x09;" horiz-adv-x="1030" />
<glyph unicode="&#xa0;" horiz-adv-x="1030" />
<glyph unicode="!" horiz-adv-x="1665" d="M1002 3430q36 -2 52 -10q26 -14 26 -61q0 -7 -1 -11l-108 -1945q-2 -42 -21.5 -60t-61.5 -18h-121q-43 0 -62 18t-21 60l-113 1945q-1 4 -1 11q0 71 78 71h354zM1185 285q-2 -146 -104.5 -250.5t-247.5 -104.5q-147 0 -250 103.5t-103 250.5t105.5 249t252.5 102 q140 0 244 -105t103 -245z" />
<glyph unicode="&#x22;" d="M1582 2110q-38 1 -53 10q-25 13 -30 67l-83 1161v12q0 70 76 70h255q77 0 77 -70v-12l-73 -1160q-2 -42 -21.5 -60t-61.5 -18h-86zM842 2110q-38 1 -53 10q-25 13 -30 67l-83 1161v12q0 70 76 70h255q77 0 77 -70v-12l-73 -1160q-2 -42 -21.5 -60t-61.5 -18h-86z" />
<glyph unicode="#" d="M1985 2215h270q18 0 27 -1t19.5 -5t16 -13t6.5 -25q1 -9 1 -26v-190q0 -18 -1 -27t-5 -19.5t-13 -16t-25 -6.5q-9 -1 -26 -1h-310l-100 -995h275q17 0 26 -1q16 -1 25 -6.5t13 -16t5 -19.5t1 -27v-180q0 -17 -1 -26q-1 -16 -6.5 -25t-16 -13t-19.5 -5t-27 -1h-310 l-95 -905q-4 -39 -17.5 -52t-52.5 -13h-180q-34 0 -49.5 11.5t-15.5 43.5v20l95 895h-635l-95 -905q-2 -22 -5 -32.5t-13 -20t-29 -11.5q-8 -1 -23 -1h-175q-70 0 -70 45v30l95 895h-295q-17 0 -26 1q-16 1 -25 6.5t-13 16t-5 19.5t-1 27v180q0 17 1 26q1 16 6.5 25t16 13 t19.5 5t27 1h335l95 995h-295q-18 0 -27 1t-19.5 5t-16 13t-6.5 25q-1 9 -1 26v190q0 17 1 26q1 16 6.5 25t16 13t19.5 5t27 1h335l105 1010q2 22 5 32.5t13 20t29 11.5q8 1 23 1h180q17 0 25 -1q25 -2 32.5 -16t7.5 -43v-10l-105 -1005h635l105 1010q2 21 4.5 31.5t12 21 t26.5 11.5q9 1 27 1h175q23 0 35 -1.5t23.5 -12t11.5 -31.5v-25zM1630 1885h-635l-95 -995h635z" />
<glyph unicode="$" horiz-adv-x="2494" d="M1150 -69q-358 14 -681 142q-1 0 -20 8l-24 10q-5 2 -23.5 10t-26.5 12l-23 12q-15 9 -23 15l-19 16q-11 9 -17.5 18t-11.5 19q-11 23 -11 66v486q0 28 15.5 43.5t43.5 15.5h134h23q14 -1 23 -9t13 -15.5t10 -23.5l119 -348q167 -55 292.5 -84.5t253.5 -29.5 q156 0 290 57t213 176q36 56 56 118q31 92 31 210q0 111 -26 190q-44 139 -199 266q-101 82 -335 218l-173 99q-210 124 -285 177q-162 113 -252 233q-102 135 -144 306q-25 100 -25 210q0 120 32 237q45 167 155.5 303t265.5 218q152 81 349 112v270q0 39 15.5 54.5 t54.5 15.5h130q39 0 54.5 -15.5t15.5 -54.5v-263q258 -15 538 -130q68 -30 95 -45q42 -24 60 -48t18 -67v-506q0 -28 -16 -43.5t-43 -15.5h-134h-23q-20 2 -29.5 14t-16.5 34l-131 382q-223 71 -417 71q-343 0 -477 -222q-23 -37 -40 -92q-23 -77 -23 -175q0 -105 28 -182 q19 -53 54.5 -102.5t76.5 -87t94 -75t100 -65.5l101 -58l22 -12l170 -96l108 -62l136 -78q39 -24 107.5 -71t115.5 -87q159 -137 244.5 -327.5t85.5 -401.5q0 -155 -42 -291q-30 -99 -81 -189q-104 -182 -283.5 -297t-397.5 -156v-330q0 -39 -15.5 -54.5t-54.5 -15.5h-130 q-39 0 -54.5 15.5t-15.5 54.5v311z" />
<glyph unicode="%" horiz-adv-x="3795" d="M3650 840q-6 -576 -322 -787q-63 -44 -141 -69q-102 -34 -224 -34q-106 0 -202 28q-68 21 -120 52q-321 196 -321 740q0 119 17 229t55 220.5t109.5 202t170.5 149.5q53 32 111 50q102 34 224 34q115 0 215 -32q54 -17 102 -45q92 -53 158.5 -137.5t102 -185.5t51 -203.5 t14.5 -211.5zM3320 815q0 64 -4 115q-28 386 -244 441q-38 9 -76 9q-41 0 -77 -10q-69 -17 -120 -66.5t-79.5 -118.5t-43.5 -134t-21 -138q-5 -72 -5 -128q0 -49 3 -97q4 -72 16 -136t37.5 -133.5t74 -118.5t115.5 -66q36 -9 75 -9q42 0 79 10q57 14 102.5 51.5t73.5 84 t48 107t29 114t13 111.5q4 49 4 112zM1470 2450q-8 -579 -323 -789q-64 -43 -140 -68q-102 -33 -220 -33q-105 0 -201 28q-68 21 -120 52q-321 196 -321 743q0 115 15 219.5t49 210.5t99 196.5t155 151.5q66 45 144 71q103 33 223 33q115 0 215 -32q48 -15 101 -45 q91 -53 157 -137.5t101.5 -186t51.5 -204t14 -210.5zM1140 2425q0 50 -3 98q-3 56 -10.5 107t-24.5 111.5t-42.5 106t-68 82.5t-97.5 51q-36 9 -74 9q-40 0 -76 -10q-69 -17 -120 -66.5t-79.5 -118.5t-43.5 -134t-21 -138q-5 -70 -5 -127q0 -49 3 -97q3 -56 11 -107 t25.5 -110.5t43 -105t68.5 -82t97 -50.5q36 -9 74 -9q37 0 75 9q57 15 102 52.5t73 84t47.5 107t28.5 114t13 111.5q4 49 4 112zM2692 3300q23 -1 33 -4q28 -10 28 -43q0 -16 -8 -32l-1354 -3252q-16 -38 -35.5 -51t-60.5 -13h-192q-61 0 -61 47q0 16 8 32l1354 3252 q16 38 35.5 51t60.5 13h192z" />
<glyph unicode="&#x26;" horiz-adv-x="3055" d="M2525 590l345 -395q15 -19 15 -31q0 -20 -30 -44l-200 -165q-27 -21 -50 -21q-28 0 -55 31l-300 345q-257 -204 -454 -279q-211 -81 -472 -81q-141 0 -272 25.5t-254 77.5t-226.5 141.5t-172.5 209.5q-48 82 -75 176q-39 129 -39 274q0 195 74 366t216 305q39 37 92 79 l83 64l104 74l91 63l-107 128l-98 129q-57 78 -92.5 143t-70 143t-51 159.5t-16.5 164.5q0 123 34 235q27 89 70 163q114 198 325 304t452 106q133 0 252 -33t224.5 -107t173.5 -184q46 -75 74 -165q35 -115 35 -245q0 -105 -22 -200q-23 -100 -74 -195t-110.5 -167.5 t-146.5 -150t-158 -130t-169 -118.5l830 -935q150 268 150 585v60q0 33 13.5 46.5t46.5 13.5h245q21 0 34 -7t18.5 -22.5t6.5 -28.5t1 -37q0 -378 -194 -722q-36 -63 -96 -148zM1275 2005l88 64l85 66q53 42 86 74t75 77.5t68.5 87t51 93t36.5 104.5q15 67 15 137 q0 153 -75 270.5t-216 161.5q-66 20 -142 20q-148 0 -270 -81t-168 -218q-24 -68 -24 -149q0 -57 14 -117.5t31.5 -108t55.5 -109.5t62 -98t76 -99.5l73 -87.5zM2040 555l-900 1035l-87 -71q-29 -24 -81.5 -71t-83 -82t-67.5 -82.5t-61.5 -97t-39.5 -102.5q-25 -89 -25 -196 q0 -117 29 -211q22 -74 60 -136q87 -139 238 -205t330 -66q255 0 473 127q92 53 215 158z" />
<glyph unicode="'" horiz-adv-x="1665" d="M792 2110q-38 1 -53 10q-25 13 -30 67l-83 1161v12q0 70 76 70h255q77 0 77 -70v-12l-73 -1160q-2 -42 -21.5 -60t-61.5 -18h-86z" />
<glyph unicode="(" horiz-adv-x="1850" d="M1550 3883q12 -9 18 -13q17 -12 17 -36q0 -9 -2.5 -18.5t-8.5 -21t-9.5 -17t-13.5 -19t-11 -15.5l-169 -241q-117 -169 -231 -408q-320 -668 -320 -1515q0 -841 320 -1510q116 -243 231 -408l169 -243q2 -3 11 -15t13 -18t10 -16.5t8.5 -20t2.5 -18.5q0 -4 -1.5 -8.5 t-3 -7.5t-4.5 -8l-6 -6q-2 -3 -6.5 -7.5t-6.5 -6t-7 -6t-6 -5.5q-48 -41 -116 -71q-39 -16 -56 -16q-22 0 -49 19.5t-39 33.5l-34 41q-133 166 -268 379q-218 344 -342 659q-230 585 -230 1261q0 595 175 1113q136 407 403 816l97 143q42 60 64 89q3 5 41 56l38 49 q48 62 75 90q38 36 70 36q22 0 57 -20z" />
<glyph unicode=")" horiz-adv-x="1850" d="M300 -722q-12 9 -18 14q-17 11 -17 33q0 8 2.5 17.5t5 16t8.5 16.5l9 14q2 4 10 15.5t10 13.5l169 243q115 165 231 408q320 669 320 1510q0 842 -320 1513q-115 243 -231 409l-169 242q-1 2 -11.5 16.5t-13.5 19.5t-9 17t-8.5 22t-2.5 20q0 19 14 28l101 67q2 1 10 7 l12 9q4 2 12.5 7t14 7t12.5 5.5t14 4.5t13 1q16 0 30 -4t28 -15t22 -18.5t24 -25.5t22 -24q12 -12 73 -92q88 -115 203 -296q204 -323 316 -594q254 -613 254 -1324q0 -558 -155 -1051q-142 -448 -425 -881l-95 -141l-63 -88l-40 -54l-39 -51l-19 -24l-22 -29 q-7 -10 -22.5 -26.5t-27.5 -25t-27.5 -15.5t-30.5 -7q-30 0 -54 15z" />
<glyph unicode="*" d="M1375 2775l555 235q8 4 20 4q35 0 50 -49l65 -210q8 -28 8 -43q0 -31 -53 -42l-570 -130l385 -440q26 -28 26 -45q0 -26 -41 -55l-175 -125q-3 -2 -8.5 -6.5t-9 -7t-9 -5.5t-11 -4.5t-10.5 -1.5q-11 0 -21 7.5t-14 13t-12 19.5l-300 500l-300 -500q-24 -39 -49 -39 q-19 0 -51 24l-175 130q-2 2 -9.5 7t-11 8t-8.5 8t-7.5 10.5t-2.5 11.5t1.5 11t5.5 11.5t6 9t9 10.5l7 8l380 440l-565 130q-19 4 -28.5 7t-20.5 13.5t-11 25.5q0 11 10 39l70 210q15 46 60 46q9 0 25 -6l540 -230l-55 610q-2 19 10 30t25.5 13t34.5 2h220q17 0 30 -2 t24.5 -11.5t10.5 -26.5z" />
<glyph unicode="+" d="M1065 1470h-885q-39 0 -54.5 15t-15.5 55v235q0 40 15.5 55t54.5 15h880v880q0 40 15.5 55t54.5 15h235q39 0 54.5 -15t15.5 -55v-880h885q39 0 54.5 -15t15.5 -55v-235q0 -40 -15.5 -55t-54.5 -15h-880v-880q0 -40 -15.5 -55t-54.5 -15h-235q-39 0 -54.5 15t-15.5 55 v880z" />
<glyph unicode="," horiz-adv-x="1480" d="M1104 570q20 -1 29 -3q28 -8 28 -37q0 -16 -11 -36l-575 -1061q-28 -49 -61 -49q-16 0 -44 10l-90 32q-58 21 -58 64q0 16 7 37l282 975q11 39 30.5 53.5t59.5 14.5h403z" />
<glyph unicode="-" horiz-adv-x="1760" d="M1494 1465q39 -1 55 -11q26 -15 26 -70v-213q0 -43 -19 -62t-62 -19h-1228q-43 0 -62 19t-19 62v213q0 43 19 62t62 19h1228z" />
<glyph unicode="." horiz-adv-x="1480" d="M1095 285q-2 -146 -104.5 -250.5t-247.5 -104.5q-147 0 -250 103.5t-103 250.5t105.5 249t252.5 102q140 0 244 -105t103 -245z" />
<glyph unicode="/" horiz-adv-x="2220" d="M2115 3561l-1932 -4642q-16 -38 -35.5 -51t-60.5 -13h-189q-26 0 -43.5 11.5t-17.5 35.5q0 12 8 32l1931 4642q16 38 36 51t61 13h189q46 0 57 -27q5 -13 4 -18z" />
<glyph unicode="0" horiz-adv-x="2606" d="M1303 -41q-171 0 -305 41q-151 48 -262 139q-159 128 -270 335.5t-169 436.5q-23 91 -40 193q-20 123 -29 238q-11 143 -11 311q0 183 14 343q13 166 39 303q23 126 55.5 242t85.5 238.5t119.5 223.5t160 189.5t204.5 144.5q76 38 162 61q122 32 246 32t246 -32 q91 -24 162 -62q137 -69 247 -185t183 -259.5t119.5 -287.5t75.5 -305q26 -137 39 -303q14 -160 14 -343q0 -168 -11 -311q-9 -115 -29 -238q-17 -102 -40 -193q-58 -229 -169 -436.5t-270 -335.5q-111 -91 -262 -139q-134 -41 -305 -41zM1303 334q83 0 159 21q59 16 111 47 t91.5 70.5t74.5 92t59.5 104t46.5 113.5t36 114.5t27 112.5q21 92 33 188q12 85 21 211q9 138 9 278q0 166 -13 321q-9 109 -22 191q-12 81 -30 163q-19 79 -33 126q-22 74 -49 139.5t-67 134.5t-86.5 122t-110.5 95t-136 61q-57 16 -121 16q-63 0 -121 -16 q-90 -23 -165 -79.5t-128.5 -136t-90.5 -161t-65 -175.5q-15 -51 -33 -127q-15 -69 -31 -163q-13 -91 -21 -192q-13 -153 -13 -319q0 -139 9 -277q7 -105 17 -181q10 -84 29 -181q14 -72 33 -139q21 -75 42.5 -136.5t57 -131t76.5 -121t100 -95.5t129 -65q84 -25 175 -25z " />
<glyph unicode="1" horiz-adv-x="1832" d="M772 2845l-324 -227q-32 -21 -52 -21q-30 0 -57 45l-93 159q-18 30 -18 49q0 32 43 63l618 430q28 20 52 20h138q43 0 62 -19.5t19 -62.5v-2937l249 -86q29 -10 38.5 -24.5t9.5 -45.5v-118q0 -39 -15 -54.5t-55 -15.5h-878q-39 0 -54.5 15.5t-15.5 54.5v118q0 30 10.5 46 t38.5 24l284 86v2501z" />
<glyph unicode="2" horiz-adv-x="2433" d="M725 372h1325q43 0 62 -19.5t19 -62.5v-209q0 -43 -19 -62t-62 -19h-1687q-43 0 -61.5 19t-18.5 62v122q0 423 109 692q121 299 451 586q51 45 182 148l137 106l146 115q53 43 127 113t127 136q109 136 145 268q19 67 19 164q0 98 -21 181q-22 91 -64 157 q-64 99 -176 145t-244 46q-89 0 -158 -19q-175 -47 -290 -236q-38 -60 -80 -163q-1 -3 -10 -25t-13.5 -29.5t-14 -21.5t-22 -19.5t-27.5 -5.5q-20 0 -32 5l-211 77q-52 19 -52 65q0 34 34 111q30 64 81 150q94 160 194 251q124 116 285.5 173t340.5 57q125 0 244 -26.5 t227.5 -79.5t196 -141t136.5 -202q85 -193 85 -436q0 -173 -44 -327q-22 -74 -57.5 -145t-76 -129.5t-96 -119.5t-106.5 -107.5t-119 -102.5l-120 -95l-124 -94l-118 -91q-189 -152 -269 -229q-125 -122 -187 -234q-39 -71 -60.5 -164t-26 -160t-6.5 -175z" />
<glyph unicode="3" horiz-adv-x="2493" d="M1612 1789q258 -124 378 -276q155 -194 155 -495q0 -272 -76 -467q-53 -140 -144 -248q-146 -176 -376.5 -261.5t-483.5 -85.5q-368 0 -681 147l-62 30q-5 3 -31 16q-2 1 -15 8t-18 10l-16 10q-11 7 -16.5 12.5t-12.5 13.5t-10 16.5t-3 18.5q0 22 18 56l96 183 q25 48 62 48q16 0 32.5 -7t39 -20.5t28.5 -16.5q122 -67 164 -85q175 -75 422 -75q239 0 392 83q74 40 131 102t91.5 136t51.5 155t17 166q0 111 -28 202q-21 69 -49 112q-172 276 -667 276h-169q-43 0 -62 19t-19 62v213q0 65 44 79q12 3 37 3h164q181 0 278 28 q105 30 194.5 96t138.5 157q70 132 70 329q0 146 -48 254q-58 130 -186.5 200.5t-279.5 70.5q-119 0 -216.5 -39t-194.5 -118q-55 -45 -136 -123q-1 -1 -14 -13t-18.5 -16.5t-17 -10t-20.5 -5.5q-23 0 -35 11l-185 165q-34 30 -34 61q0 7 2 14.5t4.5 12t8.5 12t9 10.5l10 10 l10 10q77 73 128 114q164 134 328 199q178 70 386 70q137 0 279 -36q132 -35 235 -96q79 -46 142 -108q236 -231 236 -670q0 -285 -150 -476q-103 -135 -308 -253z" />
<glyph unicode="4" horiz-adv-x="2483" d="M1541 765h-1335q-43 0 -62 19t-19 62v200q0 81 18 114q8 17 30 49l1351 2108q17 27 34 36t50 9h241q18 0 27 -2q32 -6 42.5 -24.5t10.5 -54.5v-2156h341q43 0 62 -19t19 -62v-198q0 -44 -18.5 -62.5t-62.5 -18.5h-341v-692q0 -19 -1 -28q-2 -21 -13 -31t-23 -12t-36 -2 h-242q-24 0 -36 2t-23 12t-13 31q-1 9 -1 28v692zM1546 2686l-1007 -1561h1007v1561z" />
<glyph unicode="5" horiz-adv-x="2499" d="M710 1989q153 65 286.5 100t273.5 35q157 0 312 -43q117 -33 207 -85q86 -50 147 -110q274 -257 274 -770q0 -352 -115 -602q-52 -117 -127 -206q-146 -176 -371 -264t-473 -88q-365 0 -682 148l-61 30l-29 15l-13 7q-12 6 -16 8.5t-14.5 8.5t-15.5 10t-12.5 11.5 t-11 13.5t-6.5 14t-3 17q0 18 18 56l96 182q26 48 64 48q12 0 27 -5t23.5 -9.5l26.5 -14.5l22 -14q103 -56 163 -81q172 -73 421 -73q137 0 252 35q73 22 135 60q81 50 139.5 127.5t90 168.5t46 182.5t14.5 190.5q0 89 -12.5 169t-40.5 160t-80 146.5t-125 109.5 q-60 35 -132 54q-85 22 -191 22q-224 0 -410 -126q-40 -26 -68 -49q-4 -3 -24.5 -23.5t-39 -36.5t-44.5 -30.5t-46 -14.5h-15l-184 14q-39 3 -56.5 22t-17.5 58v6v2l134 1710q3 43 21 60.5t61 17.5h1406q23 0 34 -3q48 -10 48 -79v-208q0 -43 -19.5 -62.5t-62.5 -19.5h-1149 z" />
<glyph unicode="6" horiz-adv-x="2475" d="M1840 1137q1 61 -5 130q-8 94 -30 182t-62 173.5t-106.5 152t-152.5 98.5q-87 31 -194 31q-93 0 -172 -24q-92 -28 -163.5 -89.5t-115.5 -138.5t-72 -173.5t-38.5 -185.5t-10.5 -183q0 -93 10 -181t37.5 -183.5t70 -171.5t113 -138t160.5 -90q73 -24 161 -24q84 0 157 22 q56 17 112 52q72 46 125.5 113t85.5 149t50 159.5t28 169.5q10 100 12 150zM683 1906q84 88 157 150.5t155 106.5q172 94 391 94q147 0 274 -42q77 -26 136 -62q122 -71 211.5 -184t139.5 -247.5t73 -272.5t23 -283q0 -157 -28 -308t-85.5 -295t-156 -267.5t-229.5 -204.5 q-87 -54 -183 -85q-138 -47 -292 -47q-140 0 -267 40q-97 29 -189 84q-76 44 -140 102q-105 94 -181 218.5t-119.5 267.5t-66 275.5t-33.5 288.5q-8 128 -8 242q0 851 276 1354q123 223 267 353q129 117 297 181.5t344 64.5q227 0 442 -121q2 -1 18.5 -10t22.5 -13l20 -14 q15 -9 22 -16t16 -17t13 -21t4 -22q0 -17 -14 -45l-77 -167q-20 -45 -58 -45q-16 0 -55 23q-42 24 -81 41q-131 56 -260 56q-89 0 -183 -27q-414 -124 -547 -776q-14 -68 -28 -160q-9 -65 -21 -190z" />
<glyph unicode="7" horiz-adv-x="2206" d="M2075 3169l-1154 -3099l-12 -33q-8 -13 -15.5 -21.5t-20.5 -11.5t-17 -4t-25.5 -0.5t-25.5 0.5h-236q-25 0 -39 1.5t-32 7t-26.5 20t-8.5 37.5q0 24 16 64l1111 2858h-1357q-39 0 -54.5 15t-15.5 55v235q0 39 15.5 54.5t54.5 15.5h1772q39 0 54.5 -15.5t15.5 -54.5v-124z " />
<glyph unicode="8" d="M713 1789q-122 80 -190 162q-195 229 -195 609q0 210 70.5 388.5t222.5 296.5q88 69 201 113q183 72 428 72t428 -72q113 -44 201 -113q152 -118 222.5 -296.5t70.5 -388.5q0 -380 -195 -609q-68 -82 -190 -162q132 -55 214 -121q289 -232 289 -718q0 -211 -69 -406.5 t-207 -331.5q-89 -88 -210 -149q-218 -109 -554 -109t-554 109q-121 61 -210 149q-138 136 -207 331.5t-69 406.5q0 474 275 706q84 71 228 133zM625 960q2 -147 36 -265q23 -75 61 -137q34 -58 86 -109q151 -145 442 -145q376 0 528 254q42 68 66 157q31 113 31 260 q0 381 -222 542q-57 42 -140 69q-112 37 -263 37q-133 0 -239 -30q-83 -23 -147 -64q-243 -157 -239 -569zM1250 3106q-115 0 -201 -25q-54 -14 -110 -45q-233 -133 -233 -501q0 -86 15.5 -165t49 -153.5t93 -132t139.5 -88.5q107 -41 247 -41t247 41q80 31 139.5 88.5 t93 132t49 153.5t15.5 165q0 368 -233 501q-56 31 -110 45q-86 25 -201 25z" />
<glyph unicode="9" horiz-adv-x="2475" d="M632 2294q-1 -65 7 -145t23 -152.5t44 -150t69.5 -138.5t102.5 -111t139 -73q79 -23 169 -23q91 0 170 23q61 19 109 49q83 51 142.5 133t90.5 180t44.5 193.5t13.5 197.5q0 77 -7 146q-8 80 -23.5 152.5t-45 149t-71 136.5t-104 109t-139.5 73q-80 24 -165 24 q-79 0 -154 -21q-58 -16 -113 -49q-72 -44 -125.5 -107t-86 -140.5t-50.5 -152.5t-29 -164q-11 -101 -11 -139zM1792 1499q-168 -175 -299 -249q-176 -101 -403 -101q-147 0 -274 42q-66 22 -138 63q-98 58 -175.5 146.5t-127.5 188t-83 216t-46.5 228t-13.5 226.5 q0 155 28 302.5t86 286.5t156 257.5t228 196.5q88 51 184 83q141 45 291 45q154 0 295 -49q115 -41 208 -105q109 -74 193.5 -179t137 -216.5t88.5 -248.5t52.5 -257.5t24.5 -259.5q6 -117 6 -235q0 -173 -8 -313q-9 -156 -28 -296q-125 -931 -651 -1200q-88 -45 -192 -73 q-153 -39 -313 -39q-248 0 -459 101q-17 7 -34 18q-1 1 -11 6.5t-12 7.5l-12 7q-10 6 -13.5 9t-11.5 9t-11 10.5t-8.5 11t-7.5 12t-4 13t-2 14.5q0 17 14 45l88 193q22 45 58 45q8 0 17 -3t14 -5.5t16 -9t13 -7.5q36 -21 91 -46q134 -60 272 -60q99 0 182 24 q391 113 535 745q23 107 34 184q14 90 26 216z" />
<glyph unicode=":" horiz-adv-x="1480" d="M1095 2015q-2 -146 -103 -248t-247 -102q-148 0 -251.5 103t-103.5 251q0 147 105.5 249t252.5 102q141 0 244.5 -106.5t102.5 -248.5zM1095 285q-2 -146 -104.5 -250.5t-247.5 -104.5q-147 0 -250 103.5t-103 250.5t105.5 249t252.5 102q140 0 244 -105t103 -245z" />
<glyph unicode=";" horiz-adv-x="1480" d="M1170 2015q-1 -145 -106 -247.5t-250 -102.5q-146 0 -247.5 104t-101.5 251q0 146 105.5 248t252.5 102q141 0 245 -106.5t102 -248.5zM1104 570q20 -1 29 -3q28 -9 28 -37q0 -14 -12 -36l-575 -1061q-26 -49 -60 -49q-16 0 -44 10l-91 32q-57 21 -57 64q0 13 6 37 l283 975q11 39 30.5 53.5t59.5 14.5h403z" />
<glyph unicode="&#x3c;" d="M570 1600l1748 -803q28 -13 37.5 -28t9.5 -46v-288q0 -18 -8.5 -31t-26.5 -13q-10 0 -24 7l-2124 1005q-28 13 -37.5 28t-9.5 46v246q0 31 9.5 46t37.5 28l2124 1005q14 7 24 7q18 0 26.5 -13t8.5 -31v-288q0 -31 -9.5 -46t-37.5 -28z" />
<glyph unicode="=" d="M2320 1800h-2140q-39 0 -54.5 15t-15.5 55v235q0 40 15.5 55t54.5 15h2140q39 0 54.5 -15t15.5 -55v-235q0 -48 -22 -61q-13 -8 -27 -8zM2320 1015h-2140q-39 0 -54.5 15t-15.5 55v235q0 40 15.5 55t54.5 15h2140q39 0 54.5 -15t15.5 -55v-235q0 -48 -22 -61 q-13 -8 -27 -8z" />
<glyph unicode="&#x3e;" d="M1930 1600l-1748 803q-28 13 -37.5 28t-9.5 46v288q0 18 8.5 31t26.5 13q10 0 24 -7l2124 -1005q28 -13 37.5 -28t9.5 -46v-246q0 -31 -9.5 -46t-37.5 -28l-2124 -1005q-14 -7 -24 -7q-18 0 -26.5 13t-8.5 31v288q0 31 9.5 46t37.5 28z" />
<glyph unicode="?" horiz-adv-x="2130" d="M1046 1845v-450q0 -39 -15.5 -54.5t-54.5 -15.5h-200q-39 0 -54.5 15.5t-15.5 54.5v615q0 36 10 55q7 14 28 26.5t39 18t46 13t32 8.5q134 42 192 64q136 53 210 118q76 67 114.5 165.5t38.5 206.5q0 82 -21 151q-14 50 -35 83q-125 211 -462 211q-183 0 -382 -63 q-61 -19 -124 -45q-3 -1 -24 -10.5t-34.5 -13t-26.5 -3.5q-31 0 -46 40l-70 190q-9 25 -9 34q0 45 102 88l6 3q15 7 45 19q280 106 601 106q434 0 669 -231q57 -56 105 -134q36 -62 63 -145q38 -124 38 -272q0 -137 -32 -250q-23 -86 -64 -157q-41 -74 -99.5 -136.5 t-119.5 -106.5t-141 -82.5t-149.5 -63.5t-159.5 -52zM1241 285q-2 -147 -105.5 -251t-249.5 -104q-145 0 -247.5 104.5t-102.5 250.5t105.5 248t252.5 102q140 0 244 -105t103 -245z" />
<glyph unicode="@" horiz-adv-x="4720" d="M2900 1950l36 86q16 38 35.5 51t60.5 13h144q30 0 50 -13.5t20 -41.5q0 -13 -3 -27l-238 -1118q-15 -75 -15 -120q0 -185 105 -239q41 -21 107 -21q141 0 273 76.5t237 196.5q169 194 256 469.5t87 556.5q0 242 -70 441q-39 111 -99 203q-93 144 -229.5 251.5t-296 169.5 t-326 91.5t-342.5 29.5q-463 0 -883 -210.5t-701 -582.5q-205 -271 -314 -601t-109 -673q0 -216 43.5 -430.5t131.5 -387.5q131 -258 366 -432q126 -93 268 -151q309 -127 750 -127q559 0 1069 178q112 39 332 142l48 24q31 16 47 23q44 23 68 23q31 0 47 -40l60 -145 q10 -24 10 -39q0 -35 -78 -87q-46 -33 -111.5 -62.5t-107 -43.5t-122.5 -39q-716 -224 -1260 -224q-551 0 -912 151q-177 73 -328 184q-251 185 -411 450q-121 200 -192 488q-63 260 -63 508q0 229 57 491q83 390 269.5 726.5t473.5 592.5q314 280 720 432t832 152 q190 0 400 -35q697 -117 1032 -564q88 -118 146 -255q110 -262 110 -614q0 -198 -30 -359q-58 -309 -219.5 -580t-405.5 -441q-291 -202 -580 -202q-194 0 -304 117q-49 50 -60 81q-9 28 -21 62l-17 46q-4 11 -9 29t-7 32t-3.5 32.5t-3.5 50.5q-114 -157 -197 -235 q-103 -96 -227 -153t-254 -57q-82 0 -147 22q-81 26 -141 84.5t-92 136.5t-47 158t-15 165q0 179 51 403q85 382 279 632q170 219 373 279q68 21 158 21q167 0 254 -43q35 -17 70 -45.5t58 -51.5t57 -61zM2830 1690q-133 117 -241 149q-59 17 -142 17q-150 0 -285 -232 q-109 -186 -166 -489q-36 -189 -36 -305q0 -223 119 -261q26 -9 61 -9q154 0 305 145q212 202 295 575z" />
<glyph unicode="A" horiz-adv-x="2883" d="M297 344l930 3031q11 37 21 45t30 9q8 1 24 1h295q18 0 23.5 -0.5t16.5 -3t16.5 -9.5t10.5 -19l8 -23l929 -3031l249 -86q29 -10 38.5 -24.5t9.5 -45.5v-118q0 -38 -14.5 -54t-51.5 -16h-899q-39 0 -54.5 15.5t-15.5 54.5v118q0 31 10 45.5t39 24.5l249 86l-190 686 h-1073l-189 -686l249 -86q29 -10 38.5 -24.5t9.5 -45.5v-118q0 -39 -15 -54.5t-55 -15.5h-866q-39 0 -54.5 15.5t-15.5 54.5v118q0 31 10 45.5t39 24.5zM993 1375h883l-442 1601z" />
<glyph unicode="B" horiz-adv-x="2838" d="M538 354v2722l-258 88q-29 10 -38.5 24.5t-9.5 45.5v126q0 39 15 54.5t55 15.5h1076q87 0 138.5 -1.5t134 -7t141 -18.5t126.5 -35t126 -58.5t107 -85.5q58 -58 101 -132q56 -93 90 -212q36 -128 36 -274q0 -192 -69 -364.5t-204 -296.5q-85 -76 -227 -150 q64 -18 101 -30t89.5 -35t91.5 -51q166 -114 252 -314t86 -418q0 -162 -45 -315q-39 -131 -109 -239q-60 -93 -134 -160q-57 -53 -132 -99q-49 -29 -106.5 -51t-103 -36t-118 -24t-108.5 -14.5t-121.5 -6.5t-109.5 -2h-118h-991q-40 0 -55 15.5t-15 54.5v125q0 31 9.5 45.5 t38.5 24.5zM943 1915h325q162 0 229 11q51 9 93 26q47 18 98 53q245 174 245 565q0 114 -19 195q-16 71 -42 120q-24 45 -58 79.5t-75.5 57t-84.5 37.5t-94 22.5t-95.5 10.5t-96.5 3h-425v-1180zM943 335h455q212 0 324 46q60 25 121 74q210 172 210 508q0 123 -31 227 q-23 77 -66 143q-167 247 -583 247h-430v-1245z" />
<glyph unicode="C" horiz-adv-x="2410" d="M1819 382l128 371q10 32 22.5 40.5t47.5 8.5h128q28 0 44 -16t16 -44v-462q0 -47 -19.5 -73t-66.5 -58t-101 -60q-308 -159 -624 -159q-177 0 -334 50q-89 30 -173 77q-471 272 -591 1081q-15 98 -25 225q-16 188 -16 388q0 198 16 384q11 128 25 222q115 761 560 1018 q78 45 168 75q153 50 332 50q334 0 645 -164q67 -35 111 -69q39 -29 53.5 -50.5t14.5 -61.5v-485q0 -28 -16 -44t-44 -16h-128h-24q-20 2 -29.5 14t-16.5 35l-136 394q-110 55 -205.5 83.5t-199.5 28.5q-118 0 -209 -30q-80 -25 -146 -77t-110 -114.5t-78.5 -145t-54.5 -155 t-36 -158.5q-13 -67 -23 -162q-14 -152 -19 -261q-5 -128 -5 -231q0 -155 7 -289q7 -165 19 -270q10 -95 27 -190q20 -104 33 -155q134 -555 480 -643q75 -19 155 -19q179 0 398 117z" />
<glyph unicode="D" horiz-adv-x="2838" d="M538 354v2722l-258 88q-29 10 -38.5 24.5t-9.5 45.5v126q0 39 15 54.5t55 15.5h931q112 0 189.5 -3t178.5 -14.5t190.5 -37.5t168.5 -67q466 -244 579 -1044q13 -89 23 -211q11 -160 11 -306q0 -123 -8 -264q-11 -172 -31.5 -313.5t-63 -298t-118.5 -294t-184 -246.5 q-68 -68 -149 -123q-127 -85 -295 -137q-234 -71 -551 -71h-871q-40 0 -55 15.5t-15 54.5v125q0 31 9.5 45.5t38.5 24.5zM943 355h315q157 0 284 36q86 26 153 65q66 38 121.5 90.5t96 109t73 126.5t53.5 136.5t37.5 145.5t25.5 147t16 147q5 61 11 183q4 95 4 214 q0 241 -19.5 439.5t-76.5 370.5q-97 290 -299 410q-102 61 -227.5 80.5t-287.5 19.5h-280v-2720z" />
<glyph unicode="E" horiz-adv-x="2378" d="M538 354v2722l-258 88q-29 10 -38.5 24.5t-9.5 45.5v126q0 39 15 54.5t55 15.5h1806q39 0 54.5 -15.5t15.5 -54.5v-617q0 -28 -16 -44t-44 -16h-130h-23q-20 2 -30 14t-17 35l-126 378h-849v-1160h985q39 0 54.5 -15.5t15.5 -54.5v-195q0 -39 -15.5 -54.5t-54.5 -15.5 h-985v-1295h879l131 393q10 32 23 40.5t47 8.5h130q28 0 44 -16t16 -44v-632q0 -39 -15.5 -54.5t-54.5 -15.5h-1841q-40 0 -55 15.5t-15 54.5v125q0 31 9.5 45.5t38.5 24.5z" />
<glyph unicode="F" horiz-adv-x="2285" d="M541 356v2720l-258 88q-29 10 -39 24.5t-10 45.5v126q0 39 15.5 54.5t54.5 15.5h1813q39 0 54.5 -15.5t15.5 -54.5v-617q0 -28 -16 -44t-44 -16h-129h-23q-14 1 -23.5 9t-13.5 16t-10 24l-128 373h-849v-1190h980q39 0 54.5 -15.5t15.5 -54.5v-195q0 -39 -15.5 -54.5 t-54.5 -15.5h-980v-1224l263 -90q29 -10 39 -25t10 -45v-126q0 -39 -15.5 -54.5t-54.5 -15.5h-895q-39 0 -54.5 15.5t-15.5 54.5v126q0 30 10 45t39 25z" />
<glyph unicode="G" horiz-adv-x="2681" d="M2340 1391v-1186q0 -25 -10 -42t-20.5 -24.5t-38.5 -22.5q-6 -3 -9 -5q-59 -32 -100 -49q-151 -64 -331.5 -98t-353.5 -34q-217 0 -397 59q-92 29 -183 81q-109 63 -200 155.5t-154.5 195.5t-113.5 226t-80 240.5t-50 246.5q-14 99 -24 210q-15 176 -15 352q0 178 15 355 q10 110 24 208q20 134 51 256t82 250.5t117.5 235.5t161 203.5t207.5 161.5q86 50 181 80q165 54 351 54q345 0 646 -166q17 -9 78 -47l41 -27q29 -20 39.5 -41.5t10.5 -58.5v-500q0 -28 -15.5 -44t-44.5 -16h-128h-24q-20 2 -29.5 14t-16.5 35l-142 409q-195 107 -401 107 q-98 0 -181 -24q-70 -18 -134 -53q-321 -171 -407 -738q-10 -72 -18 -149q-8 -81 -12 -158q-7 -134 -7 -289q0 -112 5 -250q4 -106 15 -211q6 -71 20 -164q19 -121 45 -221t71 -209.5t117.5 -197t167.5 -142.5q56 -34 121 -54q124 -40 282 -40q99 0 182.5 23t198.5 72v1031 l-249 86q-29 10 -38.5 24.5t-9.5 45.5v118q0 39 15 54.5t55 15.5h864q40 0 55 -15.5t15 -54.5v-118q0 -31 -9.5 -45.5t-38.5 -24.5z" />
<glyph unicode="H" horiz-adv-x="3185" d="M542 344v2739l-248 86q-29 10 -39 24.5t-10 45.5v118q0 39 15.5 54.5t54.5 15.5h865q39 0 54.5 -15.5t15.5 -54.5v-118q0 -31 -10 -45.5t-39 -24.5l-249 -86v-1128h1280v1128l-248 86q-29 10 -39 24.5t-10 45.5v118q0 39 15.5 54.5t54.5 15.5h865q39 0 54.5 -15.5 t15.5 -54.5v-118q0 -31 -10 -45.5t-39 -24.5l-249 -86v-2739l249 -86q29 -10 39 -24.5t10 -45.5v-118q0 -39 -15.5 -54.5t-54.5 -15.5h-865q-39 0 -54.5 15.5t-15.5 54.5v118q0 31 10 45.5t39 24.5l248 86v1266h-1280v-1266l249 -86q29 -10 39 -24.5t10 -45.5v-118 q0 -39 -15.5 -54.5t-54.5 -15.5h-865q-39 0 -54.5 15.5t-15.5 54.5v118q0 31 10 45.5t39 24.5z" />
<glyph unicode="I" horiz-adv-x="1671" d="M631 344v2742l-249 86q-29 10 -39 24.5t-10 45.5v118q0 39 15.5 54.5t54.5 15.5h865q39 0 54.5 -15.5t15.5 -54.5v-118q0 -31 -10 -45.5t-39 -24.5l-248 -86v-2742l248 -86q29 -10 39 -24.5t10 -45.5v-118q0 -39 -15.5 -54.5t-54.5 -15.5h-865q-39 0 -54.5 15.5 t-15.5 54.5v118q0 31 10 45.5t39 24.5z" />
<glyph unicode="J" horiz-adv-x="2220" d="M1420 3085h-865q-39 0 -54.5 15.5t-15.5 54.5v205q0 39 15.5 54.5t54.5 15.5h1205q39 0 54.5 -15.5t15.5 -54.5v-2300q0 -218 -5 -327q-10 -197 -54 -305q-51 -124 -160 -238q-74 -76 -163 -126q-97 -58 -225 -94q-146 -40 -313 -40q-243 0 -428 84q-76 35 -142 86 q-114 88 -186.5 219.5t-100.5 266.5t-28 289v40q0 39 15.5 54.5t54.5 15.5h240q39 0 54.5 -15.5t15.5 -54.5v-40q0 -396 248 -546q41 -24 97 -41q76 -23 165 -23q93 0 178 25q64 19 122 56q47 29 81 66q118 127 120 330q4 196 4 293v2050z" />
<glyph unicode="K" horiz-adv-x="2752" d="M542 344v2742l-248 86q-29 10 -39 24.5t-10 45.5v118q0 39 15.5 54.5t54.5 15.5h865q39 0 54.5 -15.5t15.5 -54.5v-118q0 -31 -10 -45.5t-39 -24.5l-249 -86v-1376l1044 1373l-249 86q-29 10 -38.5 24.5t-9.5 45.5v118q0 39 15 54.5t55 15.5h899q39 0 54.5 -15.5 t15.5 -54.5v-118q0 -31 -10 -45.5t-39 -24.5l-249 -86l-1073 -1378l1086 -1361l248 -86q29 -10 39 -24.5t10 -45.5v-118q0 -39 -15.5 -54.5t-54.5 -15.5h-925q-39 0 -54.5 15.5t-15.5 54.5v118q0 31 10 45.5t39 24.5l249 86l-1031 1306v-1306l249 -86q29 -10 39 -24.5 t10 -45.5v-118q0 -39 -15.5 -54.5t-54.5 -15.5h-865q-39 0 -54.5 15.5t-15.5 54.5v118q0 31 10 45.5t39 24.5z" />
<glyph unicode="L" horiz-adv-x="2283" d="M538 354v2732l-249 86q-29 10 -38.5 24.5t-9.5 45.5v118q0 39 15 54.5t55 15.5h864q40 0 55 -15.5t15 -54.5v-118q0 -31 -9.5 -45.5t-38.5 -24.5l-249 -86v-2761h952l145 435q10 31 22.5 39.5t47.5 8.5h136q29 0 44.5 -16t15.5 -44v-678q0 -39 -15 -54.5t-55 -15.5h-1939 q-40 0 -55 15.5t-15 54.5v125q0 31 9.5 45.5t38.5 24.5z" />
<glyph unicode="M" horiz-adv-x="3523" d="M489 344l158 2742l-249 86q-29 10 -38.5 24.5t-9.5 45.5v118q0 39 15 54.5t55 15.5h603q20 0 29 -1t20 -7.5t17 -21.5l9 -25l662 -1921l673 1921l11 31q4 9 10 14.5t18.5 7.5t16.5 2h19h618q40 0 55 -15.5t15 -54.5v-118q0 -31 -9.5 -45.5t-38.5 -24.5l-249 -86 l158 -2742l249 -86q29 -10 38.5 -24.5t9.5 -45.5v-118q0 -39 -15 -54.5t-55 -15.5h-874q-39 0 -54.5 15.5t-15.5 54.5v118q0 31 10 45.5t39 24.5l248 86l-69 2423l-661 -1901q-14 -38 -33 -52t-60 -14h-123q-40 0 -59 14t-33 52l-636 1892l-74 -2414l248 -86 q29 -10 39 -24.5t10 -45.5v-118q0 -39 -15.5 -54.5t-54.5 -15.5h-854q-40 0 -55 15.5t-15 54.5v118q0 31 9.5 45.5t38.5 24.5z" />
<glyph unicode="N" horiz-adv-x="2857" d="M422 344v2742l-248 86q-29 10 -39 24.5t-10 45.5v118q0 39 15.5 54.5t54.5 15.5h579q56 0 80 -50l1233 -2599v2305l-248 86q-29 10 -39 24.5t-10 45.5v118q0 39 15.5 54.5t54.5 15.5h820q39 0 54.5 -15.5t15.5 -54.5v-118q0 -31 -10 -45.5t-39 -24.5l-249 -86v-3016 q0 -17 -1 -26q-1 -16 -6.5 -25t-16 -13t-19.5 -5t-27 -1h-270q-52 0 -75 50l-1250 2634v-2340l249 -86q29 -10 39 -24.5t10 -45.5v-118q0 -39 -15.5 -54.5t-54.5 -15.5h-820q-39 0 -54.5 15.5t-15.5 54.5v118q0 31 10 45.5t39 24.5z" />
<glyph unicode="O" horiz-adv-x="2780" d="M2515 1720q-1 -176 -19 -378q-12 -139 -24 -217q-115 -790 -586 -1065q-80 -47 -174 -78q-160 -52 -347 -52q-181 0 -338 51q-81 26 -162 72q-445 261 -563 1030q-14 96 -25 224q-17 199 -17 389q0 200 16 388q14 144 26 225q119 788 584 1059q87 51 180 80 q162 52 349 52q182 0 336 -50q81 -26 154 -68q466 -267 577 -1106q12 -87 21 -217q13 -188 12 -339zM2070 1685q0 147 -7 274q-4 110 -15 220q-9 99 -26 208q-11 69 -24 130t-26.5 111t-34 110t-43.5 108t-56 97.5t-71 86.5t-89 67t-109 46q-76 22 -170 22q-95 0 -172 -22 q-63 -17 -128 -52q-69 -39 -123.5 -98t-89 -120.5t-62 -144t-42 -148t-28.5 -153.5q-15 -81 -27 -202q-9 -97 -15 -197q-7 -137 -7 -293q0 -136 6 -274q7 -117 16 -210q13 -123 27 -203q11 -70 25 -131q31 -145 76 -260q55 -145 139.5 -239.5t217.5 -131.5q77 -21 169 -21 q98 0 180 24q60 16 118 49q109 62 175 164t107 241q37 130 59 257q13 78 25 181q12 111 18 226q7 129 7 278z" />
<glyph unicode="P" horiz-adv-x="2472" d="M542 344v2742l-248 86q-29 10 -39 24.5t-10 45.5v118q0 39 15.5 54.5t54.5 15.5h1072q104 0 168.5 -2t161 -13.5t165 -33t144.5 -63.5t135 -102q68 -69 117 -157q59 -106 89 -236q35 -143 35 -312q0 -199 -46 -363q-36 -134 -102 -247q-52 -91 -123 -167 q-57 -59 -120 -104q-148 -106 -312 -143t-382 -37h-370v-1106l249 -86q29 -10 39 -24.5t10 -45.5v-118q0 -39 -15.5 -54.5t-54.5 -15.5h-860q-39 0 -54.5 15.5t-15.5 54.5v118q0 31 10 45.5t39 24.5zM947 1810h340q84 0 127 1.5t112.5 12.5t122.5 33q92 38 159.5 109.5 t104 161.5t53 183.5t16.5 194.5q0 129 -25 226q-19 79 -56 141q-28 49 -68 88q-37 36 -86 61t-90 37t-105.5 18t-99.5 7t-105 1h-400v-1275z" />
<glyph unicode="Q" horiz-adv-x="2780" d="M2175 320l521 -385q31 -22 31 -49q0 -28 -32 -51l-193 -136q-35 -24 -56 -24q-26 0 -57 25l-495 365q-135 -70 -257 -102.5t-267 -32.5q-186 0 -346 52q-85 27 -161 72q-444 257 -561 1032q-17 112 -26 227q-16 186 -16 384q0 199 16 387q11 127 25 219q24 163 66 309 t109.5 292t173 267t239.5 199q83 48 174 78q162 52 348 52q181 0 335 -49q83 -27 160 -71q449 -258 567 -1040q12 -84 26 -229q16 -191 16 -393q0 -326 -40 -603.5t-146 -520.5q-55 -123 -154 -274zM2070 1685q0 160 -9 319q-7 116 -16 206q-8 79 -23 173q-11 68 -24 131 q-19 88 -38.5 157t-55 151t-78.5 141t-109.5 108.5t-147.5 71.5q-76 22 -170 22q-95 0 -172 -22q-63 -17 -128 -52q-69 -39 -123.5 -98t-89 -120.5t-62 -144t-42 -148t-28.5 -153.5q-15 -81 -27 -202q-9 -99 -15 -198q-7 -134 -7 -290q0 -136 6 -274q7 -118 16 -213 q12 -117 26 -202q10 -62 24 -127q16 -77 31.5 -134t43 -132.5t59.5 -131t81 -108.5t109 -86q52 -28 106 -43q77 -21 169 -21q98 0 181 24q61 16 120 49q118 66 184.5 175.5t109.5 265.5q49 183 74 407q12 114 18 225q7 127 7 274z" />
<glyph unicode="R" horiz-adv-x="2749" d="M543 344v2743l-249 85q-29 10 -39 24.5t-10 45.5v118q0 39 15.5 54.5t54.5 15.5h1068q100 0 169.5 -2.5t165.5 -15t167.5 -35t149 -65.5t136.5 -103q53 -53 96 -125q60 -100 90 -215q36 -133 36 -295q0 -259 -97 -480.5t-294 -366.5q-93 -69 -264 -137l683 -1246l248 -85 q30 -10 39.5 -24.5t9.5 -45.5v-119q0 -39 -15.5 -54.5t-54.5 -15.5h-462q-62 0 -90 55l-778 1500h-365v-1211l248 -85q30 -10 39.5 -24.5t9.5 -45.5v-119q0 -39 -15.5 -54.5t-54.5 -15.5h-865q-39 0 -54.5 15.5t-15.5 54.5v119q0 30 10 45t39 25zM953 1870h390q188 0 295 45 q55 24 104 62q231 179 231 560q0 124 -24 220q-19 76 -55 138q-29 47 -63 81q-28 27 -60.5 48t-60.5 34.5t-69.5 23t-67.5 14t-74.5 7t-71.5 2.5h-74h-400v-1235z" />
<glyph unicode="S" horiz-adv-x="2410" d="M598 418q162 -56 294 -87t263 -31q164 0 305.5 62.5t221.5 189.5q28 45 50 106q32 96 32 214q0 111 -27 195q-35 109 -115.5 192.5t-201.5 165.5q-84 57 -209 129l-199 114q-222 131 -310 194q-153 111 -240 224q-104 136 -146 306q-26 100 -26 212q0 136 39 267 q29 92 77 175q87 150 229 254t305 152t341 48q303 0 619 -125q68 -27 112 -50q50 -26 71.5 -52t21.5 -73v-515q0 -29 -15.5 -44.5t-44.5 -15.5h-137h-23q-14 1 -23.5 9t-13.5 16t-10 24l-134 389q-229 72 -425 72q-354 0 -492 -226q-24 -39 -41 -94q-24 -76 -24 -178 q0 -108 28 -188q19 -54 55.5 -104.5t75 -87.5t96 -77.5t99.5 -65.5l103 -60q20 -11 30 -17l174 -99l109 -63l146 -86q42 -26 116 -76.5t120 -90.5q156 -137 241 -325t85 -395q0 -158 -42 -298q-35 -116 -98 -218q-71 -114 -173 -202.5t-221 -143t-249.5 -82.5t-266.5 -28 q-196 0 -440 56q-164 39 -274 80q-86 34 -135 61q-60 31 -79 69q-12 25 -12 69v495q0 28 16 44t44 16h137h23q14 -1 23.5 -9t13.5 -16t10 -24z" />
<glyph unicode="T" horiz-adv-x="2238" d="M920 356v2754h-478l-130 -378q-11 -32 -23.5 -40.5t-46.5 -8.5h-137q-28 0 -44 16t-16 44v617q0 39 15.5 54.5t54.5 15.5h2019q40 0 55 -15.5t15 -54.5v-617q0 -28 -16 -44t-44 -16h-136h-24q-20 2 -29.5 14t-16.5 35l-131 378h-477v-2754l263 -90q29 -10 39 -25t10 -45 v-126q0 -39 -15.5 -54.5t-54.5 -15.5h-895q-39 0 -54.5 15.5t-15.5 54.5v126q0 30 10 45t39 25z" />
<glyph unicode="U" horiz-adv-x="3030" d="M1501 -70q-545 -2 -804 255q-66 66 -115 149q-54 89 -88 215q-43 168 -43 371v2166l-249 86q-29 10 -39 24.5t-10 45.5v118q0 39 15.5 54.5t54.5 15.5h865q39 0 54.5 -15.5t15.5 -54.5v-118q0 -31 -10 -45.5t-39 -24.5l-248 -86v-2151q0 -95 9.5 -173t34.5 -162.5 t77.5 -151t130.5 -108.5q61 -33 146 -52q98 -23 236 -23q444 0 587 246q37 62 59 152q28 112 28 272v2151l-249 86q-29 10 -38.5 24.5t-9.5 45.5v118q0 39 15 54.5t55 15.5h864q40 0 55 -15.5t15 -54.5v-118q0 -31 -9.5 -45.5t-38.5 -24.5l-249 -86v-2166q0 -202 -46 -371 q-34 -125 -91 -215q-55 -87 -120 -148q-269 -254 -821 -256z" />
<glyph unicode="V" horiz-adv-x="2461" d="M667 3086l630 -2581l646 2581l-249 86q-29 10 -39 24.5t-10 45.5v118q0 39 15.5 54.5t54.5 15.5h659q28 0 47.5 -12.5t19.5 -40.5q0 -14 -5 -29l-133 -485l-79 -290l-682 -2518q-9 -33 -24 -44t-51 -11h-350q-22 0 -31 1t-20 8.5t-17 24.5q-3 7 -7 21l-810 3031l-248 86 q-29 10 -39 24.5t-10 45.5v118q0 39 15.5 54.5t54.5 15.5h889q39 0 54.5 -15.5t15.5 -54.5v-118q0 -31 -10 -45.5t-39 -24.5z" />
<glyph unicode="W" horiz-adv-x="3527" d="M630 3086l420 -2402l537 2686q7 37 21.5 48.5t53.5 11.5h265q17 0 25 -0.5t18.5 -4t16.5 -11.5t10 -21q4 -17 5 -23l432 -2536l475 2252l-249 86q-29 10 -39 24.5t-10 45.5v118q0 39 15.5 54.5t54.5 15.5h628q30 0 50.5 -13.5t20.5 -41.5q0 -11 -4 -27l-104 -484 l-63 -292l-537 -2512q-8 -37 -20.5 -48.5t-49.5 -11.5h-330q-38 0 -53.5 12t-21.5 48l-425 2677l-520 -2677q-7 -36 -20.5 -48t-49.5 -12h-310q-20 0 -30.5 1.5t-22.5 9.5t-16 24q-2 5 -4 14.5t-2 10.5l-576 3026l-249 86q-29 10 -39 24.5t-10 45.5v118q0 39 15.5 54.5 t54.5 15.5h865q39 0 54.5 -15.5t15.5 -54.5v-118q0 -31 -10 -45.5t-39 -24.5z" />
<glyph unicode="X" horiz-adv-x="2596" d="M1872 344l-580 1078l-578 -1078l249 -86q29 -10 38.5 -24.5t9.5 -45.5v-118q0 -39 -15 -54.5t-55 -15.5h-893q-39 0 -54.5 15.5t-15.5 54.5v118q0 31 10 45.5t39 24.5l248 86l809 1434l-739 1308l-248 86q-29 10 -39 24.5t-10 45.5v118q0 39 15.5 54.5t54.5 15.5h893 q40 0 55 -15.5t15 -54.5v-118q0 -31 -9.5 -45.5t-38.5 -24.5l-249 -86l510 -947l508 947l-249 86q-29 10 -39 24.5t-10 45.5v118q0 39 15.5 54.5t54.5 15.5h888q40 0 55 -15.5t15 -54.5v-118q0 -31 -9.5 -45.5t-38.5 -24.5l-249 -86l-733 -1301l818 -1441l249 -86 q29 -10 38.5 -24.5t9.5 -45.5v-118q0 -39 -15 -54.5t-55 -15.5h-903q-39 0 -54.5 15.5t-15.5 54.5v118q0 31 10 45.5t39 24.5z" />
<glyph unicode="Y" horiz-adv-x="2415" d="M186 3086l-249 86q-29 10 -39 24.5t-10 45.5v118q0 39 15.5 54.5t54.5 15.5h934q39 0 54.5 -15.5t15.5 -54.5v-118q0 -31 -10 -45.5t-39 -24.5l-248 -86l597 -1231l595 1231l-249 86q-29 10 -38.5 24.5t-9.5 45.5v118q0 39 15 54.5t55 15.5h770q23 0 40 -10.5t17 -32.5 q0 -14 -10 -34l-981 -1898v-1099l263 -91q29 -10 39 -24.5t10 -45.5v-125q0 -40 -15.5 -55t-54.5 -15h-895q-39 0 -54.5 15t-15.5 55v125q0 31 10 45.5t39 24.5l264 91v1089z" />
<glyph unicode="Z" horiz-adv-x="2410" d="M714 3080l-112 -326q-11 -32 -23.5 -40.5t-46.5 -8.5h-137q-29 0 -44.5 15.5t-15.5 44.5v590q0 3 -1 11t0 12q3 33 18.5 42.5t52.5 9.5h1685q17 0 26 -1q16 -1 25 -6.5t13 -16t5 -19.5t1 -27v-110q0 -68 -2 -87q-1 -12 -3.5 -23.5t-5 -21t-7.5 -21.5l-8 -20q-3 -8 -9 -21 l-10 -20l-11 -21q-8 -15 -11 -20l-1408 -2640h1194l117 342q11 32 23.5 40.5t46.5 8.5h137q29 0 44.5 -16t15.5 -44v-616q0 -17 -1 -26q-1 -16 -6.5 -25t-16 -13t-19.5 -5t-27 -1h-1913q-17 0 -26 1q-16 1 -25 6.5t-13 16t-5 19.5t-1 27v123q0 103 12 145q4 17 11 32 q8 18 44 85l1403 2625h-966z" />
<glyph unicode="[" horiz-adv-x="1850" d="M965 -382h545q39 0 54.5 -15t15.5 -55v-170q0 -18 -2 -27q-3 -20 -17 -30t-26.5 -11.5t-35.5 -1.5h-849q-39 0 -54.5 15.5t-15.5 54.5v4460q0 40 15.5 55t54.5 15h860q39 0 54.5 -15t15.5 -55v-170q0 -39 -15.5 -54.5t-54.5 -15.5h-545v-3980z" />
<glyph unicode="\" horiz-adv-x="2220" d="M688 3640q34 0 50 -6q27 -10 46 -58l1932 -4642q8 -20 8 -32q0 -24 -17.5 -35.5t-43.5 -11.5h-189q-42 0 -61 13t-36 51l-1931 4642q-8 20 -8 32q0 24 17.5 35.5t43.5 11.5h189z" />
<glyph unicode="]" horiz-adv-x="1850" d="M885 -382v3980h-545q-39 0 -54.5 15.5t-15.5 54.5v170q0 40 15.5 55t54.5 15h860q39 0 54.5 -15t15.5 -55v-4460q0 -39 -15.5 -54.5t-54.5 -15.5h-860q-39 0 -54.5 15.5t-15.5 54.5v170q0 40 15.5 55t54.5 15h545z" />
<glyph unicode="^" d="M1245 3160l-708 -1189q-16 -28 -32.5 -37t-48.5 -9h-266q-17 0 -28.5 8.5t-11.5 24.5q0 9 8 23l835 1413q16 27 32.5 36.5t47.5 9.5h359q31 0 47.5 -9.5t32.5 -36.5l830 -1413q8 -14 8 -23q0 -16 -11.5 -24.5t-28.5 -8.5h-266q-32 0 -49 9t-33 37z" />
<glyph unicode="_" horiz-adv-x="2570" d="M2489 -237q39 -1 55 -10q26 -16 26 -71v-107q0 -43 -19 -62.5t-62 -19.5h-2408q-43 0 -62 19.5t-19 62.5v107q0 43 19 62t62 19h2408z" />
<glyph unicode="`" d="M767 3500l712 -545q39 -31 39 -59q0 -22 -21 -53l-34 -52q-29 -43 -61 -43q-16 0 -48 15l-807 418q-46 25 -46 58q0 22 20 49l134 194q27 41 60 41q8 0 21 -5.5t22 -11.5z" />
<glyph unicode="a" horiz-adv-x="2315" d="M1890 315l223 -77q29 -10 39 -24.5t10 -45.5v-94q0 -33 -9.5 -50t-39.5 -20l-389 -41q-36 -4 -55 -4q-51 0 -70 63l-62 213q-307 -285 -679 -285q-162 0 -286 51q-67 27 -131 75q-123 96 -182 242.5t-59 315.5q0 149 40 275q19 62 57 130q205 356 826 439q73 9 163 16 q74 5 229 11v177q0 63 -6.5 114.5t-23.5 106.5t-52.5 99t-87.5 72q-37 20 -100 37q-76 17 -178 17q-196 0 -401 -73q-39 -13 -126 -53q-55 -25 -75 -25q-36 0 -56 49l-66 177q-5 15 -5 28q0 15 5.5 27t18 22t20.5 15t26 14q24 14 66 32l44 18q40 14 60 20q53 17 74 22 q70 19 124 30q95 19 181 29t181 10q389 0 578 -189q45 -45 83 -107q33 -55 55 -129q36 -120 36 -278v-1452zM1515 550v645q-194 -5 -338.5 -23.5t-276.5 -71.5q-104 -42 -182.5 -113.5t-109.5 -168.5q-23 -70 -23 -153q0 -133 64 -240.5t185 -144.5q48 -15 110 -15 q64 0 130.5 18t119 42t116 67t104.5 75z" />
<glyph unicode="b" horiz-adv-x="2499" d="M415 304v2756l-224 77q-28 10 -38 25t-10 45v100q0 33 9 48.5t39 21.5l503 108q35 7 47 7q54 0 54 -64v-1203q176 120 284 167q174 78 366 78q131 0 252 -34q83 -24 144 -59q85 -51 152 -123t110 -158.5t72 -176.5t44 -195t20.5 -194.5t5.5 -192.5q0 -138 -13 -302 q-10 -111 -20 -177q-91 -616 -450 -823q-70 -40 -142 -62q-135 -43 -301 -43q-307 0 -584 184l-29 -102q-19 -64 -71 -64q-7 0 -55 5l-389 40q-29 3 -38.5 20t-9.5 50v95q0 31 9.5 45.5t38.5 24.5zM790 1890v-1425q121 -95 240.5 -145t257.5 -50q72 0 143 17q298 74 375 552 q9 49 16 113q9 71 12 142q6 105 6 209q0 73 -3 143q-4 78 -8 115q-9 91 -25 166.5t-48.5 159.5t-91 144.5t-139.5 86.5q-71 22 -162 22q-73 0 -145 -18.5t-145 -56.5t-125.5 -70.5t-128.5 -84.5z" />
<glyph unicode="c" horiz-adv-x="2130" d="M1602 2055q-194 85 -329 85q-81 0 -164 -25q-84 -25 -154 -71q-252 -166 -281 -693q-4 -67 -4 -151q0 -75 5 -170q4 -65 14 -142q65 -494 371 -591q82 -27 183 -27q189 0 365 83q105 49 133 63q3 1 26.5 16t40 21.5t32.5 6.5q38 0 58 -51l66 -164q11 -26 11 -44 q0 -9 -2.5 -17.5t-9.5 -15.5l-11 -12q-4 -5 -14.5 -11.5t-15.5 -8.5l-17 -9q-12 -6 -15 -7l-48 -25l-49 -23q-309 -142 -597 -142q-169 0 -310 47q-105 33 -195 95q-125 84 -214.5 210t-137 273.5t-68.5 293t-21 303.5q0 140 15.5 272t54.5 271t98.5 256.5t153.5 222.5 t214 174q79 46 163 73q148 49 313 49q282 0 548 -134q47 -23 84 -46q1 -1 10 -6l12 -7q3 -2 11 -8t11 -8.5t8.5 -8.5t8 -10.5t5 -11t3.5 -13.5q2 -11 2 -32v-377q0 -28 -16 -44t-44 -16h-144q-35 0 -47.5 8.5t-22.5 40.5z" />
<glyph unicode="d" horiz-adv-x="2590" d="M2110 304l223 -76q29 -10 39 -24.5t10 -45.5v-95q0 -33 -9.5 -50t-39.5 -20l-389 -40q-45 -5 -55 -5q-51 0 -70 64l-56 192q-122 -84 -217 -137.5t-223.5 -95t-251.5 -41.5q-102 0 -198 25q-110 28 -201.5 94.5t-154.5 151t-112 192.5t-77 211t-45 215q-12 73 -18 154 q-10 110 -10 233q0 72 5 162q6 98 20 190t39 189t63.5 185t89 168t120.5 148t154 116q61 36 139 62q133 44 284 44q142 0 280 -42.5t289 -119.5v753l-223 78q-28 10 -38.5 25t-10.5 45v100q0 32 9.5 48t39.5 22l494 106q37 7 48 7q53 0 53 -64v-3124zM1735 560v1415 q-149 79 -268 119.5t-253 40.5q-113 0 -198 -27q-85 -26 -149.5 -86t-102 -141t-58 -162t-30.5 -173q-8 -75 -12 -150q-4 -72 -4 -161q0 -81 3 -164q3 -74 9 -145q8 -77 14 -112q12 -87 30.5 -158.5t52.5 -149.5t91.5 -134t135.5 -81q67 -21 151 -21q85 0 166 22.5 t156.5 67.5t134 90t131.5 110z" />
<glyph unicode="e" horiz-adv-x="2315" d="M665 1115q8 -88 15.5 -149.5t25 -145t41.5 -146t65.5 -129t95.5 -117.5q48 -44 94 -73q58 -36 128 -58q90 -27 195 -27q193 0 405 91q53 24 138 68q4 2 16.5 10t20.5 12.5t19.5 8.5t20.5 4q34 0 53 -42l83 -180q13 -28 13 -42q0 -19 -12 -34.5t-22.5 -22t-33.5 -17.5 q-10 -6 -30 -16l-26 -13l-50 -23q-310 -144 -626 -144q-149 0 -280 36q-132 36 -244 102q-139 85 -242 213.5t-161 280.5t-85 309t-27 324q0 136 17 266.5t57 265t100.5 249t154 214.5t211.5 166q90 51 189 78q126 36 258 36q133 0 262 -35q119 -34 212 -90 q117 -71 204.5 -180t136.5 -237.5t72 -261.5t23 -275q0 -109 -20 -159q-13 -34 -40 -57.5t-53 -35t-70 -17.5t-68.5 -6.5t-70.5 -0.5h-17h-1148zM665 1425h1113q-5 73 -10.5 126t-17 122t-31 123t-47.5 110t-70.5 102.5t-97.5 81.5q-51 33 -108 51q-75 24 -164 24 q-85 0 -155 -21q-57 -16 -104 -43q-68 -38 -120 -98.5t-84 -124.5t-54 -147.5t-32.5 -152t-17.5 -153.5z" />
<glyph unicode="f" horiz-adv-x="1480" d="M515 315v1765h-218q-35 0 -47.5 10.5t-12.5 44.5v203q0 30 6.5 43t32.5 16q7 1 21 1h218v272q0 91 1.5 141t11 126t29.5 137q22 74 63 142q55 90 129 150q169 134 452 134q92 0 167 -18q58 -15 76 -31q13 -12 18 -29q3 -11 3 -35v-158q0 -75 -67 -75q-16 0 -65 9 q-89 12 -155 12q-61 0 -102 -12q-184 -56 -186 -379v-119v-267h505q59 0 67 -37q3 -11 3 -33v-178v-17q-5 -32 -20.5 -42.5t-49.5 -10.5h-505v-1765l223 -77q29 -10 39 -24.5t10 -45.5v-98q0 -39 -15 -54.5t-55 -15.5h-779q-40 0 -55 15.5t-15 54.5v98q0 31 9.5 45.5 t38.5 24.5z" />
<glyph unicode="g" d="M1712 2315l18 48q8 22 26 26l208 45q32 8 48 8q53 0 53 -64v-1408q0 -322 6 -465l19 -390q10 -227 10 -274q0 -254 -75 -433q-34 -79 -88 -152q-228 -301 -715 -301q-334 0 -664 142l-39 18l-38 19l-15 7q-12 6 -17 9l-16 9q-11 6 -16 10t-13 11.5t-11.5 14t-6.5 15.5 t-3 18q0 18 7 32l80 178q20 45 53 45q13 0 26.5 -4.5t34.5 -15t24 -11.5q7 -3 65 -30.5t89 -39.5q100 -41 218 -66.5t219 -25.5q66 0 157 16q99 18 157 48q130 66 180 202q32 89 32 268q0 91 -5 263.5t-5 252.5q-121 -97 -206 -146q-228 -129 -472 -129q-125 0 -234 35 q-64 22 -116 52q-104 60 -183.5 155t-127.5 210t-74.5 230t-37.5 240q-9 103 -9 208q0 119 10 228q13 142 44 271t85.5 257t144.5 234t208 174q77 43 151 67q138 44 303 44q161 0 296 -47q87 -32 215 -108zM1690 650v1350q-138 68 -245 104t-220 36q-100 0 -182 -27 q-82 -26 -147.5 -80.5t-107.5 -120.5t-71.5 -150.5t-43.5 -162t-21 -163.5q-7 -85 -7 -183q0 -354 69 -552q38 -111 102.5 -183.5t167.5 -99.5q49 -13 114 -13q81 0 160 19t156.5 58t136.5 75.5t139 92.5z" />
<glyph unicode="h" horiz-adv-x="2685" d="M485 314v2747l-223 78q-29 10 -39 24.5t-10 45.5v100q0 32 9.5 48t39.5 22l497 106q37 7 48 7q53 0 53 -64v-1288q111 98 208.5 165.5t204.5 106.5q155 58 352 58q133 0 229 -26q79 -20 144 -60q45 -27 81 -63q34 -34 60.5 -74.5t44 -78t29.5 -87.5t18.5 -87t9.5 -94 t3.5 -91t0.5 -94v-1401l223 -76q29 -10 39 -24.5t10 -45.5v-98q0 -39 -15.5 -54.5t-54.5 -15.5h-512q-39 0 -54.5 15.5t-15.5 54.5v1655q0 50 -1.5 83t-8 82.5t-19.5 84.5t-38 70.5t-61 57.5q-33 20 -81 30q-53 12 -123 12q-109 0 -197 -26q-65 -18 -127 -47.5t-128.5 -75.5 t-106.5 -76l-114 -90v-1516l223 -76q29 -10 39 -24.5t10 -45.5v-98q0 -39 -15.5 -54.5t-54.5 -15.5h-779q-39 0 -54.5 15.5t-15.5 54.5v98q0 31 10 45.5t39 24.5z" />
<glyph unicode="i" horiz-adv-x="1391" d="M1015 3222q-1 -124 -88.5 -212t-211.5 -88q-125 0 -215 89.5t-90 213.5q0 125 91.5 213.5t216.5 88.5q121 0 210 -92t87 -213zM560 314v1696l-223 78q-28 10 -38.5 25t-10.5 45v100q0 32 9.5 48t39.5 22l497 106q32 8 48 8q53 0 53 -64v-2064l224 -76q29 -10 38.5 -24.5 t9.5 -45.5v-98q0 -39 -15 -54.5t-55 -15.5h-779q-39 0 -54.5 15.5t-15.5 54.5v98q0 31 10 45.5t39 24.5z" />
<glyph unicode="j" horiz-adv-x="1295" d="M985 3222q-1 -124 -88.5 -212t-211.5 -88q-125 0 -215 89.5t-90 213.5t92 213t216 89q121 0 209.5 -92t87.5 -213zM530 2010l-223 78q-29 10 -39 24.5t-10 45.5v100q0 32 9.5 48t39.5 22l497 106q32 8 48 8q53 0 53 -64v-2586q0 -91 -1.5 -141t-11 -126t-29.5 -138 q-25 -77 -63 -141q-55 -89 -130 -150q-168 -134 -452 -134q-96 0 -167 18q-25 6 -39 10t-31.5 17t-22.5 32q-3 12 -3 36v158q0 75 66 75q18 0 52.5 -6t38.5 -7q63 -9 129 -9q175 0 240 131q21 42 24 62q22 152 23.5 171t1.5 147v2213z" />
<glyph unicode="k" horiz-adv-x="2440" d="M521 315v2746l-223 78q-29 10 -39 24t-10 46v100q0 34 9.5 48.5t39.5 21.5l497 106q37 7 48 7q53 0 53 -64v-2128l760 786l-199 76q-29 11 -38.5 25t-9.5 45v98q0 39 15 54.5t55 15.5h770q39 0 54.5 -15.5t15.5 -54.5v-98q0 -31 -9.5 -44.5t-39.5 -25.5l-181 -76 l-763 -786l803 -985l223 -77q29 -10 39 -24.5t10 -45.5v-98q0 -39 -15.5 -54.5t-54.5 -15.5h-375q-53 0 -86 40l-974 1190v-915l223 -77q30 -10 39.5 -24.5t9.5 -45.5v-98q0 -39 -15.5 -54.5t-54.5 -15.5h-779q-39 0 -54.5 15.5t-15.5 54.5v98q0 31 10 45.5t39 24.5z" />
<glyph unicode="l" horiz-adv-x="1295" d="M365 3061l-223 77q-29 10 -39 25t-10 45v100q0 33 9.5 48.5t39.5 21.5l497 107q37 7 48 7q53 0 53 -64v-2523q0 -33 0.5 -100t0.5 -101t2 -76q2 -50 4 -75q3 -42 5 -64t9.5 -60.5t19.5 -61t35.5 -45.5t55.5 -33q25 -8 58 -8q54 0 136 26q6 2 22.5 8.5t28.5 10t23 3.5 q29 0 39 -30l62 -192q3 -11 3 -21q0 -44 -73 -80q-110 -56 -292 -56q-97 0 -172 20q-76 22 -128 54q-50 31 -87.5 78t-59 95.5t-35 113t-19 114.5t-8.5 115q-2 45 -4 125q0 41 -0.5 125t-0.5 125v2146z" />
<glyph unicode="m" horiz-adv-x="3705" d="M500 314v1723l-223 78q-29 10 -39 25t-10 45v100q0 32 9.5 48t39.5 22l373 80q25 6 40 7q20 1 33 -9.5t17 -21t11 -33.5l64 -208q181 144 347 222t356 78q265 0 401 -159q40 -47 81 -136q98 69 170.5 114t165.5 90.5t188.5 68t195.5 22.5q106 0 193 -25q72 -22 132 -60 q81 -49 128 -124q31 -49 51 -110.5t28 -133.5t10.5 -124.5t2.5 -127.5v-1451l223 -76q29 -10 39 -24.5t10 -45.5v-98q0 -39 -15.5 -54.5t-54.5 -15.5h-502q-39 0 -54.5 15.5t-15.5 54.5v1710q0 241 -135 323q-30 18 -68 28q-50 14 -120 14q-131 0 -243 -50.5t-259 -149.5 v-1631l223 -76q29 -10 39 -24.5t10 -45.5v-98q0 -39 -15.5 -54.5t-54.5 -15.5h-507q-39 0 -54.5 15.5t-15.5 54.5v1705q0 60 -9.5 112.5t-31 102t-62.5 86t-98 53.5q-53 16 -122 16q-70 0 -137 -16.5t-133 -51t-114.5 -65.5t-117.5 -82v-1616l223 -76q29 -10 39 -24.5 t10 -45.5v-98q0 -39 -15.5 -54.5t-54.5 -15.5h-774q-39 0 -54.5 15.5t-15.5 54.5v98q0 31 10 45.5t39 24.5z" />
<glyph unicode="n" horiz-adv-x="2685" d="M500 314v1723l-223 78q-29 10 -39 25t-10 45v100q0 32 9.5 48t39.5 22l373 80q25 6 40 7t25.5 -3.5t17.5 -16.5t9 -19l9 -25l80 -259q154 123 285.5 203t276.5 117q121 31 251 31q124 0 221 -27q77 -21 146 -63q46 -29 82 -63q37 -37 64 -79.5t43 -94t26 -93t13.5 -104.5 t4.5 -98.5t1 -103.5v-19v-1411l223 -76q29 -10 39 -24.5t10 -45.5v-98q0 -39 -15.5 -54.5t-54.5 -15.5h-507q-39 0 -54.5 15.5t-15.5 54.5v1660q0 59 -5 106t-19 100.5t-44.5 96.5t-75.5 70q-29 18 -67 28q-53 14 -127 14q-98 0 -184 -23q-122 -32 -229.5 -104t-238.5 -188 v-1516l223 -76q29 -10 39 -24.5t10 -45.5v-98q0 -39 -15.5 -54.5t-54.5 -15.5h-784q-39 0 -54.5 15.5t-15.5 54.5v98q0 31 10 45.5t39 24.5z" />
<glyph unicode="o" d="M2245 1215q-5 -436 -131 -716q-52 -115 -126 -211q-79 -102 -167 -170q-123 -95 -276 -141.5t-317 -46.5q-173 0 -323 48q-106 34 -199 97q-104 70 -184 170.5t-129.5 209.5t-81 237.5t-44 248t-12.5 247.5q0 676 336 1017q72 74 176 138q92 55 221 91q138 36 282 36 q175 0 323 -49q78 -25 153 -68q112 -65 200.5 -164.5t144 -212.5t92 -245.5t50.5 -258.5t12 -257zM1840 1220q-2 90 -5 137q-7 113 -22.5 206.5t-49 199t-96.5 189.5t-151 136q-45 26 -89 40q-82 27 -180 27q-97 0 -178 -27q-83 -27 -150 -83t-109.5 -124.5t-73 -155.5 t-45.5 -166.5t-23 -167.5q-8 -102 -8 -194q0 -300 60 -531q23 -91 51.5 -157.5t81.5 -131.5t127 -104q47 -26 107 -44q83 -24 168 -24q82 0 165 23q51 15 100 41q68 36 118 94t78.5 119t52.5 143q76 255 71 555z" />
<glyph unicode="p" d="M450 -708v2745l-223 78q-29 10 -39 25t-10 45v100q0 32 9.5 48t39.5 22l373 80q25 6 40 7t25.5 -3.5t17.5 -16.5t9 -19l9 -25l64 -208q66 62 102 90q50 38 143 89q219 121 460 121q132 0 241 -32q70 -22 130 -57q206 -119 301 -417q74 -225 95 -496q8 -118 8 -222 q0 -120 -11 -254q-12 -130 -31 -221q-21 -109 -52.5 -208t-83 -200.5t-116.5 -180.5t-156.5 -140t-198.5 -88q-94 -24 -193 -24q-153 0 -289 57t-289 163v-858l223 -76q29 -10 39 -25t10 -45v-98q0 -40 -15 -55t-55 -15h-779q-40 0 -55 15t-15 55v98q0 30 10 45t39 25z M825 480q153 -101 277.5 -155.5t260.5 -54.5q85 0 154 21q234 74 293 469q9 58 15 121q5 50 11 150q4 91 4 203q0 84 -3 168q-1 41 -5 118q-5 73 -11.5 125.5t-23 124t-39.5 123t-64 103t-95 84.5q-37 23 -81 37q-55 18 -124 18q-61 0 -127.5 -16.5t-113 -34.5t-119 -60.5 t-102.5 -61.5l-107 -72v-1410z" />
<glyph unicode="q" d="M1715 -708v933q-159 -144 -312 -219.5t-339 -75.5q-101 0 -194 25q-102 26 -189 85t-148.5 135t-111 172t-79.5 191t-50 198q-17 86 -27 201q-10 109 -10 229q0 123 10 234q11 115 31.5 221.5t59.5 220t92 208.5t132.5 179.5t177.5 139.5q59 35 131 58q130 43 284 43 q191 0 353 -67q68 -28 207 -113l27 73q8 22 26 26l208 45q32 8 48 8q53 0 53 -64v-3086l223 -76q29 -10 39 -25t10 -45v-98q0 -40 -15 -55t-55 -15h-784q-40 0 -55 15t-15 55v98q0 30 10 45t39 25zM1715 555v1390q-143 89 -267 139.5t-254 50.5q-69 0 -133 -16 q-72 -18 -132 -62.5t-100 -100.5t-70.5 -128.5t-47.5 -139.5t-28 -141q-9 -63 -14 -122q-9 -111 -9 -221q0 -100 5 -170q3 -70 12 -139q10 -87 24.5 -156.5t42 -150t74.5 -145t111 -105.5q47 -31 105 -48q63 -20 126 -20q77 0 153 23.5t151 71t126.5 87t124.5 103.5z" />
<glyph unicode="r" horiz-adv-x="1665" d="M500 314v1723l-223 78q-29 10 -39 25t-10 45v100q0 32 9.5 48t39.5 22l373 80q25 6 40 7t25.5 -3.5t17.5 -16.5t9 -19l9 -25l69 -225q130 130 273.5 198.5t314.5 68.5h79q39 0 54.5 -15t15.5 -55v-230q0 -40 -15.5 -55t-54.5 -15h-79q-115 0 -212 -28q-64 -17 -117 -50 q-204 -125 -204 -456v-1202l223 -76q29 -10 39 -24.5t10 -45.5v-98q0 -39 -15.5 -54.5t-54.5 -15.5h-779q-39 0 -54.5 15.5t-15.5 54.5v98q0 31 10 45.5t39 24.5z" />
<glyph unicode="s" horiz-adv-x="1945" d="M572 342q237 -87 408 -87q140 0 247.5 61.5t145.5 187.5q17 54 17 117q0 51 -11 91q-14 51 -45 94t-80 78t-86.5 56t-97.5 50l-112 52q-289 134 -436 253q-168 136 -218 304q-24 80 -24 176q0 111 31 211q23 73 60 137q98 168 279 257.5t387 89.5q237 0 494 -100 q62 -26 87 -39q38 -19 52.5 -38.5t14.5 -57.5v-363q0 -28 -15.5 -44t-44.5 -16h-144q-35 0 -47.5 8.5t-22.5 39.5l-79 230q-168 60 -290 60q-249 0 -344 -159q-16 -26 -28 -65q-15 -54 -15 -110q0 -50 12 -96q23 -89 86 -148.5t162 -108.5l217 -108l71 -35l76 -36 q29 -14 74 -38t75 -41.5t70 -44t67.5 -50.5t59 -55.5t53 -62.5t41 -69t31.5 -79q25 -88 25 -196q0 -124 -33 -230q-21 -71 -59 -137q-69 -120 -185 -201t-246 -115.5t-274 -34.5q-283 0 -566 108q-104 41 -147 71q-38 26 -48 47q-7 16 -7 85v346q0 28 16 44t44 16h144 q35 0 47.5 -8.5t22.5 -40.5z" />
<glyph unicode="t" horiz-adv-x="1665" d="M790 2080l-1 -1497q0 -74 13 -126q22 -80 75 -124q73 -60 224 -60q102 0 259 53q46 16 69 25q45 20 60 20q35 0 58 -47l71 -154q12 -24 12 -39q0 -10 -4 -19.5t-9 -16.5t-16 -14l-17 -12q-6 -5 -20 -11l-20 -8q-5 -3 -19 -8t-16 -6q-144 -56 -323 -77q-88 -11 -145 -11 q-96 0 -195 22q-117 26 -201.5 79t-143.5 147q-33 52 -56 123q-31 97 -31 215l1 1546h-252q-39 0 -54.5 15t-15.5 55v178q0 39 15.5 54.5t54.5 15.5h252v729q0 32 9.5 47.5t39.5 22.5l225 49q37 7 48 7q53 0 53 -64v-791h557q39 0 54.5 -15.5t15.5 -54.5v-178 q0 -40 -15.5 -55t-54.5 -15h-557z" />
<glyph unicode="u" horiz-adv-x="2685" d="M2195 304l223 -76q29 -10 39 -24.5t10 -45.5v-95q0 -33 -9.5 -50t-39.5 -20l-389 -40q-45 -5 -55 -5q-53 0 -70 64l-54 196q-237 -189 -442 -245q-118 -33 -263 -33q-343 0 -519 176q-44 44 -81 105q-32 52 -55 130q-35 112 -35 259v1410l-223 78q-29 10 -39 24.5 t-10 45.5v100q0 32 9.5 48t39.5 22l497 106q32 8 48 8q53 0 53 -64v-1528q0 -35 2 -105q2 -50 5.5 -87t11 -89t22 -91t36.5 -78t56.5 -67t78.5 -43q63 -20 145 -20q327 0 633 260v1480l-223 78q-29 10 -39 24.5t-10 45.5v100q0 32 9.5 48t39.5 22l497 106q32 8 48 8 q53 0 53 -64v-2074z" />
<glyph unicode="v" horiz-adv-x="2220" d="M1663 2086l-223 76q-29 10 -39 24.5t-10 45.5v98q0 39 15.5 54.5t54.5 15.5h644q25 0 43 -12.5t18 -37.5q0 -12 -7 -30l-125 -306l-113 -277l-682 -1692q-12 -28 -23.5 -36.5t-41.5 -8.5h-198q-29 0 -39 8t-21 37l-764 2041l-223 76q-29 10 -39 24.5t-10 45.5v98 q0 39 15.5 54.5t54.5 15.5h819q39 0 54.5 -15.5t15.5 -54.5v-98q0 -31 -10 -45.5t-39 -24.5l-223 -76l522 -1561z" />
<glyph unicode="w" horiz-adv-x="3132" d="M605 2086l317 -1516l536 1757q11 38 30.5 52.5t59.5 14.5h159q41 0 59.5 -14.5t28.5 -54.5l439 -1753l379 1514l-223 76q-29 10 -39 24.5t-10 45.5v98q0 39 15.5 54.5t54.5 15.5h576q28 0 47 -13t19 -39q0 -13 -5 -30l-66 -223l-75 -256l-528 -1787q-5 -18 -8 -25.5 t-12 -15t-24 -8.5q-7 -1 -21 -1h-190q-33 0 -44.5 8.5t-20.5 41.5l-456 1738l-549 -1743q-8 -27 -19.5 -36t-40.5 -9h-185q-16 0 -24 0.5t-19 6.5t-15 18l-7 25l-514 2034l-223 76q-29 10 -39 24.5t-10 45.5v98q0 39 15.5 54.5t54.5 15.5h779q39 0 54.5 -15.5t15.5 -54.5 v-98q0 -31 -10 -45.5t-39 -24.5z" />
<glyph unicode="x" horiz-adv-x="2410" d="M1675 314l-460 662l-477 -662l205 -76q29 -11 39 -25t10 -45v-98q0 -39 -15.5 -54.5t-54.5 -15.5h-789q-39 0 -54.5 15.5t-15.5 54.5v98q0 31 10 45.5t39 24.5l223 76l695 919l-611 853l-224 76q-29 10 -38.5 24.5t-9.5 45.5v98q0 39 15 54.5t55 15.5h784q40 0 55 -15.5 t15 -54.5v-98q0 -31 -9.5 -45.5t-38.5 -24.5l-217 -76l419 -597l435 597l-217 76q-29 10 -39 24.5t-10 45.5v98q0 34 12 52t47 18h792q39 0 54.5 -15.5t15.5 -54.5v-98q0 -31 -10 -45.5t-39 -24.5l-223 -76l-633 -850l673 -922l223 -76q29 -10 39 -24.5t10 -45.5v-98 q0 -39 -15.5 -54.5t-54.5 -15.5h-795q-39 0 -54.5 15.5t-15.5 54.5v98q0 31 10 45t39 25z" />
<glyph unicode="y" horiz-adv-x="2222" d="M883 109l-731 1977l-223 76q-29 10 -39 24.5t-10 45.5v98q0 39 15.5 54.5t54.5 15.5h819q39 0 54.5 -15.5t15.5 -54.5v-98q0 -31 -10 -45.5t-39 -24.5l-223 -76l522 -1578l574 1578l-223 76q-29 10 -39 24.5t-10 45.5v98q0 39 15.5 54.5t54.5 15.5h646q25 0 43 -12.5 t18 -37.5q0 -12 -7 -30l-124 -302l-113 -280l-669 -1677l-101 -261l-76 -188l-47 -111q-19 -43 -52 -108.5t-61 -110t-69.5 -98t-83.5 -89.5t-96 -67t-113 -47q-69 -19 -156 -19q-90 0 -163 18q-25 6 -39 10t-31.5 17t-22.5 32q-3 12 -3 36v158q0 75 66 75q10 0 20.5 -1.5 t24 -4t20.5 -3.5q91 -13 130 -13q65 0 111 32t86 93q24 37 45 75.5t42.5 90.5t31 77t34 94.5t29.5 82.5z" />
<glyph unicode="z" horiz-adv-x="2130" d="M664 312h934l101 283q16 45 44 48h26h144q29 0 44.5 -15.5t15.5 -44.5v-523v-20q-1 -20 -10 -29t-18 -10t-32 -1h-1668q-23 0 -32 1t-17.5 10t-9.5 29q-1 6 -1 20v91q0 57 1 68q2 24 13 49t20 39.5t29 42.5l1207 1738h-787l-104 -300q-10 -31 -22.5 -39.5t-47.5 -8.5 h-144q-28 0 -44 16t-16 44v538v6q0 18 1 26.5t8.5 17t23.5 9.5q7 1 22 1h1510q34 0 44.5 -12.5t10.5 -47.5v-94q0 -36 -0.5 -52t-6 -43.5t-17.5 -48.5q-6 -12 -21 -33.5t-18 -25.5z" />
<glyph unicode="{" horiz-adv-x="2130" d="M905 1658q109 -59 167 -109q138 -119 167 -322q11 -78 11 -174v-990q0 -63 7 -115.5t24.5 -107t53.5 -98.5t88 -72q42 -23 99 -36q71 -16 163 -16h115q39 0 54.5 -15t15.5 -55v-170q0 -39 -15.5 -54.5t-54.5 -15.5h-95q-95 0 -176 8t-169.5 28.5t-167 62t-139.5 102.5 q-48 48 -85 111q-41 68 -64 157q-34 129 -34 291v990q0 63 -6.5 115t-23.5 107t-52.5 99t-87.5 72q-43 23 -101 36q-68 16 -169 16h-100q-39 0 -54.5 15.5t-15.5 54.5v170q0 40 15.5 55t54.5 15h95q96 0 171 16q62 14 103 37q52 28 87.5 71.5t53 98.5t24 107t6.5 115v890 q0 163 34 292q23 89 64 157q39 65 85 111q61 60 139.5 101.5t167 62t170 28.5t175.5 8h95q39 0 54.5 -15t15.5 -55v-170q0 -39 -15.5 -54.5t-54.5 -15.5h-85q-68 0 -122 -6t-114.5 -23t-107 -55t-74.5 -94q-21 -42 -35 -109q-12 -69 -12 -158v-890q0 -158 -35.5 -278.5 t-132.5 -209.5q-61 -56 -177 -117z" />
<glyph unicode="|" horiz-adv-x="1535" d="M955 -794q0 -27 -8 -38q-15 -23 -53 -23h-253q-61 0 -61 61v4163q0 61 61 61h253q61 0 61 -61v-4163z" />
<glyph unicode="}" horiz-adv-x="2130" d="M1225 1558q-115 64 -169 112q-136 118 -165 315q-11 81 -11 178v990q0 63 -7 116t-24.5 107.5t-53.5 98.5t-88 72q-44 24 -99 35q-65 16 -163 16h-115q-39 0 -54.5 15.5t-15.5 54.5v170q0 40 15.5 55t54.5 15h95q95 0 176 -8t169.5 -28t167 -61t139.5 -101 q48 -50 85 -111q41 -68 64 -157q34 -131 34 -294v-990q0 -63 6.5 -114.5t23.5 -106.5t52.5 -99t87.5 -72q42 -23 101 -37q73 -16 169 -16h100q39 0 54.5 -15t15.5 -55v-170q0 -39 -15.5 -54.5t-54.5 -15.5h-100q-101 0 -169 -16q-58 -13 -101 -36q-52 -28 -87.5 -72 t-52.5 -99t-23.5 -107t-6.5 -115v-890q0 -162 -34 -291q-23 -89 -64 -157q-37 -63 -85 -111q-61 -61 -139.5 -102.5t-167 -62t-169.5 -28.5t-176 -8h-95q-39 0 -54.5 15.5t-15.5 54.5v170q0 40 15.5 55t54.5 15h85q68 0 122.5 6t114.5 23.5t106.5 55t74.5 93.5q21 43 35 110 q12 68 12 157v890q0 156 35 276t130 208q57 54 180 121z" />
<glyph unicode="~" d="M74 1346l-29 26q-11 11 -11 40q0 19 24 62q31 61 79 133q238 363 572 363q71 0 145 -15.5t154 -47.5t136.5 -58.5t146.5 -72.5l128 -65q152 -72 218 -92q79 -24 149 -24q106 0 189 48.5t158 139.5q29 36 50 69q5 8 17.5 29.5t20.5 34t24 24t35 11.5t46 -21l100 -76 q40 -30 40 -65q0 -20 -24 -63q-35 -68 -83 -142q-184 -278 -415 -339q-71 -20 -155 -20q-148 0 -307 72l-173 79l-249 121q-70 33 -116 51.5t-112.5 35t-125.5 16.5q-105 0 -183 -46t-152 -136q-34 -41 -53 -71l-16 -29q-13 -22 -21.5 -34t-24.5 -23.5t-34 -11.5 q-21 0 -48 21z" />
<glyph unicode="&#xa1;" horiz-adv-x="1665" d="M1185 2115q-1 -145 -106 -247.5t-250 -102.5t-247 104.5t-102 250.5t105.5 248t252.5 102q141 0 245 -106.5t102 -248.5zM1009 -1030h-353q-78 0 -78 71v11l113 1945q3 42 22 60t61 18h122q41 0 60.5 -18t21.5 -60l109 -1945v-11q0 -47 -26 -61q-7 -4 -20 -6.5t-23 -3.5 h-9z" />
<glyph unicode="&#xa2;" horiz-adv-x="2549" d="M1636 381v-336q0 -39 -15.5 -54.5t-54.5 -15.5h-130q-39 0 -54.5 15.5t-15.5 54.5v318q-127 9 -258 56q-107 39 -181 88q-105 71 -186 169.5t-131.5 206t-82.5 234.5t-44.5 246t-12.5 249q0 132 13 256t45 256.5t81.5 247t128.5 221.5t180 186q83 65 178 107 q119 52 270 72v403q0 39 15.5 54.5t54.5 15.5h130q39 0 54.5 -15.5t15.5 -54.5v-397q272 -20 489 -139l33 -18q2 -1 20 -11.5t27 -16.5t22.5 -17t20 -22t6.5 -23q0 -19 -15 -45l-108 -196q-15 -30 -41 -30q-16 0 -34 8t-42.5 23.5t-25.5 16.5l-89 46q-109 56 -242 74h-13 v-1882q155 25 300 98l109 55l15 9l16 10q6 3 15 6t17 3q4 0 7.5 -0.5t6 -3t4.5 -4t4 -5.5t3 -5t3.5 -6.5t2.5 -6.5l87 -216q10 -22 10 -35q0 -23 -32 -46q-44 -32 -111 -64q-185 -87 -465 -140zM1366 724v1879q-78 -19 -144 -54q-80 -42 -142 -107.5t-99 -138t-62 -164 t-35.5 -172t-14.5 -174.5q-3 -61 -3 -121q0 -83 4 -150q25 -498 249 -685q51 -43 122 -75q62 -28 125 -38z" />
<glyph unicode="&#xa3;" horiz-adv-x="2507" d="M1074 354l992 1l136 405q15 48 46 48h160q28 0 44 -16t16 -44v-678q0 -39 -15 -54.5t-55 -15.5h-2096q-40 0 -55 15.5t-15 54.5v125q0 60 48 70l415 89q70 324 70 555q0 201 -29 387q-7 44 -58 284h-348q-40 0 -55 15t-15 55v185q0 39 15 54.5t55 15.5h282 q-28 129 -65 320q-17 91 -17 264q0 212 52 356q33 88 81 162q97 147 248.5 244.5t316 138t348.5 40.5q275 0 572 -107l38 -15q119 -44 119 -101q0 -15 -10 -37l-95 -190q-6 -12 -19 -21t-26 -9q-16 0 -37.5 8.5t-44.5 20.5t-30 15q-31 14 -95 38q-189 73 -402 73 q-128 0 -243 -34t-212.5 -113.5t-145.5 -195.5q-41 -100 -41 -272q0 -106 10 -203q7 -58 17.5 -117t29.5 -150l24 -115h665q39 0 54.5 -15.5t15.5 -54.5v-185q0 -40 -15.5 -55t-54.5 -15h-599q27 -114 64 -297q30 -150 30 -383q0 -223 -71 -546z" />
<glyph unicode="&#xa4;" horiz-adv-x="3060" d="M2285 1195l296 -283q23 -21 23 -43q0 -19 -22 -43l-119 -122q-23 -23 -44 -23q-20 0 -42 22l-292 292q-270 -200 -584 -200q-316 0 -586 200l-292 -292q-22 -22 -42 -22t-43 23l-116 122q-22 22 -22 42q0 22 24 44l291 283q-190 283 -190 579q0 321 190 571l-292 288 q-23 23 -23 43q0 19 22 43l116 122q23 23 43 23t42 -22l292 -292q288 195 587 195q319 0 583 -195l292 292q22 22 42 22q21 0 44 -23l119 -122q22 -22 22 -43q0 -23 -23 -44l-296 -287q195 -266 195 -573q0 -301 -195 -577zM2190 1775q-2 142 -49 257q-79 189 -256 306 t-383 117q-224 0 -408 -134.5t-250 -348.5q-29 -96 -29 -196q0 -137 55 -264.5t147 -221t219 -149.5t264 -56q184 0 344 93.5t253.5 253t92.5 343.5z" />
<glyph unicode="&#xa5;" horiz-adv-x="2646" d="M952 1780h-717q-33 0 -47 14.5t-14 46.5v103q0 32 14.5 46.5t46.5 14.5h597l-540 1020l-244 84q-29 10 -38.5 24t-9.5 45v116q0 38 15 53.5t54 15.5h915q39 0 54 -15.5t15 -53.5v-116q0 -30 -9.5 -44.5t-38.5 -24.5l-244 -84l586 -1221l585 1221l-244 84 q-28 10 -37.5 24.5t-9.5 44.5v116q0 38 15 53.5t53 15.5h916q38 0 53 -15.5t15 -53.5v-116q0 -31 -9 -45t-38 -24l-244 -84l-543 -1020h562q33 0 47 -14.5t14 -46.5v-103q0 -32 -14.5 -46.5t-46.5 -14.5h-681l-170 -320h851q32 0 46.5 -14t14.5 -47v-103q0 -32 -14 -46.5 t-47 -14.5h-875v-886l259 -89q28 -10 38 -24t10 -44v-124q0 -38 -15 -53t-54 -15h-877q-39 0 -54 15t-15 53v124q0 30 9.5 44t38.5 24l258 89v886h-909q-32 0 -46.5 14.5t-14.5 46.5v103q0 32 14.5 46.5t46.5 14.5h886z" />
<glyph unicode="&#xa6;" horiz-adv-x="1535" d="M955 1771q0 -27 -8 -38q-15 -23 -53 -23h-253q-61 0 -61 61v1598q0 61 61 61h253q61 0 61 -61v-1598zM955 -794q0 -27 -8 -38q-15 -23 -53 -23h-253q-61 0 -61 61v1523q0 61 61 61h253q61 0 61 -61v-1523z" />
<glyph unicode="&#xa7;" d="M1440 1847l157 -84q56 -31 137 -83.5t143 -104.5q153 -132 202 -280q31 -93 31 -204q0 -91 -20 -170q-20 -83 -65 -160.5t-97 -136t-128.5 -118.5t-138 -99.5t-146.5 -89.5l102 -59q40 -24 96.5 -62t95 -73.5t78 -80.5t66.5 -97t41 -109q16 -67 16 -142q0 -97 -25 -187 q-34 -126 -115 -230.5t-189 -172.5t-234.5 -105t-255.5 -37q-274 0 -599 148l-44 21q-5 3 -20.5 10.5t-23.5 12.5q-114 59 -114 112q0 16 20 56l90 180q30 58 90 20l62 -39q42 -27 65 -40q273 -151 491 -151q129 0 234 61t144 177q19 54 19 125q0 83 -26 145 q-22 53 -71.5 103t-89 76.5t-107.5 66.5q-70 40 -106 58l-128 66l-143 74q-50 26 -123 69.5t-130 84.5q-204 148 -262 324q-29 91 -29 214q0 107 22 195q25 102 80.5 190t138 159.5t160 122.5t184.5 109q-85 41 -147 79t-127.5 92t-110 122.5t-64.5 149.5q-16 67 -16 140 q0 88 22 167q32 122 110.5 221t183.5 161t226 95t246 33q254 0 502 -115q5 -2 29 -14q126 -61 126 -116q0 -8 -3 -16.5t-9 -19.5t-8 -14l-90 -190q-18 -40 -42 -40q-7 0 -14 2t-15 6t-13 7l-13 9l-12 7q-100 62 -121 73q-156 81 -333 81q-59 0 -116 -12.5t-109.5 -37.5 t-92.5 -68t-59 -99q-15 -47 -15 -95q0 -78 35.5 -134.5t104.5 -108.5q60 -44 97 -64l194 -104zM1250 482l82 47l81 48q53 33 83.5 56.5t72.5 61.5t67.5 72t48.5 78t34 90q11 44 11 99q0 65 -15 117q-33 113 -153 210q-48 40 -111.5 79.5t-107.5 63.5l-123 63 q-79 -45 -138.5 -85.5t-122.5 -96.5t-106.5 -124.5t-62.5 -146.5q-15 -63 -15 -128q0 -80 22 -143q24 -70 76 -127q17 -18 40 -36l41 -33q18 -15 49 -34l48 -28q16 -10 54 -29l48 -25l52 -26z" />
<glyph unicode="&#xa8;" horiz-adv-x="2417" d="M1927 3150q-1 -109 -80.5 -187t-188.5 -78t-187.5 80t-78.5 189t79.5 187.5t189.5 78.5q109 0 188 -80t78 -190zM1025 3150q-1 -108 -79 -186.5t-186 -78.5q-110 0 -190 79.5t-80 189.5q0 109 80 187.5t189 78.5t188 -80t78 -190z" />
<glyph unicode="&#xa9;" horiz-adv-x="1812" d="M1024 2368l30 89q11 32 45 32h34q19 0 32 -13t13 -32v-123q0 -42 -59 -72q-91 -49 -183 -49q-53 0 -101 15q-200 65 -228 393q-5 60 -5 107q0 404 223 476q49 15 101 15q100 0 189 -50q27 -15 41.5 -30.5t14.5 -39.5v-129q0 -19 -12.5 -31.5t-32.5 -12.5h-34 q-33 0 -45 32l-32 94q-46 22 -84 22q-33 0 -55 -9q-77 -30 -92 -187q-4 -46 -5 -69q-2 -42 -2 -64q0 -25 2 -77q2 -46 5 -68q27 -241 155 -241q43 0 85 22zM1629 2701q-2 -180 -68 -327q-89 -196 -266 -318.5t-387 -122.5q-88 0 -175 23q-162 43 -288.5 155.5t-194 266 t-67.5 320.5q0 165 62.5 314.5t182 261t276.5 159.5q100 31 209 31q148 0 283 -64t229.5 -169t149.5 -244.5t54 -285.5zM1453 2697q-2 132 -45.5 251.5t-133.5 214t-213 136.5q-76 26 -156 26q-62 0 -125 -17q-190 -53 -304 -228t-114 -379q0 -135 48.5 -259t146 -219 t227.5 -130q58 -16 123 -16q118 0 222 54t174.5 142t110.5 199t39 225z" />
<glyph unicode="&#xaa;" horiz-adv-x="1575" d="M1031 2105q-94 -68 -142 -91q-148 -76 -323 -76q-103 0 -191 29t-157 95.5t-98 163.5q-20 66 -20 142q0 82 22 155q89 281 561 356q66 10 134 15q73 6 148 9v65q0 50 -8 87q-7 29 -19 53q-51 95 -240 95q-119 0 -258 -49q-29 -10 -64 -24q-5 -2 -23.5 -10t-31.5 -11.5 t-26 -3.5q-39 0 -55 38l-45 115q-6 15 -6 31q0 20 11 36.5t31.5 29t36.5 19.5l38 16q5 2 8 3q170 70 412 70q77 0 142 -8t133.5 -29t124.5 -63t93 -104q19 -32 35 -81q21 -71 21 -160v-822l160 -54q35 -12 35 -51v-68q0 -46 -35 -50l-280 -30q-26 -2 -39 -2q-37 0 -51 45z M965 2338v325q-74 -4 -111 -7q-62 -6 -94 -11q-57 -8 -100 -18t-97 -30t-91 -55.5t-52 -83.5q-10 -33 -10 -73q0 -91 58 -149t149 -58q69 0 158 38q117 48 190 122z" />
<glyph unicode="&#xab;" horiz-adv-x="2405" d="M1515 1195l636 -943q19 -32 19 -50q0 -34 -46 -58l-120 -64q-27 -16 -50 -16q-30 0 -60 38l-822 1040q-26 32 -26 55q0 25 26 57l826 1037q31 39 60 39q19 0 49 -17l117 -62q46 -24 46 -58q0 -21 -19 -50zM585 1195l636 -943q19 -32 19 -50q0 -34 -46 -58l-120 -64 q-27 -16 -50 -16q-30 0 -60 38l-822 1040q-26 32 -26 55q0 25 26 57l826 1037q31 39 60 39q19 0 49 -17l117 -62q46 -24 46 -58q0 -21 -19 -50z" />
<glyph unicode="&#xac;" d="M2010 1760h-1840q-31 0 -44.5 9t-14.5 38q-1 7 -1 23v235q0 18 1 27t5 19.5t13 16t25 6.5q9 1 26 1h2140q18 0 27 -1q28 -3 35.5 -17.5t7.5 -46.5v-1000q0 -17 -1 -26q-1 -16 -6.5 -25t-16 -13t-19.5 -5t-27 -1h-235q-20 0 -30 1q-27 3 -36 21t-9 48v690z" />
<glyph unicode="&#xad;" horiz-adv-x="1760" d="M1494 1465q39 -1 55 -11q26 -15 26 -70v-213q0 -43 -19 -62t-62 -19h-1228q-43 0 -62 19t-19 62v213q0 43 19 62t62 19h1228z" />
<glyph unicode="&#xae;" horiz-adv-x="1812" d="M660 2413v608l-38 13q-34 11 -34 47v28q0 23 14 36.5t36 13.5h255q84 0 143.5 -19.5t94.5 -79.5q15 -25 25 -59q10 -37 10 -81q0 -80 -37.5 -146.5t-105.5 -102.5l139 -255l48 -16q34 -11 34 -47v-30q0 -21 -14 -34.5t-35 -13.5h-111q-34 0 -50 31l-177 340h-35v-233 l38 -13q33 -10 33 -47v-29q0 -22 -13.5 -35.5t-35.5 -13.5h-206q-22 0 -36 13.5t-14 35.5v29q0 36 34 47zM822 2786h61q36 0 56 7q61 25 61 123q0 26 -3 39q-4 17 -12.5 29t-17.5 18.5t-24.5 9.5t-26.5 3.5t-31 0.5h-63v-230zM1453 2697q-2 132 -45.5 251.5t-133.5 214 t-213 136.5q-76 26 -156 26q-62 0 -125 -17q-190 -53 -304 -228t-114 -379q0 -135 48.5 -259t146 -219t227.5 -130q58 -16 123 -16q118 0 222 54t174.5 142t110.5 199t39 225zM1629 2701q-2 -180 -68 -327q-89 -196 -266 -318.5t-387 -122.5q-88 0 -175 23 q-162 43 -288.5 155.5t-194 266t-67.5 320.5q0 165 62.5 314.5t182 261t276.5 159.5q100 31 209 31q148 0 283 -64t229.5 -169t149.5 -244.5t54 -285.5z" />
<glyph unicode="&#xaf;" horiz-adv-x="2282" d="M1685 3009q1 -38 -9 -53q-12 -17 -61 -17h-1085q-18 0 -27 1t-19.5 5t-16 13t-6.5 25q-1 9 -1 26v175q0 17 1 26q1 16 6.5 25t16 13t19.5 5t27 1h1085q17 0 26 -1q29 -3 36.5 -19t7.5 -50v-175z" />
<glyph unicode="&#xb0;" d="M2025 2725q-2 -144 -47 -268q-85 -225 -286 -363.5t-441 -138.5q-246 0 -448.5 144.5t-281.5 376.5q-41 123 -41 250q0 129 41 252q80 235 284 378.5t453 143.5q154 0 296.5 -62.5t246 -166.5t164.5 -247.5t60 -298.5zM1705 2725q-2 96 -33 173q-52 128 -169 205t-256 77 q-91 0 -174.5 -37t-143 -98.5t-94.5 -145.5t-35 -175q0 -124 59.5 -228t163.5 -165t228 -61q188 0 322 133t132 322z" />
<glyph unicode="&#xb1;" d="M1065 1462h-885q-39 0 -54.5 15t-15.5 55v235q0 39 15.5 54.5t54.5 15.5h880v892q0 40 15.5 55t54.5 15h235q39 0 54.5 -15t15.5 -55v-896l885 4q39 0 54.5 -15.5t15.5 -54.5v-235q0 -40 -15.5 -55t-54.5 -15h-880v-805q0 -40 -15.5 -55t-54.5 -15h-235q-39 0 -54.5 15 t-15.5 55v805zM2320 85h-2140q-39 0 -54.5 15t-15.5 55v235q0 40 15.5 55t54.5 15h2140q39 0 54.5 -15t15.5 -55v-235q0 -48 -22 -61q-13 -8 -27 -8z" />
<glyph unicode="&#xb2;" horiz-adv-x="1760" d="M670 1873h644q38 0 59.5 -21.5t21.5 -59.5v-108q0 -38 -21.5 -59.5t-59.5 -21.5h-872q-39 0 -59.5 21t-20.5 60v63q0 158 26 266q53 224 262 410q44 40 158 127.5t169 141.5q131 127 131 257q0 37 -10 84q-10 40 -28 69q-52 81 -184 81q-73 0 -121.5 -31.5t-85.5 -96.5 q-6 -11 -23 -54t-36.5 -64.5t-51.5 -21.5q-15 0 -30 5l-109 40q-52 18 -52 70q0 12 3 25.5t6 23.5t10.5 25.5t11.5 22.5l14 23q10 17 12 21q45 83 105 142q140 139 359 139q147 0 272 -65t179 -190q47 -108 47 -243q0 -180 -88 -317q-50 -76 -147 -161q-43 -37 -129 -102 l-96 -74l-107 -90q-91 -76 -126 -155q-29 -64 -33 -182z" />
<glyph unicode="&#xb3;" horiz-adv-x="1760" d="M1129 2580q88 -55 131 -105q99 -115 99 -291q0 -149 -41 -253q-43 -111 -130.5 -186.5t-193.5 -108.5t-227 -33q-204 0 -379 86l-17 8l-20.5 11t-18 10.5t-18 13.5t-13 15t-10.5 18.5t-3 20.5q0 20 14 48l49 93q23 46 67 46q18 0 44 -12t55.5 -29.5t40.5 -22.5 q84 -40 209 -40q120 0 188 41q61 37 91 103.5t30 143.5q0 49 -13 91q-52 169 -327 169h-86q-37 0 -59 22t-22 59v109q0 38 21.5 59.5t59.5 21.5h84q79 0 122 11q67 17 113 60t61 107q11 47 11 92q0 72 -24 121q-25 52 -80.5 80t-117.5 28q-103 0 -198 -83q-3 -2 -29.5 -28.5 t-47.5 -40.5t-39 -14q-26 0 -44 16l-95 84q-31 28 -31 60q0 15 7.5 29.5t14.5 21.5l23 22q27 27 57 51q178 147 389 147q86 0 169 -24q69 -20 127 -57q200 -127 200 -427q0 -152 -86 -264q-39 -51 -107 -100z" />
<glyph unicode="&#xb4;" d="M1733 3500q33 23 52 23q33 0 60 -41l134 -194q20 -27 20 -49q0 -33 -46 -58l-807 -418q-32 -15 -48 -15q-32 0 -61 43l-34 52q-21 31 -21 53q0 28 39 59z" />
<glyph unicode="&#xb5;" horiz-adv-x="2685" d="M455 2010l-223 78q-29 10 -39 24.5t-10 45.5v100q0 32 9.5 48t39.5 22l497 106q32 8 48 8q53 0 53 -64v-1528q0 -35 2 -105q2 -50 5.5 -87t11 -89t22 -91t36.5 -78t56.5 -67t78.5 -43q63 -20 145 -20q327 0 633 260v1480l-223 78q-29 10 -39 24.5t-10 45.5v100 q0 32 9.5 48t39.5 22l497 106q32 8 48 8q53 0 53 -64v-2074l223 -76q29 -10 39 -24.5t10 -45.5v-95q0 -33 -9.5 -50t-39.5 -20l-389 -40q-45 -5 -55 -5q-53 0 -70 64l-54 196q-237 -189 -442 -245q-122 -33 -260 -33q-178 0 -318 48v-898q0 -53 -45 -65l-265 -70 q-18 -4 -27 -5q-22 -3 -30 13.5t-8 41.5v3015z" />
<glyph unicode="&#x3bc;" horiz-adv-x="2685" d="M455 2010l-223 78q-29 10 -39 24.5t-10 45.5v100q0 32 9.5 48t39.5 22l497 106q32 8 48 8q53 0 53 -64v-1528q0 -35 2 -105q2 -50 5.5 -87t11 -89t22 -91t36.5 -78t56.5 -67t78.5 -43q63 -20 145 -20q327 0 633 260v1480l-223 78q-29 10 -39 24.5t-10 45.5v100 q0 32 9.5 48t39.5 22l497 106q32 8 48 8q53 0 53 -64v-2074l223 -76q29 -10 39 -24.5t10 -45.5v-95q0 -33 -9.5 -50t-39.5 -20l-389 -40q-45 -5 -55 -5q-53 0 -70 64l-54 196q-237 -189 -442 -245q-122 -33 -260 -33q-178 0 -318 48v-898q0 -53 -45 -65l-265 -70 q-18 -4 -27 -5q-22 -3 -30 13.5t-8 41.5v3015z" />
<glyph unicode="&#xb6;" horiz-adv-x="3055" d="M1375 875q-231 -35 -361 -35q-177 0 -319 46q-70 22 -139 61q-96 55 -172.5 138t-127 175.5t-87.5 204.5t-55.5 215.5t-28.5 216.5t-10 237q0 258 45 468q39 181 113 324q60 114 138 203q61 67 132 119q97 72 213 113q92 32 221 48.5t212 18.5t226 2h1345q39 0 54.5 -15 t15.5 -55v-185q0 -40 -15.5 -55t-54.5 -15h-330v-4013q0 -40 -15.5 -55t-54.5 -15h-205q-39 0 -54.5 15t-15.5 55v4013h-325v-4013q0 -40 -15.5 -55t-54.5 -15h-205q-39 0 -54.5 15t-15.5 55v1783zM1375 1190v1915q-177 -1 -399 -13q-68 -4 -137 -38t-122 -85 q-40 -38 -67 -81q-39 -59 -72 -157q-30 -91 -48 -223q-20 -145 -20 -349q0 -80 3 -158q2 -44 8 -124q7 -78 18.5 -144.5t34 -144t54 -138.5t81.5 -118t114 -94q44 -25 95 -42q101 -31 235 -31q100 0 222 25z" />
<glyph unicode="&#xb7;" d="M1535 1600q-1 -119 -82 -202t-199 -83t-203.5 83.5t-85.5 200.5q0 116 84 198.5t200 82.5q115 0 201 -82.5t85 -197.5z" />
<glyph unicode="&#xb8;" d="M1515 -270q312 -21 367 -219q13 -46 13 -98q0 -65 -16 -123q-13 -48 -34 -86q-110 -193 -450 -193q-106 0 -211 21l-67 13q-34 8 -34 33q0 9 1 13l25 194q4 33 30 33q5 0 15 -2l33 -8q114 -28 211 -28q33 0 63 4.5t62.5 15.5t52 35.5t19.5 59.5q0 106 -192 114l-67 2 q-10 0 -29.5 -0.5t-28.5 -0.5h-40q-42 0 -37 41l49 449h290z" />
<glyph unicode="&#xb9;" horiz-adv-x="1760" d="M856 3049l-108 -75q-25 -18 -50 -18q-38 0 -62 42l-49 82q-14 24 -14 47q0 37 39 63l321 224q26 17 50 17h71q38 0 59.5 -21.5t21.5 -59.5v-1502l104 -36q51 -17 51 -73v-61q0 -75 -75 -75h-458q-74 0 -74 75v61q0 58 52 74l121 36v1200z" />
<glyph unicode="&#xba;" horiz-adv-x="1670" d="M1495 2708q-2 -245 -77 -411q-31 -67 -77 -129q-183 -235 -523 -235q-115 0 -209 28q-74 23 -122 52q-87 52 -149.5 128.5t-97 167.5t-50 184.5t-15.5 198.5q0 389 203 593q46 48 118 91q58 35 128 55q102 32 227 32q320 0 492 -223q46 -57 77 -128q77 -168 75 -404z M1175 2713q-5 416 -234 489q-49 16 -107 16q-57 0 -108 -16q-231 -75 -231 -490q0 -49 5 -111q28 -341 231 -407q51 -16 109 -16q56 0 107 16q200 64 225 415q3 53 3 104z" />
<glyph unicode="&#xbb;" horiz-adv-x="2405" d="M895 1195l-636 948q-19 32 -19 50q0 33 46 58l117 62q32 17 49 17q29 0 60 -39l826 -1037q26 -32 26 -57q0 -23 -26 -55l-822 -1040q-30 -38 -60 -38q-22 0 -50 16l-120 64q-46 25 -46 58q0 20 20 50zM1825 1195l-636 948q-19 32 -19 50q0 33 46 58l117 62q32 17 49 17 q29 0 60 -39l826 -1037q26 -32 26 -57q0 -23 -26 -55l-822 -1040q-30 -38 -60 -38q-22 0 -50 16l-120 64q-46 25 -46 58q0 20 20 50z" />
<glyph unicode="&#xbc;" horiz-adv-x="4170" d="M728 2962l-121 -85q-27 -18 -49 -18q-39 0 -63 43l-52 87q-14 25 -14 45q0 40 39 65l340 237q25 17 49 17h76q39 0 60.5 -21t21.5 -60v-1590l112 -38q51 -17 51 -73v-65q0 -75 -75 -75h-483q-75 0 -75 75v65q0 57 53 73l130 40v1278zM3294 421h-697q-39 0 -60 21t-21 60 v110q0 36 6.5 57.5t25.5 51.5l743 1160q27 42 77 42h133q80 0 80 -82v-1149h151q39 0 60 -21t21 -60v-109q0 -39 -21 -60t-60 -21h-151v-344q0 -41 -18.5 -59t-58.5 -18h-133q-41 0 -59 18t-18 59v344zM3297 1389l-449 -697h449v697zM2797 3300q21 -1 30 -4q14 -4 22.5 -16 t8.5 -27q0 -12 -8 -32l-1354 -3252q-17 -38 -36 -51t-61 -13h-192q-26 0 -43.5 11.5t-17.5 35.5q0 12 8 32l1355 3252q16 38 35 51t61 13h192z" />
<glyph unicode="&#xbd;" horiz-adv-x="4165" d="M2955 278h691q39 0 60 -21.5t21 -60.5v-115q0 -39 -21 -60t-60 -21h-928q-80 0 -80 81v67q0 239 62 394q68 166 242 323q44 39 174 139t192 164q123 128 123 260q0 49 -10 92q-9 37 -27 68q-57 95 -206 95q-79 0 -132.5 -36t-93.5 -108q-10 -19 -26 -57q-10 -23 -14 -31 t-15 -24t-24 -22.5t-31 -6.5t-31 5l-116 42q-23 9 -37.5 27.5t-14.5 42.5q0 11 2 23t7 26l9 23q4 9 13 26l12 22l13.5 22.5t11.5 19.5q53 92 113 147q148 136 371 136q148 0 277 -64.5t190 -187.5q57 -115 57 -272q0 -267 -194 -457q-40 -39 -88 -78l-113 -88l-93 -72 l-115 -96q-97 -82 -135 -167q-32 -70 -36 -200zM876 2962l-120 -85q-29 -18 -50 -18q-37 0 -63 43l-51 87q-15 26 -15 45q0 38 39 65l340 237q25 17 50 17h75q39 0 60.5 -21t21.5 -60v-1590l112 -38q51 -17 51 -73v-65q0 -75 -75 -75h-483q-75 0 -75 75v65q0 57 53 73 l130 40v1278zM2832 3300q20 -1 30 -4q14 -4 22.5 -16t8.5 -27q0 -12 -8 -32l-1355 -3252q-16 -38 -35 -51t-61 -13h-192q-26 0 -43.5 11.5t-17.5 35.5q0 12 8 32l1354 3252q17 38 36 51t61 13h192z" />
<glyph unicode="&#xbe;" horiz-adv-x="4170" d="M3303 421h-697q-39 0 -60.5 21t-21.5 60v110q0 35 6.5 56.5t25.5 52.5l743 1160q28 42 77 42h133q81 0 81 -82v-1149h151q39 0 60 -21t21 -60v-109q0 -39 -21 -60t-60 -21h-151v-344q0 -40 -18.5 -58.5t-58.5 -18.5h-133q-40 0 -58.5 18t-18.5 59v344zM3306 1389 l-450 -697h450v697zM1257 2448q98 -59 150 -117q105 -122 105 -310q0 -158 -44 -271q-29 -75 -75 -133q-84 -110 -222 -163.5t-291 -53.5q-212 0 -394 86q-2 1 -13 6t-15 7l-15 8q-11 5 -16 8t-14.5 9.5t-14.5 11t-11.5 11.5t-9.5 14t-5.5 15t-2.5 16q0 18 14 48l53 100 q25 46 67 46q10 0 21 -3.5t16.5 -6t19.5 -11t16 -9.5q56 -31 75 -39q97 -43 229 -43q121 0 198 41q71 38 106 113.5t35 163.5q0 54 -14 99q-57 187 -359 187h-92q-39 0 -60.5 21.5t-21.5 60.5v117q0 81 82 81h90q93 0 143 14q51 15 94 46.5t66 75.5q34 64 34 164 q0 71 -23 124q-27 62 -88.5 94.5t-133.5 32.5q-111 0 -215 -88q-13 -10 -54 -49l-7 -7q-6 -6 -8 -7.5t-7.5 -6.5t-8.5 -7l-9 -5q-5 -4 -9.5 -5.5t-10 -2.5t-10.5 -1q-26 0 -44 16l-102 90q-31 28 -31 61q0 11 4 21.5t12.5 22.5t15.5 20t21 20l19 17q6 5 21 16.5t16 12.5 q196 156 414 156q91 0 181 -26q73 -22 135 -60q110 -70 161 -188t51 -261q0 -171 -90 -288q-43 -54 -124 -112zM2936 3300q22 -1 33 -4q28 -10 28 -43q0 -12 -8 -32l-1354 -3252q-17 -38 -36 -51t-61 -13h-192q-26 0 -43.5 11.5t-17.5 35.5q0 12 8 32l1355 3252q16 38 35 51 t61 13h192z" />
<glyph unicode="&#xbf;" horiz-adv-x="2130" d="M1075 555v450q0 39 15.5 54.5t54.5 15.5h200q39 0 54.5 -15.5t15.5 -54.5v-615q0 -36 -10 -55q-7 -14 -28 -26.5t-39 -18t-46 -13t-32 -8.5q-134 -42 -192 -64q-136 -53 -210 -118q-76 -67 -114.5 -165.5t-38.5 -206.5q0 -82 21 -151q14 -50 35 -83q125 -211 462 -211 q183 0 382 63q61 19 124 45q3 1 24 10.5t34.5 13t26.5 3.5q31 0 46 -40l70 -190q9 -25 9 -34q0 -45 -102 -88l-6 -3q-15 -7 -45 -19q-280 -106 -601 -106q-434 0 -669 231q-57 56 -105 134q-36 62 -63 145q-38 124 -38 272q0 137 32 250q23 86 64 157q41 74 99.5 136.5 t119.5 106.5t141 82.5t149.5 63.5t159.5 52zM1585 2115q-2 -144 -105 -247t-247 -103q-146 0 -249.5 104.5t-103.5 250.5t105.5 248t252.5 102q141 0 245 -106.5t102 -248.5z" />
<glyph unicode="&#xc0;" horiz-adv-x="2883" d="M297 344l930 3031q11 37 21 45t30 9q8 1 24 1h295q18 0 23.5 -0.5t16.5 -3t16.5 -9.5t10.5 -19l8 -23l929 -3031l249 -86q29 -10 38.5 -24.5t9.5 -45.5v-118q0 -38 -14.5 -54t-51.5 -16h-899q-39 0 -54.5 15.5t-15.5 54.5v118q0 31 10 45.5t39 24.5l249 86l-190 686 h-1073l-189 -686l249 -86q29 -10 38.5 -24.5t9.5 -45.5v-118q0 -39 -15 -54.5t-55 -15.5h-866q-39 0 -54.5 15.5t-15.5 54.5v118q0 31 10 45.5t39 24.5zM993 1375h883l-442 1601zM792 4124q-11 7 -16 11q-8 6 -8 18q0 9 10 24l181 263q14 20 30 20q12 0 26 -12l773 -591 q20 -16 20 -30q0 -9 -11 -27l-82 -116q-15 -21 -30 -21q-9 0 -25 8z" />
<glyph unicode="&#xc1;" horiz-adv-x="2883" d="M297 344l930 3031q11 37 21 45t30 9q8 1 24 1h295q18 0 23.5 -0.5t16.5 -3t16.5 -9.5t10.5 -19l8 -23l929 -3031l249 -86q29 -10 38.5 -24.5t9.5 -45.5v-118q0 -38 -14.5 -54t-51.5 -16h-899q-39 0 -54.5 15.5t-15.5 54.5v118q0 31 10 45.5t39 24.5l249 86l-190 686 h-1073l-189 -686l249 -86q29 -10 38.5 -24.5t9.5 -45.5v-118q0 -39 -15 -54.5t-55 -15.5h-866q-39 0 -54.5 15.5t-15.5 54.5v118q0 31 10 45.5t39 24.5zM993 1375h883l-442 1601zM2129 4177q10 -15 10 -23q0 -18 -23 -30l-877 -455q-16 -7 -24 -7q-15 0 -30 21l-77 116 q-11 15 -11 26q0 14 20 30l775 593q16 12 27 12q15 0 29 -20z" />
<glyph unicode="&#xc2;" horiz-adv-x="2883" d="M297 344l930 3031q11 37 21 45t30 9q8 1 24 1h295q18 0 23.5 -0.5t16.5 -3t16.5 -9.5t10.5 -19l8 -23l929 -3031l249 -86q29 -10 38.5 -24.5t9.5 -45.5v-118q0 -38 -14.5 -54t-51.5 -16h-899q-39 0 -54.5 15.5t-15.5 54.5v118q0 31 10 45.5t39 24.5l249 86l-190 686 h-1073l-189 -686l249 -86q29 -10 38.5 -24.5t9.5 -45.5v-118q0 -39 -15 -54.5t-55 -15.5h-866q-39 0 -54.5 15.5t-15.5 54.5v118q0 31 10 45.5t39 24.5zM993 1375h883l-442 1601zM1435 4008l-451 -289q-32 -20 -52 -20q-32 0 -60 42l-44 63q-21 31 -21 53q0 29 38 59 l534 419q35 26 56 26t56 -26l535 -419q38 -30 38 -60q0 -23 -22 -53l-45 -62q-31 -41 -60 -41q-22 0 -52 20z" />
<glyph unicode="&#xc3;" horiz-adv-x="2883" d="M297 344l930 3031q11 37 21 45t30 9q8 1 24 1h295q18 0 23.5 -0.5t16.5 -3t16.5 -9.5t10.5 -19l8 -23l929 -3031l249 -86q29 -10 38.5 -24.5t9.5 -45.5v-118q0 -38 -14.5 -54t-51.5 -16h-899q-39 0 -54.5 15.5t-15.5 54.5v118q0 31 10 45.5t39 24.5l249 86l-190 686 h-1073l-189 -686l249 -86q29 -10 38.5 -24.5t9.5 -45.5v-118q0 -39 -15 -54.5t-55 -15.5h-866q-39 0 -54.5 15.5t-15.5 54.5v118q0 31 10 45.5t39 24.5zM993 1375h883l-442 1601zM2164 4209q12 -7 18 -11q9 -6 9 -21q0 -16 -23 -59q-26 -50 -40 -74q-58 -102 -115 -155 q-119 -111 -293 -111q-22 0 -45.5 3.5t-40.5 6.5t-44 14t-38 15t-42 20l-37 19q-6 3 -40.5 23t-37.5 21q-44 24 -73.5 38.5t-72.5 27t-81 12.5q-106 0 -177 -93q-17 -22 -45 -70q-17 -31 -38 -31q-7 0 -21 6l-158 70q-27 11 -27 33q0 11 16 43q25 55 55 102q59 93 113 143 q113 107 277 107q57 0 119.5 -19t105 -39.5t107.5 -57.5q5 -3 29 -16l31 -18l28.5 -14.5t33.5 -15.5l30 -10q18 -6 34.5 -8t33.5 -2q53 0 103 23.5t80 64.5q8 10 20 30q2 4 11.5 21t16 27t18.5 20t23 10q8 0 20 -6z" />
<glyph unicode="&#xc4;" horiz-adv-x="2883" d="M297 344l930 3031q11 37 21 45t30 9q8 1 24 1h295q18 0 23.5 -0.5t16.5 -3t16.5 -9.5t10.5 -19l8 -23l929 -3031l249 -86q29 -10 38.5 -24.5t9.5 -45.5v-118q0 -38 -14.5 -54t-51.5 -16h-899q-39 0 -54.5 15.5t-15.5 54.5v118q0 31 10 45.5t39 24.5l249 86l-190 686 h-1073l-189 -686l249 -86q29 -10 38.5 -24.5t9.5 -45.5v-118q0 -39 -15 -54.5t-55 -15.5h-866q-39 0 -54.5 15.5t-15.5 54.5v118q0 31 10 45.5t39 24.5zM993 1375h883l-442 1601zM2231 4055q-1 -111 -82.5 -193t-192.5 -82q-113 0 -194 81.5t-81 194.5t82.5 193.5 t195.5 80.5q110 0 191.5 -82.5t80.5 -192.5zM1221 4060q-1 -114 -81.5 -197t-194.5 -83q-115 0 -197 83t-82 198q0 113 82.5 193.5t196.5 80.5q111 0 194 -82t82 -193z" />
<glyph unicode="&#xc5;" horiz-adv-x="2883" d="M297 344l930 3031q11 37 21 45t30 9q8 1 24 1h295q18 0 23.5 -0.5t16.5 -3t16.5 -9.5t10.5 -19l8 -23l929 -3031l249 -86q29 -10 38.5 -24.5t9.5 -45.5v-118q0 -38 -14.5 -54t-51.5 -16h-899q-39 0 -54.5 15.5t-15.5 54.5v118q0 31 10 45.5t39 24.5l249 86l-190 686 h-1073l-189 -686l249 -86q29 -10 38.5 -24.5t9.5 -45.5v-118q0 -39 -15 -54.5t-55 -15.5h-866q-39 0 -54.5 15.5t-15.5 54.5v118q0 31 10 45.5t39 24.5zM993 1375h883l-442 1601zM1879 4013q-2 -184 -131.5 -314.5t-313.5 -130.5t-314.5 132.5t-130.5 317.5q0 121 61.5 223 t165 159.5t225.5 57.5q118 0 219.5 -60.5t160.5 -163.5t58 -221zM1639 4013q-1 87 -61.5 151t-147.5 64q-84 0 -142.5 -65t-58.5 -150q0 -87 59.5 -151t145.5 -64t146 64t59 151z" />
<glyph unicode="&#xc6;" horiz-adv-x="3545" d="M1705 1030h-924l-306 -686l249 -85q29 -10 38.5 -24.5t9.5 -45.5v-119q0 -39 -15 -54.5t-55 -15.5h-894q-39 0 -54.5 15.5t-15.5 54.5v119q0 30 10 45t39 25l249 85l1435 3023q18 38 38 50.5t62 12.5h1704q36 0 52.5 -9.5t18.5 -41.5q1 -5 0 -13t-1 -11v-612 q0 -28 -16 -44t-44 -16h-130q-35 0 -47 8.5t-23 40.5l-118 343h-852v-1125h980q18 0 27 -1q20 -2 30 -12.5t11.5 -22t1.5 -34.5v-195q0 -18 -1 -27q-2 -20 -12.5 -30t-22 -11.5t-34.5 -1.5h-980v-1260h882l123 358q6 16 10 24t13.5 16t23.5 9h23h130q28 0 44 -16t16 -44 v-632q0 -23 -2 -35t-12.5 -22t-30.5 -12q-8 -1 -25 -1h-1841q-39 0 -54.5 15.5t-15.5 54.5v125q0 32 9.5 46t39.5 24l257 89v676zM1705 2969l-762 -1594h762v1594z" />
<glyph unicode="&#xc7;" horiz-adv-x="2410" d="M1494 -66l-19 -204q312 -21 367 -219q13 -46 13 -98q0 -65 -16 -123q-13 -48 -34 -86q-110 -193 -450 -193q-106 0 -211 21l-67 13q-39 8 -33 46l25 194q4 33 30 33q5 0 15 -2l33 -8q112 -28 211 -28q33 0 63 4.5t62.5 15.5t52 35.5t19.5 59.5q0 36 -23.5 61t-60.5 36 q-21 7 -43.5 11t-50 5.5t-44 2t-50.5 0t-45 -0.5h-40q-42 0 -37 41l43 395q-112 17 -210 58q-86 35 -160 87q-427 291 -538 1048q-14 96 -25 224q-16 188 -16 388q0 198 16 384q11 128 25 222q115 761 560 1018q78 45 168 75q153 50 332 50q334 0 645 -164q67 -35 111 -69 q39 -29 53.5 -50.5t14.5 -61.5v-485q0 -28 -16 -44t-44 -16h-128h-24q-20 2 -29.5 14t-16.5 35l-136 394q-110 55 -205.5 83.5t-199.5 28.5q-118 0 -209 -30q-80 -25 -146 -77t-110 -114.5t-78.5 -145t-54.5 -155t-36 -158.5q-13 -67 -23 -162q-14 -152 -19 -261 q-5 -128 -5 -231q0 -155 7 -289q7 -165 19 -270q10 -95 27 -190q20 -104 33 -155q134 -555 480 -643q75 -19 155 -19q179 0 398 117l128 371q10 32 22.5 40.5t47.5 8.5h128q28 0 44 -16t16 -44v-462q0 -38 -12.5 -61t-45.5 -50q-41 -32 -107 -68q-266 -145 -546 -167z" />
<glyph unicode="&#xc8;" horiz-adv-x="2378" d="M538 354v2722l-258 88q-29 10 -38.5 24.5t-9.5 45.5v126q0 39 15 54.5t55 15.5h1806q39 0 54.5 -15.5t15.5 -54.5v-617q0 -28 -16 -44t-44 -16h-130h-23q-20 2 -30 14t-17 35l-126 378h-849v-1160h985q39 0 54.5 -15.5t15.5 -54.5v-195q0 -39 -15.5 -54.5t-54.5 -15.5 h-985v-1295h879l131 393q10 32 23 40.5t47 8.5h130q28 0 44 -16t16 -44v-632q0 -39 -15.5 -54.5t-54.5 -15.5h-1841q-40 0 -55 15.5t-15 54.5v125q0 31 9.5 45.5t38.5 24.5zM571 4124q-11 8 -16 12q-7 4 -7 18q0 10 10 24l181 262q14 20 29 20q9 0 27 -11l773 -592 q19 -15 19 -30q0 -13 -11 -26l-82 -117q-15 -21 -30 -21q-10 0 -24 8z" />
<glyph unicode="&#xc9;" horiz-adv-x="2378" d="M538 354v2722l-258 88q-29 10 -38.5 24.5t-9.5 45.5v126q0 39 15 54.5t55 15.5h1806q39 0 54.5 -15.5t15.5 -54.5v-617q0 -28 -16 -44t-44 -16h-130h-23q-20 2 -30 14t-17 35l-126 378h-849v-1160h985q39 0 54.5 -15.5t15.5 -54.5v-195q0 -39 -15.5 -54.5t-54.5 -15.5 h-985v-1295h879l131 393q10 32 23 40.5t47 8.5h130q28 0 44 -16t16 -44v-632q0 -39 -15.5 -54.5t-54.5 -15.5h-1841q-40 0 -55 15.5t-15 54.5v125q0 31 9.5 45.5t38.5 24.5zM1627 4383q33 23 52 23q32 0 60 -40l134 -195q20 -25 20 -49q0 -34 -46 -57l-807 -418 q-28 -15 -48 -15q-32 0 -61 43l-34 52q-21 29 -21 52q0 29 39 60z" />
<glyph unicode="&#xca;" horiz-adv-x="2378" d="M538 354v2722l-258 88q-29 10 -38.5 24.5t-9.5 45.5v126q0 39 15 54.5t55 15.5h1806q39 0 54.5 -15.5t15.5 -54.5v-617q0 -28 -16 -44t-44 -16h-130h-23q-20 2 -30 14t-17 35l-126 378h-849v-1160h985q39 0 54.5 -15.5t15.5 -54.5v-195q0 -39 -15.5 -54.5t-54.5 -15.5 h-985v-1295h879l131 393q10 32 23 40.5t47 8.5h130q28 0 44 -16t16 -44v-632q0 -39 -15.5 -54.5t-54.5 -15.5h-1841q-40 0 -55 15.5t-15 54.5v125q0 31 9.5 45.5t38.5 24.5zM1242 4008l-451 -289q-32 -20 -52 -20q-32 0 -60 42l-44 63q-21 31 -21 53q0 29 38 59l534 419 q35 26 56 26t56 -26l535 -419q38 -30 38 -60q0 -23 -22 -53l-45 -62q-31 -41 -60 -41q-22 0 -52 20z" />
<glyph unicode="&#xcb;" horiz-adv-x="2378" d="M538 354v2722l-258 88q-29 10 -38.5 24.5t-9.5 45.5v126q0 39 15 54.5t55 15.5h1806q39 0 54.5 -15.5t15.5 -54.5v-617q0 -28 -16 -44t-44 -16h-130h-23q-20 2 -30 14t-17 35l-126 378h-849v-1160h985q39 0 54.5 -15.5t15.5 -54.5v-195q0 -39 -15.5 -54.5t-54.5 -15.5 h-985v-1295h879l131 393q10 32 23 40.5t47 8.5h130q28 0 44 -16t16 -44v-632q0 -39 -15.5 -54.5t-54.5 -15.5h-1841q-40 0 -55 15.5t-15 54.5v125q0 31 9.5 45.5t38.5 24.5zM2019 4033q-1 -109 -80 -187t-189 -78q-108 0 -187 80t-79 189t80 187.5t189 78.5t188.5 -80 t77.5 -190zM1034 4033q-1 -108 -79 -186.5t-186 -78.5q-110 0 -190 80t-80 190q0 108 80 186.5t189 78.5t188.5 -80t77.5 -190z" />
<glyph unicode="&#xcc;" horiz-adv-x="1671" d="M631 344v2742l-249 86q-29 10 -39 24.5t-10 45.5v118q0 39 15.5 54.5t54.5 15.5h865q39 0 54.5 -15.5t15.5 -54.5v-118q0 -31 -10 -45.5t-39 -24.5l-248 -86v-2742l248 -86q29 -10 39 -24.5t10 -45.5v-118q0 -39 -15.5 -54.5t-54.5 -15.5h-865q-39 0 -54.5 15.5 t-15.5 54.5v118q0 31 10 45.5t39 24.5zM1136 3955q17 -10 26 -16q19 -11 19 -31q0 -6 -2 -13t-5 -12l-6 -12l-7 -11l-55 -95q-15 -25 -40 -25q-10 0 -50 15l-870 345q-50 19 -50 53q0 18 15 42l130 225q21 40 50 40q16 0 50 -20z" />
<glyph unicode="&#xcd;" horiz-adv-x="1671" d="M631 344v2742l-249 86q-29 10 -39 24.5t-10 45.5v118q0 39 15.5 54.5t54.5 15.5h865q39 0 54.5 -15.5t15.5 -54.5v-118q0 -31 -10 -45.5t-39 -24.5l-248 -86v-2742l248 -86q29 -10 39 -24.5t10 -45.5v-118q0 -39 -15.5 -54.5t-54.5 -15.5h-865q-39 0 -54.5 15.5 t-15.5 54.5v118q0 31 10 45.5t39 24.5zM1378 4177q10 -15 10 -23q0 -18 -23 -30l-877 -455q-16 -7 -24 -7q-15 0 -30 21l-77 116q-11 15 -11 26q0 14 20 30l775 593q16 12 27 12q15 0 29 -20z" />
<glyph unicode="&#xce;" horiz-adv-x="1671" d="M631 344v2742l-249 86q-29 10 -39 24.5t-10 45.5v118q0 39 15.5 54.5t54.5 15.5h865q39 0 54.5 -15.5t15.5 -54.5v-118q0 -31 -10 -45.5t-39 -24.5l-248 -86v-2742l248 -86q29 -10 39 -24.5t10 -45.5v-118q0 -39 -15.5 -54.5t-54.5 -15.5h-865q-39 0 -54.5 15.5 t-15.5 54.5v118q0 31 10 45.5t39 24.5zM835 4008l-452 -289q-30 -20 -51 -20q-31 0 -61 42l-43 63q-21 31 -21 53q0 29 38 59l534 419q35 26 56 26t56 -26l534 -419q39 -29 39 -60q0 -22 -23 -53l-45 -62q-29 -41 -60 -41q-21 0 -51 20z" />
<glyph unicode="&#xcf;" horiz-adv-x="1671" d="M631 344v2742l-249 86q-29 10 -39 24.5t-10 45.5v118q0 39 15.5 54.5t54.5 15.5h865q39 0 54.5 -15.5t15.5 -54.5v-118q0 -31 -10 -45.5t-39 -24.5l-248 -86v-2742l248 -86q29 -10 39 -24.5t10 -45.5v-118q0 -39 -15.5 -54.5t-54.5 -15.5h-865q-39 0 -54.5 15.5 t-15.5 54.5v118q0 31 10 45.5t39 24.5zM1551 4055q-1 -111 -83 -193t-193 -82q-112 0 -193 81.5t-81 194.5t82 193.5t196 80.5q110 0 191 -82t81 -193zM676 4060q-2 -114 -82.5 -197t-193.5 -83q-115 0 -197 83t-82 198q0 113 82.5 193.5t196.5 80.5q111 0 194 -82t82 -193z " />
<glyph unicode="&#xd0;" horiz-adv-x="2838" d="M943 1950h633h24q6 0 17.5 -2t15.5 -7t8 -14t5 -23v-24v-185q0 -44 -8 -55q-9 -13 -38 -14q-8 -1 -24 -1h-633v-1270h315q157 0 284 36q86 26 153 65q66 38 121.5 90.5t96 109t73 126.5t53.5 136.5t37.5 145.5t25.5 147t16 147q5 61 11 183q4 95 4 214q0 241 -19.5 439.5 t-76.5 370.5q-97 290 -299 410q-102 61 -227.5 80.5t-287.5 19.5h-280v-1125zM538 1625h-277q-18 0 -27 1t-19.5 5t-15.5 13t-6 25q-2 18 -2 26v185q0 8 2 26q1 16 6 25t15.5 13t19.5 5t27 1h277v1126l-258 88q-29 10 -38.5 24.5t-9.5 45.5v126q0 39 15 54.5t55 15.5h931 q112 0 189.5 -3t178.5 -14.5t190.5 -37.5t168.5 -67q466 -244 579 -1044q13 -89 23 -211q11 -160 11 -306q0 -123 -8 -264q-11 -172 -31.5 -313.5t-63 -298t-118.5 -294t-184 -246.5q-68 -68 -149 -123q-127 -85 -295 -137q-234 -71 -551 -71h-871q-40 0 -55 15.5t-15 54.5 v125q0 31 9.5 45.5t38.5 24.5l258 89v1271z" />
<glyph unicode="&#xd1;" horiz-adv-x="2857" d="M422 344v2742l-248 86q-29 10 -39 24.5t-10 45.5v118q0 39 15.5 54.5t54.5 15.5h579q56 0 80 -50l1233 -2599v2305l-248 86q-29 10 -39 24.5t-10 45.5v118q0 39 15.5 54.5t54.5 15.5h820q39 0 54.5 -15.5t15.5 -54.5v-118q0 -31 -10 -45.5t-39 -24.5l-249 -86v-3016 q0 -17 -1 -26q-1 -16 -6.5 -25t-16 -13t-19.5 -5t-27 -1h-270q-52 0 -75 50l-1250 2634v-2340l249 -86q29 -10 39 -24.5t10 -45.5v-118q0 -39 -15.5 -54.5t-54.5 -15.5h-820q-39 0 -54.5 15.5t-15.5 54.5v118q0 31 10 45.5t39 24.5zM2160 4209q12 -7 18 -11q9 -6 9 -21 q0 -16 -23 -59q-26 -50 -40 -74q-58 -102 -115 -155q-119 -111 -293 -111q-22 0 -45.5 3.5t-40.5 6.5t-44 14t-38 15t-42 20l-37 19q-6 3 -40.5 23t-37.5 21q-44 24 -73.5 38.5t-72.5 27t-81 12.5q-106 0 -177 -93q-17 -22 -45 -70q-17 -31 -38 -31q-7 0 -21 6l-158 70 q-27 11 -27 33q0 11 16 43q25 55 55 102q59 93 113 143q113 107 277 107q57 0 119.5 -19t105 -39.5t107.5 -57.5q5 -3 29 -16l31 -18l28.5 -14.5t33.5 -15.5l30 -10q18 -6 34.5 -8t33.5 -2q53 0 103 23.5t80 64.5q8 10 20 30q2 4 11.5 21t16 27t18.5 20t23 10q8 0 20 -6z " />
<glyph unicode="&#xd2;" horiz-adv-x="2780" d="M2515 1720q-1 -176 -19 -378q-12 -139 -24 -217q-115 -790 -586 -1065q-80 -47 -174 -78q-160 -52 -347 -52q-181 0 -338 51q-81 26 -162 72q-445 261 -563 1030q-14 96 -25 224q-17 199 -17 389q0 200 16 388q14 144 26 225q119 788 584 1059q87 51 180 80 q162 52 349 52q182 0 336 -50q81 -26 154 -68q466 -267 577 -1106q12 -87 21 -217q13 -188 12 -339zM2070 1685q0 147 -7 274q-4 110 -15 220q-9 99 -26 208q-11 69 -24 130t-26.5 111t-34 110t-43.5 108t-56 97.5t-71 86.5t-89 67t-109 46q-76 22 -170 22q-95 0 -172 -22 q-63 -17 -128 -52q-69 -39 -123.5 -98t-89 -120.5t-62 -144t-42 -148t-28.5 -153.5q-15 -81 -27 -202q-9 -97 -15 -197q-7 -137 -7 -293q0 -136 6 -274q7 -117 16 -210q13 -123 27 -203q11 -70 25 -131q31 -145 76 -260q55 -145 139.5 -239.5t217.5 -131.5q77 -21 169 -21 q98 0 180 24q60 16 118 49q109 62 175 164t107 241q37 130 59 257q13 78 25 181q12 111 18 226q7 129 7 278zM1144 4383l712 -544q39 -29 39 -60q0 -22 -20 -52l-35 -52q-29 -43 -60 -43q-21 0 -49 15l-806 418q-46 22 -46 57q0 22 19 49l134 195q30 40 61 40z" />
<glyph unicode="&#xd3;" horiz-adv-x="2780" d="M2515 1720q-1 -176 -19 -378q-12 -139 -24 -217q-115 -790 -586 -1065q-80 -47 -174 -78q-160 -52 -347 -52q-181 0 -338 51q-81 26 -162 72q-445 261 -563 1030q-14 96 -25 224q-17 199 -17 389q0 200 16 388q14 144 26 225q119 788 584 1059q87 51 180 80 q162 52 349 52q182 0 336 -50q81 -26 154 -68q466 -267 577 -1106q12 -87 21 -217q13 -188 12 -339zM2070 1685q0 147 -7 274q-4 110 -15 220q-9 99 -26 208q-11 69 -24 130t-26.5 111t-34 110t-43.5 108t-56 97.5t-71 86.5t-89 67t-109 46q-76 22 -170 22q-95 0 -172 -22 q-63 -17 -128 -52q-69 -39 -123.5 -98t-89 -120.5t-62 -144t-42 -148t-28.5 -153.5q-15 -81 -27 -202q-9 -97 -15 -197q-7 -137 -7 -293q0 -136 6 -274q7 -117 16 -210q13 -123 27 -203q11 -70 25 -131q31 -145 76 -260q55 -145 139.5 -239.5t217.5 -131.5q77 -21 169 -21 q98 0 180 24q60 16 118 49q109 62 175 164t107 241q37 130 59 257q13 78 25 181q12 111 18 226q7 129 7 278zM1730 4383q32 23 51 23q31 0 61 -40l134 -195q19 -27 19 -49q0 -35 -46 -57l-806 -418q-28 -15 -49 -15q-31 0 -60 43l-35 52q-20 30 -20 52q0 31 39 60z" />
<glyph unicode="&#xd4;" horiz-adv-x="2780" d="M2515 1720q-1 -176 -19 -378q-12 -139 -24 -217q-115 -790 -586 -1065q-80 -47 -174 -78q-160 -52 -347 -52q-181 0 -338 51q-81 26 -162 72q-445 261 -563 1030q-14 96 -25 224q-17 199 -17 389q0 200 16 388q14 144 26 225q119 788 584 1059q87 51 180 80 q162 52 349 52q182 0 336 -50q81 -26 154 -68q466 -267 577 -1106q12 -87 21 -217q13 -188 12 -339zM2070 1685q0 147 -7 274q-4 110 -15 220q-9 99 -26 208q-11 69 -24 130t-26.5 111t-34 110t-43.5 108t-56 97.5t-71 86.5t-89 67t-109 46q-76 22 -170 22q-95 0 -172 -22 q-63 -17 -128 -52q-69 -39 -123.5 -98t-89 -120.5t-62 -144t-42 -148t-28.5 -153.5q-15 -81 -27 -202q-9 -97 -15 -197q-7 -137 -7 -293q0 -136 6 -274q7 -117 16 -210q13 -123 27 -203q11 -70 25 -131q31 -145 76 -260q55 -145 139.5 -239.5t217.5 -131.5q77 -21 169 -21 q98 0 180 24q60 16 118 49q109 62 175 164t107 241q37 130 59 257q13 78 25 181q12 111 18 226q7 129 7 278zM1430 4008l-452 -289q-30 -20 -51 -20q-31 0 -61 42l-43 63q-21 31 -21 53q0 29 38 59l534 419q35 26 56 26t56 -26l534 -419q39 -29 39 -60q0 -22 -23 -53 l-45 -62q-29 -41 -60 -41q-21 0 -51 20z" />
<glyph unicode="&#xd5;" horiz-adv-x="2780" d="M2515 1720q-1 -176 -19 -378q-12 -139 -24 -217q-115 -790 -586 -1065q-80 -47 -174 -78q-160 -52 -347 -52q-181 0 -338 51q-81 26 -162 72q-445 261 -563 1030q-14 96 -25 224q-17 199 -17 389q0 200 16 388q14 144 26 225q119 788 584 1059q87 51 180 80 q162 52 349 52q182 0 336 -50q81 -26 154 -68q466 -267 577 -1106q12 -87 21 -217q13 -188 12 -339zM2070 1685q0 147 -7 274q-4 110 -15 220q-9 99 -26 208q-11 69 -24 130t-26.5 111t-34 110t-43.5 108t-56 97.5t-71 86.5t-89 67t-109 46q-76 22 -170 22q-95 0 -172 -22 q-63 -17 -128 -52q-69 -39 -123.5 -98t-89 -120.5t-62 -144t-42 -148t-28.5 -153.5q-15 -81 -27 -202q-9 -97 -15 -197q-7 -137 -7 -293q0 -136 6 -274q7 -117 16 -210q13 -123 27 -203q11 -70 25 -131q31 -145 76 -260q55 -145 139.5 -239.5t217.5 -131.5q77 -21 169 -21 q98 0 180 24q60 16 118 49q109 62 175 164t107 241q37 130 59 257q13 78 25 181q12 111 18 226q7 129 7 278zM2105 4209q12 -7 18 -11q9 -6 9 -21q0 -16 -23 -59q-26 -50 -40 -74q-58 -102 -115 -155q-118 -111 -293 -111q-22 0 -45.5 3.5t-40.5 6.5t-44 14t-38 15t-42 20 l-37 19q-6 3 -40.5 23t-37.5 21q-44 24 -73.5 38.5t-72.5 27t-81 12.5q-106 0 -177 -93q-17 -22 -45 -70q-17 -31 -38 -31q-7 0 -21 6l-158 70q-27 11 -27 33q0 11 16 43q25 55 55 102q59 93 113 143q113 107 277 107q57 0 119.5 -19t105 -39.5t107.5 -57.5q5 -3 29 -16 l31 -17q8 -5 28.5 -15.5t33.5 -14.5l30 -11q18 -6 34.5 -8t33.5 -2q53 0 103 23.5t80 64.5q8 10 20 30q2 4 11.5 21t16 27t18.5 20t23 10q8 0 20 -6z" />
<glyph unicode="&#xd6;" horiz-adv-x="2780" d="M2515 1720q-1 -176 -19 -378q-12 -139 -24 -217q-115 -790 -586 -1065q-80 -47 -174 -78q-160 -52 -347 -52q-181 0 -338 51q-81 26 -162 72q-445 261 -563 1030q-14 96 -25 224q-17 199 -17 389q0 200 16 388q14 144 26 225q119 788 584 1059q87 51 180 80 q162 52 349 52q182 0 336 -50q81 -26 154 -68q466 -267 577 -1106q12 -87 21 -217q13 -188 12 -339zM2070 1685q0 147 -7 274q-4 110 -15 220q-9 99 -26 208q-11 69 -24 130t-26.5 111t-34 110t-43.5 108t-56 97.5t-71 86.5t-89 67t-109 46q-76 22 -170 22q-95 0 -172 -22 q-63 -17 -128 -52q-69 -39 -123.5 -98t-89 -120.5t-62 -144t-42 -148t-28.5 -153.5q-15 -81 -27 -202q-9 -97 -15 -197q-7 -137 -7 -293q0 -136 6 -274q7 -117 16 -210q13 -123 27 -203q11 -70 25 -131q31 -145 76 -260q55 -145 139.5 -239.5t217.5 -131.5q77 -21 169 -21 q98 0 180 24q60 16 118 49q109 62 175 164t107 241q37 130 59 257q13 78 25 181q12 111 18 226q7 129 7 278zM2148 4033q-1 -109 -80.5 -187t-188.5 -78t-187.5 80t-78.5 189t79.5 187.5t189.5 78.5q109 0 188 -80t78 -190zM1163 4033q-2 -108 -80 -186.5t-186 -78.5 q-110 0 -189.5 80t-79.5 190q0 108 80 186.5t189 78.5t188 -80t78 -190z" />
<glyph unicode="&#xd7;" d="M1252 1394l-626 -626q-28 -28 -50 -28q-21 0 -49 28l-166 166q-29 27 -29 50q0 22 29 49l622 623l-622 622q-29 27 -29 49q0 23 29 50l166 166q29 29 50 29q20 0 49 -29l622 -622l626 626q28 28 50 28q21 0 49 -28l166 -166q29 -27 29 -50q0 -22 -29 -49l-622 -623 l622 -622q29 -27 29 -49q0 -23 -29 -50l-166 -166q-29 -29 -50 -29q-20 0 -49 29z" />
<glyph unicode="&#xd8;" horiz-adv-x="2780" d="M2220 3075q71 -119 105 -198q107 -251 148.5 -538t41.5 -620q0 -193 -16 -373q-10 -119 -24 -218q-121 -798 -587 -1068q-87 -49 -172 -76q-162 -54 -356 -54q-265 0 -469 109q-76 39 -176 121l-168 -325q-20 -38 -47 -38q-14 0 -34 10l-159 77q-38 18 -38 47q0 16 11 34 l235 455q-60 120 -85 183q-170 433 -170 1106q0 185 15 370q10 126 25 222q19 129 48 245.5t77 241.5t110.5 229t152 197.5t197.5 155.5q85 49 171 76q165 54 364 54q220 0 396 -76q86 -38 189 -109l173 336q19 37 46 37q14 0 36 -10l161 -81q37 -19 37 -47q0 -13 -10 -35z M1820 3000q-89 89 -187 127t-229 38q-125 0 -225 -32q-72 -23 -132.5 -65t-105.5 -98t-80 -117.5t-61 -135.5t-43 -139.5t-31 -140.5q-16 -83 -25 -174q-14 -148 -20 -281q-6 -124 -6 -248q0 -442 65 -909zM915 490q51 -68 97 -107q139 -118 361 -118q124 0 223 32 q365 115 458 726q15 97 23 174q11 104 18 260q5 140 5 252q0 261 -21 521q-24 271 -69 470z" />
<glyph unicode="&#xd9;" horiz-adv-x="3030" d="M1501 -70q-545 -2 -804 255q-66 66 -115 149q-54 89 -88 215q-43 168 -43 371v2166l-249 86q-29 10 -39 24.5t-10 45.5v118q0 39 15.5 54.5t54.5 15.5h865q39 0 54.5 -15.5t15.5 -54.5v-118q0 -31 -10 -45.5t-39 -24.5l-248 -86v-2151q0 -95 9.5 -173t34.5 -162.5 t77.5 -151t130.5 -108.5q61 -33 146 -52q98 -23 236 -23q444 0 587 246q37 62 59 152q28 112 28 272v2151l-249 86q-29 10 -38.5 24.5t-9.5 45.5v118q0 39 15 54.5t55 15.5h864q40 0 55 -15.5t15 -54.5v-118q0 -31 -9.5 -45.5t-38.5 -24.5l-249 -86v-2166q0 -202 -46 -371 q-34 -125 -91 -215q-55 -87 -120 -148q-269 -254 -821 -256zM1036 4383l712 -544q39 -31 39 -60q0 -23 -21 -52l-34 -52q-29 -43 -61 -43q-20 0 -48 15l-807 418q-46 23 -46 57q0 24 20 49l134 195q28 40 60 40q8 0 21 -6t22 -12z" />
<glyph unicode="&#xda;" horiz-adv-x="3030" d="M1501 -70q-545 -2 -804 255q-66 66 -115 149q-54 89 -88 215q-43 168 -43 371v2166l-249 86q-29 10 -39 24.5t-10 45.5v118q0 39 15.5 54.5t54.5 15.5h865q39 0 54.5 -15.5t15.5 -54.5v-118q0 -31 -10 -45.5t-39 -24.5l-248 -86v-2151q0 -95 9.5 -173t34.5 -162.5 t77.5 -151t130.5 -108.5q61 -33 146 -52q98 -23 236 -23q444 0 587 246q37 62 59 152q28 112 28 272v2151l-249 86q-29 10 -38.5 24.5t-9.5 45.5v118q0 39 15 54.5t55 15.5h864q40 0 55 -15.5t15 -54.5v-118q0 -31 -9.5 -45.5t-38.5 -24.5l-249 -86v-2166q0 -202 -46 -371 q-34 -125 -91 -215q-55 -87 -120 -148q-269 -254 -821 -256zM1822 4383q33 23 52 23q32 0 60 -40l134 -195q20 -25 20 -49q0 -34 -46 -57l-807 -418q-28 -15 -48 -15q-32 0 -61 43l-34 52q-21 29 -21 52q0 29 39 60z" />
<glyph unicode="&#xdb;" horiz-adv-x="3030" d="M1501 -70q-545 -2 -804 255q-66 66 -115 149q-54 89 -88 215q-43 168 -43 371v2166l-249 86q-29 10 -39 24.5t-10 45.5v118q0 39 15.5 54.5t54.5 15.5h865q39 0 54.5 -15.5t15.5 -54.5v-118q0 -31 -10 -45.5t-39 -24.5l-248 -86v-2151q0 -95 9.5 -173t34.5 -162.5 t77.5 -151t130.5 -108.5q61 -33 146 -52q98 -23 236 -23q444 0 587 246q37 62 59 152q28 112 28 272v2151l-249 86q-29 10 -38.5 24.5t-9.5 45.5v118q0 39 15 54.5t55 15.5h864q40 0 55 -15.5t15 -54.5v-118q0 -31 -9.5 -45.5t-38.5 -24.5l-249 -86v-2166q0 -202 -46 -371 q-34 -125 -91 -215q-55 -87 -120 -148q-269 -254 -821 -256zM1485 4008l-452 -289q-30 -20 -51 -20q-31 0 -61 42l-43 63q-21 31 -21 53q0 29 38 59l534 419q35 26 56 26t56 -26l534 -419q39 -29 39 -60q0 -22 -23 -53l-45 -62q-29 -41 -60 -41q-21 0 -51 20z" />
<glyph unicode="&#xdc;" horiz-adv-x="3030" d="M1501 -70q-545 -2 -804 255q-66 66 -115 149q-54 89 -88 215q-43 168 -43 371v2166l-249 86q-29 10 -39 24.5t-10 45.5v118q0 39 15.5 54.5t54.5 15.5h865q39 0 54.5 -15.5t15.5 -54.5v-118q0 -31 -10 -45.5t-39 -24.5l-248 -86v-2151q0 -95 9.5 -173t34.5 -162.5 t77.5 -151t130.5 -108.5q61 -33 146 -52q98 -23 236 -23q444 0 587 246q37 62 59 152q28 112 28 272v2151l-249 86q-29 10 -38.5 24.5t-9.5 45.5v118q0 39 15 54.5t55 15.5h864q40 0 55 -15.5t15 -54.5v-118q0 -31 -9.5 -45.5t-38.5 -24.5l-249 -86v-2166q0 -202 -46 -371 q-34 -125 -91 -215q-55 -87 -120 -148q-269 -254 -821 -256zM2240 4033q-2 -109 -81 -187t-188 -78t-187.5 80t-78.5 189t80 187.5t189 78.5t188 -80.5t78 -189.5zM1255 4033q-1 -108 -79 -186.5t-186 -78.5q-110 0 -190 80t-80 190q0 108 80 186.5t189 78.5t188 -80 t78 -190z" />
<glyph unicode="&#xdd;" horiz-adv-x="2415" d="M186 3086l-249 86q-29 10 -39 24.5t-10 45.5v118q0 39 15.5 54.5t54.5 15.5h934q39 0 54.5 -15.5t15.5 -54.5v-118q0 -31 -10 -45.5t-39 -24.5l-248 -86l597 -1231l595 1231l-249 86q-29 10 -38.5 24.5t-9.5 45.5v118q0 39 15 54.5t55 15.5h770q23 0 40 -10.5t17 -32.5 q0 -14 -10 -34l-981 -1898v-1099l263 -91q29 -10 39 -24.5t10 -45.5v-125q0 -40 -15.5 -55t-54.5 -15h-895q-39 0 -54.5 15t-15.5 55v125q0 31 10 45.5t39 24.5l264 91v1089zM1538 4383q33 23 52 23q32 0 60 -40l134 -195q20 -25 20 -49q0 -34 -46 -57l-807 -418 q-28 -15 -48 -15q-32 0 -61 43l-34 52q-21 29 -21 52q0 29 39 60z" />
<glyph unicode="&#xde;" horiz-adv-x="2472" d="M952 3085h435q104 0 168.5 -2t161 -13.5t165 -33t144.5 -63.5t135 -102q68 -69 117 -157q59 -106 89 -236q35 -143 35 -312q0 -199 -46 -363q-36 -134 -102 -247q-52 -91 -123 -167q-57 -59 -120 -104q-148 -106 -312 -143t-382 -37h-365v-761l249 -86q29 -10 39 -24.5 t10 -45.5v-118q0 -39 -15.5 -54.5t-54.5 -15.5h-865q-39 0 -54.5 15.5t-15.5 54.5v118q0 31 10 45.5t39 24.5l248 86v2717l-223 77q-29 10 -39 25t-10 45v100q0 33 9.5 48.5t39.5 21.5l532 107q37 7 48 7q53 0 53 -64v-343zM952 2740v-1275h335q84 0 127 1.5t112.5 12.5 t122.5 33q92 38 159.5 109.5t104 161.5t53 183.5t16.5 194.5q0 129 -25 226q-19 79 -56 141q-28 49 -68 88q-37 36 -86 61t-90 37t-105.5 18t-99.5 7t-105 1h-395z" />
<glyph unicode="&#xdf;" horiz-adv-x="3065" d="M530 315v2294q0 255 53 408q26 79 76 156q65 98 159 169t204 109.5t221.5 55.5t234.5 17q108 0 208 -15t200 -48t185.5 -95t143.5 -148q42 -64 64 -133q31 -93 31 -204q0 -198 -96 -369q-40 -72 -83 -114l-127 -123l-67 -65q-5 -5 -26.5 -25t-29.5 -28l-26 -27 q-19 -20 -27.5 -31.5t-21.5 -31t-19 -35t-11 -35t-5 -38.5q0 -40 17.5 -78.5t52.5 -74t60.5 -57t67.5 -51.5l96 -69l87 -61q196 -139 266 -198q223 -185 293 -380q9 -25 16 -51q23 -84 23 -190q0 -108 -23 -214t-68.5 -203.5t-120.5 -177.5t-172 -127q-169 -82 -420 -82 q-67 0 -133 6q-55 5 -111 12q-55 8 -79 14q-42 8 -62 14q-81 20 -153 54q-27 13 -42 27.5t-15 39.5q0 12 6 36l48 168q17 60 63 60q20 0 69 -20q76 -28 101 -35q183 -56 335 -56q129 0 230 52.5t146 163.5q36 87 36 214q0 89 -18 144q-9 30 -24 58.5t-40 56.5l-41 47 q-17 18 -54 48l-48 39l-53 41q-42 32 -277 196l-66 44l-66 45l-62 45q-39 29 -62 50.5t-53 53t-49.5 60.5t-38 67t-29.5 78q-16 55 -16 139q0 211 186 397q30 30 93 85.5t101 92t78.5 94.5t58.5 119q15 52 15 119q0 71 -18 131q-22 72 -68.5 126.5t-109 86t-131.5 46.5 t-144 15q-79 0 -153 -15t-143 -46.5t-122.5 -87t-81.5 -128.5q-44 -114 -44 -338v-2544q0 -36 -10.5 -48t-44.5 -12h-137h-385q-40 0 -55 15.5t-15 54.5v98q0 31 10 45.5t39 24.5z" />
<glyph unicode="&#xe0;" horiz-adv-x="2315" d="M1890 315l223 -77q29 -10 39 -24.5t10 -45.5v-94q0 -33 -9.5 -50t-39.5 -20l-389 -41q-36 -4 -55 -4q-51 0 -70 63l-62 213q-307 -285 -679 -285q-162 0 -286 51q-67 27 -131 75q-123 96 -182 242.5t-59 315.5q0 149 40 275q19 62 57 130q205 356 826 439q73 9 163 16 q74 5 229 11v177q0 63 -6.5 114.5t-23.5 106.5t-52.5 99t-87.5 72q-37 20 -100 37q-76 17 -178 17q-196 0 -401 -73q-39 -13 -126 -53q-55 -25 -75 -25q-36 0 -56 49l-66 177q-5 15 -5 28q0 15 5.5 27t18 22t20.5 15t26 14q24 14 66 32l44 18q40 14 60 20q53 17 74 22 q70 19 124 30q95 19 181 29t181 10q389 0 578 -189q45 -45 83 -107q33 -55 55 -129q36 -120 36 -278v-1452zM1515 550v645q-194 -5 -338.5 -23.5t-276.5 -71.5q-104 -42 -182.5 -113.5t-109.5 -168.5q-23 -70 -23 -153q0 -133 64 -240.5t185 -144.5q48 -15 110 -15 q64 0 130.5 18t119 42t116 67t104.5 75zM844 3500l712 -545q39 -31 39 -59q0 -21 -20 -53l-35 -52q-29 -43 -61 -43q-16 0 -48 15l-806 418q-46 24 -46 58q0 21 19 49l134 194q27 41 60 41q8 0 21 -5.5t22 -11.5z" />
<glyph unicode="&#xe1;" horiz-adv-x="2315" d="M1890 315l223 -77q29 -10 39 -24.5t10 -45.5v-94q0 -33 -9.5 -50t-39.5 -20l-389 -41q-36 -4 -55 -4q-51 0 -70 63l-62 213q-307 -285 -679 -285q-162 0 -286 51q-67 27 -131 75q-123 96 -182 242.5t-59 315.5q0 149 40 275q19 62 57 130q205 356 826 439q73 9 163 16 q74 5 229 11v177q0 63 -6.5 114.5t-23.5 106.5t-52.5 99t-87.5 72q-37 20 -100 37q-76 17 -178 17q-196 0 -401 -73q-39 -13 -126 -53q-55 -25 -75 -25q-36 0 -56 49l-66 177q-5 15 -5 28q0 15 5.5 27t18 22t20.5 15t26 14q24 14 66 32l44 18q40 14 60 20q53 17 74 22 q70 19 124 30q95 19 181 29t181 10q389 0 578 -189q45 -45 83 -107q33 -55 55 -129q36 -120 36 -278v-1452zM1515 550v645q-194 -5 -338.5 -23.5t-276.5 -71.5q-104 -42 -182.5 -113.5t-109.5 -168.5q-23 -70 -23 -153q0 -133 64 -240.5t185 -144.5q48 -15 110 -15 q64 0 130.5 18t119 42t116 67t104.5 75zM1479 3500q33 23 52 23q33 0 60 -41l134 -194q19 -28 19 -49q0 -34 -46 -58l-806 -418q-32 -15 -48 -15q-32 0 -61 43l-35 52q-20 32 -20 53q0 28 39 59z" />
<glyph unicode="&#xe2;" horiz-adv-x="2315" d="M1890 315l223 -77q29 -10 39 -24.5t10 -45.5v-94q0 -33 -9.5 -50t-39.5 -20l-389 -41q-36 -4 -55 -4q-51 0 -70 63l-62 213q-307 -285 -679 -285q-162 0 -286 51q-67 27 -131 75q-123 96 -182 242.5t-59 315.5q0 149 40 275q19 62 57 130q205 356 826 439q73 9 163 16 q74 5 229 11v177q0 63 -6.5 114.5t-23.5 106.5t-52.5 99t-87.5 72q-37 20 -100 37q-76 17 -178 17q-196 0 -401 -73q-39 -13 -126 -53q-55 -25 -75 -25q-36 0 -56 49l-66 177q-5 15 -5 28q0 15 5.5 27t18 22t20.5 15t26 14q24 14 66 32l44 18q40 14 60 20q53 17 74 22 q70 19 124 30q95 19 181 29t181 10q389 0 578 -189q45 -45 83 -107q33 -55 55 -129q36 -120 36 -278v-1452zM1515 550v645q-194 -5 -338.5 -23.5t-276.5 -71.5q-104 -42 -182.5 -113.5t-109.5 -168.5q-23 -70 -23 -153q0 -133 64 -240.5t185 -144.5q48 -15 110 -15 q64 0 130.5 18t119 42t116 67t104.5 75zM1115 3125l-451 -290q-30 -19 -52 -19q-32 0 -60 42l-44 63q-21 29 -21 52q0 30 38 60l534 418q32 26 56 26t56 -26l535 -418q38 -30 38 -61q0 -22 -22 -52l-45 -63q-30 -40 -60 -40q-20 0 -52 19z" />
<glyph unicode="&#xe3;" horiz-adv-x="2315" d="M1890 315l223 -77q29 -10 39 -24.5t10 -45.5v-94q0 -33 -9.5 -50t-39.5 -20l-389 -41q-36 -4 -55 -4q-51 0 -70 63l-62 213q-307 -285 -679 -285q-162 0 -286 51q-67 27 -131 75q-123 96 -182 242.5t-59 315.5q0 149 40 275q19 62 57 130q205 356 826 439q73 9 163 16 q74 5 229 11v177q0 63 -6.5 114.5t-23.5 106.5t-52.5 99t-87.5 72q-37 20 -100 37q-76 17 -178 17q-196 0 -401 -73q-39 -13 -126 -53q-55 -25 -75 -25q-36 0 -56 49l-66 177q-5 15 -5 28q0 15 5.5 27t18 22t20.5 15t26 14q24 14 66 32l44 18q40 14 60 20q53 17 74 22 q70 19 124 30q95 19 181 29t181 10q389 0 578 -189q45 -45 83 -107q33 -55 55 -129q36 -120 36 -278v-1452zM1515 550v645q-194 -5 -338.5 -23.5t-276.5 -71.5q-104 -42 -182.5 -113.5t-109.5 -168.5q-23 -70 -23 -153q0 -133 64 -240.5t185 -144.5q48 -15 110 -15 q64 0 130.5 18t119 42t116 67t104.5 75zM1805 3325q11 -6 17 -10q9 -5 9 -22q0 -16 -23 -59q-22 -43 -39 -73q-57 -100 -116 -155q-119 -111 -292 -111q-25 0 -49 2.5t-52.5 12t-43.5 14t-49.5 22t-41.5 20.5t-48 26t-42 24q-44 25 -73 39t-72 27t-81 13q-106 0 -178 -94 q-13 -17 -44 -69q-19 -32 -38 -32q-8 0 -22 6l-158 71q-26 11 -26 33q0 10 15 43q25 55 55 102q55 88 113 143q115 107 277 107q56 0 120 -19.5t104 -39t108 -57.5l29 -16q23 -14 31 -18l29 -14q21 -11 33 -15l31 -10q18 -7 34.5 -9t33.5 -2q52 0 102 23.5t81 64.5 q4 5 10.5 15.5t9.5 14.5q2 3 11 20t15.5 27.5t18.5 20.5t23 10q7 0 21 -6z" />
<glyph unicode="&#xe4;" horiz-adv-x="2315" d="M1890 315l223 -77q29 -10 39 -24.5t10 -45.5v-94q0 -33 -9.5 -50t-39.5 -20l-389 -41q-36 -4 -55 -4q-51 0 -70 63l-62 213q-307 -285 -679 -285q-162 0 -286 51q-67 27 -131 75q-123 96 -182 242.5t-59 315.5q0 149 40 275q19 62 57 130q205 356 826 439q73 9 163 16 q74 5 229 11v177q0 63 -6.5 114.5t-23.5 106.5t-52.5 99t-87.5 72q-37 20 -100 37q-76 17 -178 17q-196 0 -401 -73q-39 -13 -126 -53q-55 -25 -75 -25q-36 0 -56 49l-66 177q-5 15 -5 28q0 15 5.5 27t18 22t20.5 15t26 14q24 14 66 32l44 18q40 14 60 20q53 17 74 22 q70 19 124 30q95 19 181 29t181 10q389 0 578 -189q45 -45 83 -107q33 -55 55 -129q36 -120 36 -278v-1452zM1515 550v645q-194 -5 -338.5 -23.5t-276.5 -71.5q-104 -42 -182.5 -113.5t-109.5 -168.5q-23 -70 -23 -153q0 -133 64 -240.5t185 -144.5q48 -15 110 -15 q64 0 130.5 18t119 42t116 67t104.5 75zM1805 3150q-1 -109 -80 -187t-189 -78q-108 0 -187 80t-79 189t80 187.5t189 78.5t188.5 -80t77.5 -190zM904 3150q-2 -108 -80 -186.5t-186 -78.5q-110 0 -189.5 79.5t-79.5 189.5q0 109 80 187.5t189 78.5t188 -80t78 -190z" />
<glyph unicode="&#xe5;" horiz-adv-x="2315" d="M1890 315l223 -77q29 -10 39 -24.5t10 -45.5v-94q0 -33 -9.5 -50t-39.5 -20l-389 -41q-36 -4 -55 -4q-51 0 -70 63l-62 213q-307 -285 -679 -285q-162 0 -286 51q-67 27 -131 75q-123 96 -182 242.5t-59 315.5q0 149 40 275q19 62 57 130q205 356 826 439q73 9 163 16 q74 5 229 11v177q0 63 -6.5 114.5t-23.5 106.5t-52.5 99t-87.5 72q-37 20 -100 37q-76 17 -178 17q-196 0 -401 -73q-39 -13 -126 -53q-55 -25 -75 -25q-36 0 -56 49l-66 177q-5 15 -5 28q0 15 5.5 27t18 22t20.5 15t26 14q24 14 66 32l44 18q40 14 60 20q53 17 74 22 q70 19 124 30q95 19 181 29t181 10q389 0 578 -189q45 -45 83 -107q33 -55 55 -129q36 -120 36 -278v-1452zM1515 550v645q-194 -5 -338.5 -23.5t-276.5 -71.5q-104 -42 -182.5 -113.5t-109.5 -168.5q-23 -70 -23 -153q0 -133 64 -240.5t185 -144.5q48 -15 110 -15 q64 0 130.5 18t119 42t116 67t104.5 75zM1320 3130q-1 87 -61.5 151t-147.5 64q-84 0 -142.5 -65t-58.5 -150q0 -87 59.5 -151t145.5 -64t146.5 64.5t58.5 150.5zM1560 3130q-2 -184 -131.5 -314.5t-313.5 -130.5t-314.5 132.5t-130.5 316.5q0 121 61.5 223t165 160 t225.5 58q118 0 219.5 -60.5t160.5 -163.5t58 -221z" />
<glyph unicode="&#xe6;" horiz-adv-x="3520" d="M1755 2160q114 120 187 170q206 140 494 140q132 0 261 -35q119 -34 212 -90q322 -196 409 -662q27 -155 27 -262q0 -91 -20 -144q-13 -34 -40 -57.5t-53.5 -35t-70.5 -17.5t-68.5 -6.5t-69.5 -0.5h-17h-1148q7 -119 17 -198t34.5 -181.5t72 -186t118.5 -149.5 q43 -40 94 -71q60 -36 129 -58q86 -26 196 -26q193 0 403 82q66 26 141 62q5 2 17 9t19.5 10.5t18 7t19.5 3.5q34 0 54 -42l83 -180q12 -26 12 -42q0 -37 -50 -60q-65 -32 -124 -57q-312 -133 -623 -133q-344 0 -569 158q-38 27 -78.5 66.5t-66.5 70.5l-65 80 q-311 -286 -621 -351q-117 -24 -236 -24q-193 0 -334 63q-60 26 -114 68q-122 94 -181 239t-59 312q0 140 37 257q19 60 53 121q196 342 822 429q89 13 203 20q76 5 230 11v215q0 93 -16 165q-16 68 -42 110q-31 52 -77.5 87t-103.5 52.5t-111 24t-119 6.5q-196 0 -401 -73 q-46 -17 -125 -53q-57 -25 -76 -25q-37 0 -55 49l-66 177q-6 13 -6 28t5.5 27t18 22t20.5 15t26 14q26 14 67 32q28 12 42 17l60 21q30 10 76 22q65 18 132 32q63 13 133 24q91 13 188 13q298 0 487 -129q93 -64 188 -183zM1510 550v610q-170 -9 -173 -9q-93 -5 -175 -16 q-60 -7 -117 -18q-400 -70 -475 -312q-20 -66 -20 -143q0 -131 62.5 -233.5t180.5 -142.5q62 -21 139 -21q160 0 298 75.5t280 209.5zM1858 1470h1113q-8 83 -17 142t-28.5 135.5t-47 133t-74 113t-108.5 96.5q-48 32 -108 51q-73 24 -163 24q-85 0 -155 -21 q-57 -16 -104 -43q-65 -36 -115.5 -93.5t-80.5 -114.5t-54 -138.5t-34.5 -139.5t-23.5 -145z" />
<glyph unicode="&#xe7;" horiz-adv-x="2130" d="M1033 -58q-132 21 -234 69q-82 37 -150 92q-113 88 -194 211.5t-124 265.5t-62 281.5t-19 290.5q0 140 15.5 272t54.5 271t98.5 256.5t153.5 222.5t214 174q79 46 163 73q148 49 313 49q282 0 548 -134q47 -23 84 -46q1 -1 10 -6l12 -7q3 -2 11 -8t11 -8.5t8.5 -8.5 t8 -10.5t5 -11t3.5 -13.5q2 -11 2 -32v-377q0 -28 -16 -44t-44 -16h-144q-35 0 -47.5 8.5t-22.5 40.5l-89 258q-194 85 -329 85q-81 0 -164 -25q-84 -25 -154 -71q-252 -166 -281 -693q-4 -67 -4 -151q0 -75 5 -170q4 -65 14 -142q65 -494 371 -591q82 -27 183 -27 q189 0 365 83q105 49 133 63q3 1 26.5 16t40 21.5t32.5 6.5q38 0 58 -51l66 -164q11 -26 11 -44q0 -9 -2.5 -17.5t-8.5 -15.5l-11 -12q-5 -5 -15.5 -11.5t-15.5 -8.5l-17 -9q-12 -6 -15 -7l-48 -25q-260 -127 -518 -158l-19 -207q311 -21 367 -219q13 -46 13 -98 q0 -59 -16 -123q-13 -49 -35 -86q-109 -193 -450 -193q-106 0 -210 21l-68 13q-34 9 -34 33q0 2 0.5 6.5t0.5 6.5l25 194q4 33 31 33q5 0 15 -2l33 -8q112 -28 210 -28q33 0 63.5 4.5t63 15.5t52 35.5t19.5 59.5q0 106 -192 114l-68 2q-9 0 -28 -0.5t-29 -0.5h-41 q-19 0 -28.5 11t-7.5 30z" />
<glyph unicode="&#xe8;" horiz-adv-x="2315" d="M665 1115q8 -88 15.5 -149.5t25 -145t41.5 -146t65.5 -129t95.5 -117.5q48 -44 94 -73q58 -36 128 -58q90 -27 195 -27q193 0 405 91q53 24 138 68q4 2 16.5 10t20.5 12.5t19.5 8.5t20.5 4q34 0 53 -42l83 -180q13 -28 13 -42q0 -19 -12 -34.5t-22.5 -22t-33.5 -17.5 q-10 -6 -30 -16l-26 -13l-50 -23q-310 -144 -626 -144q-149 0 -280 36q-132 36 -244 102q-139 85 -242 213.5t-161 280.5t-85 309t-27 324q0 136 17 266.5t57 265t100.5 249t154 214.5t211.5 166q90 51 189 78q126 36 258 36q133 0 262 -35q119 -34 212 -90 q117 -71 204.5 -180t136.5 -237.5t72 -261.5t23 -275q0 -109 -20 -159q-13 -34 -40 -57.5t-53 -35t-70 -17.5t-68.5 -6.5t-70.5 -0.5h-17h-1148zM665 1425h1113q-5 73 -10.5 126t-17 122t-31 123t-47.5 110t-70.5 102.5t-97.5 81.5q-51 33 -108 51q-75 24 -164 24 q-85 0 -155 -21q-57 -16 -104 -43q-68 -38 -120 -98.5t-84 -124.5t-54 -147.5t-32.5 -152t-17.5 -153.5zM947 3500l712 -545q39 -29 39 -59q0 -21 -20 -53l-35 -52q-29 -43 -60 -43q-17 0 -49 15l-806 418q-46 24 -46 58q0 21 19 49l134 194q29 41 61 41z" />
<glyph unicode="&#xe9;" horiz-adv-x="2315" d="M665 1115q8 -88 15.5 -149.5t25 -145t41.5 -146t65.5 -129t95.5 -117.5q48 -44 94 -73q58 -36 128 -58q90 -27 195 -27q193 0 405 91q53 24 138 68q4 2 16.5 10t20.5 12.5t19.5 8.5t20.5 4q34 0 53 -42l83 -180q13 -28 13 -42q0 -19 -12 -34.5t-22.5 -22t-33.5 -17.5 q-10 -6 -30 -16l-26 -13l-50 -23q-310 -144 -626 -144q-149 0 -280 36q-132 36 -244 102q-139 85 -242 213.5t-161 280.5t-85 309t-27 324q0 136 17 266.5t57 265t100.5 249t154 214.5t211.5 166q90 51 189 78q126 36 258 36q133 0 262 -35q119 -34 212 -90 q117 -71 204.5 -180t136.5 -237.5t72 -261.5t23 -275q0 -109 -20 -159q-13 -34 -40 -57.5t-53 -35t-70 -17.5t-68.5 -6.5t-70.5 -0.5h-17h-1148zM665 1425h1113q-5 73 -10.5 126t-17 122t-31 123t-47.5 110t-70.5 102.5t-97.5 81.5q-51 33 -108 51q-75 24 -164 24 q-85 0 -155 -21q-57 -16 -104 -43q-68 -38 -120 -98.5t-84 -124.5t-54 -147.5t-32.5 -152t-17.5 -153.5zM1571 3500q32 23 51 23q32 0 61 -41l134 -194q19 -28 19 -49q0 -34 -46 -58l-806 -418q-32 -15 -49 -15q-31 0 -60 43l-35 52q-20 32 -20 53q0 30 39 59z" />
<glyph unicode="&#xea;" horiz-adv-x="2315" d="M665 1115q8 -88 15.5 -149.5t25 -145t41.5 -146t65.5 -129t95.5 -117.5q48 -44 94 -73q58 -36 128 -58q90 -27 195 -27q193 0 405 91q53 24 138 68q4 2 16.5 10t20.5 12.5t19.5 8.5t20.5 4q34 0 53 -42l83 -180q13 -28 13 -42q0 -19 -12 -34.5t-22.5 -22t-33.5 -17.5 q-10 -6 -30 -16l-26 -13l-50 -23q-310 -144 -626 -144q-149 0 -280 36q-132 36 -244 102q-139 85 -242 213.5t-161 280.5t-85 309t-27 324q0 136 17 266.5t57 265t100.5 249t154 214.5t211.5 166q90 51 189 78q126 36 258 36q133 0 262 -35q119 -34 212 -90 q117 -71 204.5 -180t136.5 -237.5t72 -261.5t23 -275q0 -109 -20 -159q-13 -34 -40 -57.5t-53 -35t-70 -17.5t-68.5 -6.5t-70.5 -0.5h-17h-1148zM665 1425h1113q-5 73 -10.5 126t-17 122t-31 123t-47.5 110t-70.5 102.5t-97.5 81.5q-51 33 -108 51q-75 24 -164 24 q-85 0 -155 -21q-57 -16 -104 -43q-68 -38 -120 -98.5t-84 -124.5t-54 -147.5t-32.5 -152t-17.5 -153.5zM1222 3125l-452 -290q-30 -19 -52 -19q-32 0 -60 42l-44 63q-21 31 -21 52q0 29 39 60l534 418q32 26 56 26t56 -26l534 -418q38 -30 38 -61q0 -22 -22 -52l-45 -63 q-28 -40 -60 -40q-19 0 -51 19z" />
<glyph unicode="&#xeb;" horiz-adv-x="2315" d="M665 1115q8 -88 15.5 -149.5t25 -145t41.5 -146t65.5 -129t95.5 -117.5q48 -44 94 -73q58 -36 128 -58q90 -27 195 -27q193 0 405 91q53 24 138 68q4 2 16.5 10t20.5 12.5t19.5 8.5t20.5 4q34 0 53 -42l83 -180q13 -28 13 -42q0 -19 -12 -34.5t-22.5 -22t-33.5 -17.5 q-10 -6 -30 -16l-26 -13l-50 -23q-310 -144 -626 -144q-149 0 -280 36q-132 36 -244 102q-139 85 -242 213.5t-161 280.5t-85 309t-27 324q0 136 17 266.5t57 265t100.5 249t154 214.5t211.5 166q90 51 189 78q126 36 258 36q133 0 262 -35q119 -34 212 -90 q117 -71 204.5 -180t136.5 -237.5t72 -261.5t23 -275q0 -109 -20 -159q-13 -34 -40 -57.5t-53 -35t-70 -17.5t-68.5 -6.5t-70.5 -0.5h-17h-1148zM665 1425h1113q-5 73 -10.5 126t-17 122t-31 123t-47.5 110t-70.5 102.5t-97.5 81.5q-51 33 -108 51q-75 24 -164 24 q-85 0 -155 -21q-57 -16 -104 -43q-68 -38 -120 -98.5t-84 -124.5t-54 -147.5t-32.5 -152t-17.5 -153.5zM1930 3150q-1 -109 -80 -187t-189 -78q-108 0 -187 80t-79 189t80 187.5t189 78.5t188.5 -80t77.5 -190zM1029 3150q-2 -108 -80 -186.5t-186 -78.5 q-110 0 -189.5 79.5t-79.5 189.5q0 109 80 187.5t189 78.5t188 -80t78 -190z" />
<glyph unicode="&#xec;" horiz-adv-x="1390" d="M560 314v1696l-223 78q-29 10 -39 24.5t-10 45.5v100q0 32 9.5 48t39.5 22l497 106q32 8 48 8q53 0 53 -64v-2064l223 -76q29 -10 39 -24.5t10 -45.5v-98q0 -39 -15.5 -54.5t-54.5 -15.5h-779q-39 0 -54.5 15.5t-15.5 54.5v98q0 31 10 45.5t39 24.5zM278 3500l712 -545 q39 -31 39 -59q0 -22 -21 -53l-34 -52q-29 -43 -61 -43q-16 0 -48 15l-807 418q-46 25 -46 58q0 22 20 49l134 194q27 41 60 41q8 0 21 -5.5t22 -11.5z" />
<glyph unicode="&#xed;" horiz-adv-x="1390" d="M560 314v1696l-223 78q-29 10 -39 24.5t-10 45.5v100q0 32 9.5 48t39.5 22l497 106q32 8 48 8q53 0 53 -64v-2064l223 -76q29 -10 39 -24.5t10 -45.5v-98q0 -39 -15.5 -54.5t-54.5 -15.5h-779q-39 0 -54.5 15.5t-15.5 54.5v98q0 31 10 45.5t39 24.5zM970 3500 q33 23 52 23q33 0 60 -41l134 -194q20 -27 20 -49q0 -33 -46 -58l-807 -418q-32 -15 -48 -15q-32 0 -61 43l-34 52q-21 31 -21 53q0 28 39 59z" />
<glyph unicode="&#xee;" horiz-adv-x="1390" d="M560 314v1696l-223 78q-29 10 -39 24.5t-10 45.5v100q0 32 9.5 48t39.5 22l497 106q32 8 48 8q53 0 53 -64v-2064l223 -76q29 -10 39 -24.5t10 -45.5v-98q0 -39 -15.5 -54.5t-54.5 -15.5h-779q-39 0 -54.5 15.5t-15.5 54.5v98q0 31 10 45.5t39 24.5zM661 3125l-452 -290 q-30 -19 -52 -19q-32 0 -60 42l-44 63q-21 31 -21 52q0 29 39 60l534 418q32 26 56 26t56 -26l534 -418q38 -30 38 -61q0 -22 -22 -52l-45 -63q-28 -40 -60 -40q-19 0 -51 19z" />
<glyph unicode="&#xef;" horiz-adv-x="1390" d="M560 314v1696l-223 78q-29 10 -39 24.5t-10 45.5v100q0 32 9.5 48t39.5 22l497 106q32 8 48 8q53 0 53 -64v-2064l223 -76q29 -10 39 -24.5t10 -45.5v-98q0 -39 -15.5 -54.5t-54.5 -15.5h-779q-39 0 -54.5 15.5t-15.5 54.5v98q0 31 10 45.5t39 24.5zM1279 3150 q-1 -109 -80 -187t-189 -78q-108 0 -187 80t-79 189t80 187.5t189 78.5t188.5 -80t77.5 -190zM569 3150q-1 -108 -79 -186.5t-186 -78.5q-110 0 -190 79.5t-80 189.5q0 109 80 187.5t189 78.5t188.5 -80t77.5 -190z" />
<glyph unicode="&#xf0;" d="M1760 2950q485 -848 485 -1644q0 -123 -10 -233q-14 -155 -48 -295.5t-94 -279t-158 -253.5t-227 -191q-80 -46 -165 -74q-151 -50 -322 -50q-168 0 -309 47q-79 26 -149 66q-115 66 -205 168t-146 216t-92 250t-50.5 263t-14.5 261q0 164 23 317t74.5 305.5t146 283.5 t225.5 219q98 65 200 98q141 46 295 46q203 0 332 -79l35 -21l27 -16l17 -11q10 -6 18 -12l19 -14l28 -22q-14 36 -29 71t-35 75l-33 66q-13 27 -39 74l-36 65l-40 72l-38 67l-399 -212q-22 -11 -33 -11q-30 0 -50 36l-62 115q-12 20 -12 33q0 31 37 50l389 209l-205 325 q-1 2 -12 17.5t-16.5 24t-11 21.5t-5.5 22q0 34 55 45l195 40q49 11 104 -55q27 -31 43 -54l98 -140l60 -91l396 215q22 12 34 12q29 0 49 -35l67 -116q12 -20 12 -34q0 -30 -35 -48zM1845 1195q-1 99 -11 209q-52 607 -411 724q-82 27 -179 27q-98 0 -179 -27 q-102 -33 -178 -106t-119.5 -171t-66.5 -195t-33 -207q-8 -98 -8 -182q0 -109 8 -196q20 -261 88 -454q53 -147 127 -224q84 -87 213 -124q82 -24 168 -24t168 24q59 18 105 43q108 59 165.5 159.5t91.5 244.5q54 221 51 479z" />
<glyph unicode="&#xf1;" horiz-adv-x="2685" d="M500 314v1723l-223 78q-29 10 -39 25t-10 45v100q0 32 9.5 48t39.5 22l373 80q25 6 40 7t25.5 -3.5t17.5 -16.5t9 -19l9 -25l80 -259q154 123 285.5 203t276.5 117q121 31 251 31q124 0 221 -27q77 -21 146 -63q46 -29 82 -63q37 -37 64 -79.5t43 -94t26 -93t13.5 -104.5 t4.5 -98.5t1 -103.5v-19v-1411l223 -76q29 -10 39 -24.5t10 -45.5v-98q0 -39 -15.5 -54.5t-54.5 -15.5h-507q-39 0 -54.5 15.5t-15.5 54.5v1660q0 59 -5 106t-19 100.5t-44.5 96.5t-75.5 70q-29 18 -67 28q-53 14 -127 14q-98 0 -184 -23q-122 -32 -229.5 -104t-238.5 -188 v-1516l223 -76q29 -10 39 -24.5t10 -45.5v-98q0 -39 -15.5 -54.5t-54.5 -15.5h-784q-39 0 -54.5 15.5t-15.5 54.5v98q0 31 10 45.5t39 24.5zM1981 3325q11 -6 17 -10q9 -5 9 -22q0 -16 -23 -59q-22 -43 -39 -73q-57 -100 -116 -155q-119 -111 -292 -111q-25 0 -49 2.5 t-52.5 12t-43.5 14t-49.5 22t-41.5 20.5t-48 26t-42 24q-44 25 -73 39t-72 27t-81 13q-106 0 -178 -94q-13 -17 -44 -69q-19 -32 -38 -32q-8 0 -22 6l-158 71q-26 11 -26 33q0 10 15 43q25 55 55 102q55 88 113 143q115 107 277 107q56 0 120 -19.5t104 -39t108 -57.5 l28 -17q24 -13 32 -17l29 -15q21 -10 33 -14l30 -10q19 -7 35.5 -9t33.5 -2q52 0 102 23.5t81 64.5q4 5 10.5 15.5t9.5 14.5q2 3 11 20t15.5 27.5t18.5 20.5t23 10q7 0 21 -6z" />
<glyph unicode="&#xf2;" d="M2245 1215q-5 -436 -131 -716q-52 -115 -126 -211q-79 -102 -167 -170q-123 -95 -276 -141.5t-317 -46.5q-173 0 -323 48q-106 34 -199 97q-104 70 -184 170.5t-129.5 209.5t-81 237.5t-44 248t-12.5 247.5q0 676 336 1017q72 74 176 138q92 55 221 91q138 36 282 36 q175 0 323 -49q78 -25 153 -68q112 -65 200.5 -164.5t144 -212.5t92 -245.5t50.5 -258.5t12 -257zM1840 1220q-2 90 -5 137q-7 113 -22.5 206.5t-49 199t-96.5 189.5t-151 136q-45 26 -89 40q-82 27 -180 27q-97 0 -178 -27q-83 -27 -150 -83t-109.5 -124.5t-73 -155.5 t-45.5 -166.5t-23 -167.5q-8 -102 -8 -194q0 -300 60 -531q23 -91 51.5 -157.5t81.5 -131.5t127 -104q47 -26 107 -44q83 -24 168 -24q82 0 165 23q51 15 100 41q68 36 118 94t78.5 119t52.5 143q76 255 71 555zM850 3500l712 -545q39 -31 39 -59q0 -21 -20 -53l-35 -52 q-29 -43 -61 -43q-16 0 -48 15l-806 418q-46 24 -46 58q0 21 19 49l134 194q27 41 60 41q8 0 21 -5.5t22 -11.5z" />
<glyph unicode="&#xf3;" d="M2245 1215q-5 -436 -131 -716q-52 -115 -126 -211q-79 -102 -167 -170q-123 -95 -276 -141.5t-317 -46.5q-173 0 -323 48q-106 34 -199 97q-104 70 -184 170.5t-129.5 209.5t-81 237.5t-44 248t-12.5 247.5q0 676 336 1017q72 74 176 138q92 55 221 91q138 36 282 36 q175 0 323 -49q78 -25 153 -68q112 -65 200.5 -164.5t144 -212.5t92 -245.5t50.5 -258.5t12 -257zM1840 1220q-2 90 -5 137q-7 113 -22.5 206.5t-49 199t-96.5 189.5t-151 136q-45 26 -89 40q-82 27 -180 27q-97 0 -178 -27q-83 -27 -150 -83t-109.5 -124.5t-73 -155.5 t-45.5 -166.5t-23 -167.5q-8 -102 -8 -194q0 -300 60 -531q23 -91 51.5 -157.5t81.5 -131.5t127 -104q47 -26 107 -44q83 -24 168 -24q82 0 165 23q51 15 100 41q68 36 118 94t78.5 119t52.5 143q76 255 71 555zM1592 3500q33 23 52 23q33 0 60 -41l134 -194q20 -27 20 -49 q0 -33 -46 -58l-807 -418q-32 -15 -48 -15q-32 0 -61 43l-34 52q-21 31 -21 53q0 28 39 59z" />
<glyph unicode="&#xf4;" d="M2245 1215q-5 -436 -131 -716q-52 -115 -126 -211q-79 -102 -167 -170q-123 -95 -276 -141.5t-317 -46.5q-173 0 -323 48q-106 34 -199 97q-104 70 -184 170.5t-129.5 209.5t-81 237.5t-44 248t-12.5 247.5q0 676 336 1017q72 74 176 138q92 55 221 91q138 36 282 36 q175 0 323 -49q78 -25 153 -68q112 -65 200.5 -164.5t144 -212.5t92 -245.5t50.5 -258.5t12 -257zM1840 1220q-2 90 -5 137q-7 113 -22.5 206.5t-49 199t-96.5 189.5t-151 136q-45 26 -89 40q-82 27 -180 27q-97 0 -178 -27q-83 -27 -150 -83t-109.5 -124.5t-73 -155.5 t-45.5 -166.5t-23 -167.5q-8 -102 -8 -194q0 -300 60 -531q23 -91 51.5 -157.5t81.5 -131.5t127 -104q47 -26 107 -44q83 -24 168 -24q82 0 165 23q51 15 100 41q68 36 118 94t78.5 119t52.5 143q76 255 71 555zM1280 3125l-452 -290q-28 -19 -51 -19q-31 0 -61 42l-43 63 q-21 29 -21 52q0 30 38 60l534 418q32 26 56 26t56 -26l534 -418q39 -29 39 -61q0 -21 -23 -52l-45 -63q-28 -40 -60 -40q-19 0 -51 19z" />
<glyph unicode="&#xf5;" d="M2245 1215q-5 -436 -131 -716q-52 -115 -126 -211q-79 -102 -167 -170q-123 -95 -276 -141.5t-317 -46.5q-173 0 -323 48q-106 34 -199 97q-104 70 -184 170.5t-129.5 209.5t-81 237.5t-44 248t-12.5 247.5q0 676 336 1017q72 74 176 138q92 55 221 91q138 36 282 36 q175 0 323 -49q78 -25 153 -68q112 -65 200.5 -164.5t144 -212.5t92 -245.5t50.5 -258.5t12 -257zM1840 1220q-2 90 -5 137q-7 113 -22.5 206.5t-49 199t-96.5 189.5t-151 136q-45 26 -89 40q-82 27 -180 27q-97 0 -178 -27q-83 -27 -150 -83t-109.5 -124.5t-73 -155.5 t-45.5 -166.5t-23 -167.5q-8 -102 -8 -194q0 -300 60 -531q23 -91 51.5 -157.5t81.5 -131.5t127 -104q47 -26 107 -44q83 -24 168 -24q82 0 165 23q51 15 100 41q68 36 118 94t78.5 119t52.5 143q76 255 71 555zM1951 3325q12 -6 17 -10q10 -6 10 -22q0 -9 -3.5 -18.5 t-10.5 -24.5l-9 -16l-40 -73q-58 -102 -116 -155q-119 -111 -292 -111q-22 0 -45.5 3.5t-40.5 6.5t-44 14t-38.5 14.5t-41.5 19.5l-37 19q-6 3 -41 23t-37 21q-45 25 -73.5 39t-72 27t-81.5 13q-106 0 -178 -94q-16 -21 -44 -69q-19 -32 -38 -32q-9 0 -21 6l-159 71 q-26 11 -26 33q0 6 2.5 13.5t7 17t5.5 12.5q21 46 55 102q59 92 113 143q115 107 277 107q56 0 119.5 -19t105 -39.5t107.5 -57.5q3 -2 33 -18.5t38 -20.5l34 -17q25 -12 39 -15.5t35.5 -8t41.5 -4.5q53 0 102.5 23.5t80.5 64.5q9 11 20 30q2 3 11.5 20t16 27.5t18 20.5 t22.5 10q7 0 21 -6z" />
<glyph unicode="&#xf6;" d="M2245 1215q-5 -436 -131 -716q-52 -115 -126 -211q-79 -102 -167 -170q-123 -95 -276 -141.5t-317 -46.5q-173 0 -323 48q-106 34 -199 97q-104 70 -184 170.5t-129.5 209.5t-81 237.5t-44 248t-12.5 247.5q0 676 336 1017q72 74 176 138q92 55 221 91q138 36 282 36 q175 0 323 -49q78 -25 153 -68q112 -65 200.5 -164.5t144 -212.5t92 -245.5t50.5 -258.5t12 -257zM1840 1220q-2 90 -5 137q-7 113 -22.5 206.5t-49 199t-96.5 189.5t-151 136q-45 26 -89 40q-82 27 -180 27q-97 0 -178 -27q-83 -27 -150 -83t-109.5 -124.5t-73 -155.5 t-45.5 -166.5t-23 -167.5q-8 -102 -8 -194q0 -300 60 -531q23 -91 51.5 -157.5t81.5 -131.5t127 -104q47 -26 107 -44q83 -24 168 -24q82 0 165 23q51 15 100 41q68 36 118 94t78.5 119t52.5 143q76 255 71 555zM1968 3150q-1 -109 -80 -187t-189 -78q-108 0 -187 80 t-79 189t80 187.5t189 78.5t188.5 -80t77.5 -190zM1067 3150q-2 -108 -80 -186.5t-186 -78.5q-110 0 -189.5 79.5t-79.5 189.5q0 109 80 187.5t189 78.5t188 -80t78 -190z" />
<glyph unicode="&#xf7;" d="M2320 1470h-2140q-39 0 -54.5 15t-15.5 55v235q0 40 15.5 55t54.5 15h2140q39 0 54.5 -15t15.5 -55v-235q0 -48 -22 -61q-13 -8 -27 -8zM1605 2520q-1 -146 -102.5 -248t-247.5 -102q-147 0 -253.5 102.5t-106.5 248.5t104 250t250 104q143 0 250 -106t106 -249z M1605 800q-1 -146 -102.5 -248t-247.5 -102q-147 0 -253.5 102.5t-106.5 248.5t104 250t250 104q143 0 250 -106t106 -249z" />
<glyph unicode="&#xf8;" d="M1960 2180q58 -72 89 -125q196 -335 196 -842q0 -151 -18.5 -290t-60 -280t-117.5 -267t-183 -221q-55 -48 -139 -100q-86 -51 -189 -81q-149 -44 -323 -44q-246 0 -460 110l-147 -272q-18 -37 -46 -37q-15 0 -35 11l-153 76q-36 17 -36 46q0 17 11 35l181 331 q-58 76 -89 131q-186 332 -186 833q0 150 18 288t59 278.5t117 265.5t181 219q56 49 137 100q78 47 188 81q147 45 314 45q245 0 461 -106l139 252q20 36 46 36q18 0 37 -12l146 -80q36 -20 36 -46q0 -13 -12 -37zM955 330q143 -85 297 -85q104 0 192 27q184 56 273 194 q52 80 94 230q64 233 64 560q0 177 -24.5 328t-80.5 311zM1545 2075q-133 80 -291 80q-109 0 -202 -30q-49 -15 -93 -41q-277 -160 -321 -672q-8 -106 -8 -199q0 -373 100 -703z" />
<glyph unicode="&#xf9;" horiz-adv-x="2685" d="M2195 304l223 -76q29 -10 39 -24.5t10 -45.5v-95q0 -33 -9.5 -50t-39.5 -20l-389 -40q-45 -5 -55 -5q-53 0 -70 64l-54 196q-237 -189 -442 -245q-118 -33 -263 -33q-343 0 -519 176q-44 44 -81 105q-32 52 -55 130q-35 112 -35 259v1410l-223 78q-29 10 -39 24.5 t-10 45.5v100q0 32 9.5 48t39.5 22l497 106q32 8 48 8q53 0 53 -64v-1528q0 -35 2 -105q2 -50 5.5 -87t11 -89t22 -91t36.5 -78t56.5 -67t78.5 -43q63 -20 145 -20q327 0 633 260v1480l-223 78q-29 10 -39 24.5t-10 45.5v100q0 32 9.5 48t39.5 22l497 106q32 8 48 8 q53 0 53 -64v-2074zM978 3500l712 -545q39 -31 39 -59q0 -21 -20 -53l-35 -52q-29 -43 -61 -43q-16 0 -48 15l-806 418q-46 24 -46 58q0 21 19 49l134 194q27 41 60 41q8 0 21 -5.5t22 -11.5z" />
<glyph unicode="&#xfa;" horiz-adv-x="2685" d="M2195 304l223 -76q29 -10 39 -24.5t10 -45.5v-95q0 -33 -9.5 -50t-39.5 -20l-389 -40q-45 -5 -55 -5q-53 0 -70 64l-54 196q-237 -189 -442 -245q-118 -33 -263 -33q-343 0 -519 176q-44 44 -81 105q-32 52 -55 130q-35 112 -35 259v1410l-223 78q-29 10 -39 24.5 t-10 45.5v100q0 32 9.5 48t39.5 22l497 106q32 8 48 8q53 0 53 -64v-1528q0 -35 2 -105q2 -50 5.5 -87t11 -89t22 -91t36.5 -78t56.5 -67t78.5 -43q63 -20 145 -20q327 0 633 260v1480l-223 78q-29 10 -39 24.5t-10 45.5v100q0 32 9.5 48t39.5 22l497 106q32 8 48 8 q53 0 53 -64v-2074zM1605 3500q32 23 51 23q32 0 61 -41l134 -194q19 -28 19 -49q0 -34 -46 -58l-806 -418q-32 -15 -49 -15q-31 0 -60 43l-35 52q-20 32 -20 53q0 30 39 59z" />
<glyph unicode="&#xfb;" horiz-adv-x="2685" d="M2195 304l223 -76q29 -10 39 -24.5t10 -45.5v-95q0 -33 -9.5 -50t-39.5 -20l-389 -40q-45 -5 -55 -5q-53 0 -70 64l-54 196q-237 -189 -442 -245q-118 -33 -263 -33q-343 0 -519 176q-44 44 -81 105q-32 52 -55 130q-35 112 -35 259v1410l-223 78q-29 10 -39 24.5 t-10 45.5v100q0 32 9.5 48t39.5 22l497 106q32 8 48 8q53 0 53 -64v-1528q0 -35 2 -105q2 -50 5.5 -87t11 -89t22 -91t36.5 -78t56.5 -67t78.5 -43q63 -20 145 -20q327 0 633 260v1480l-223 78q-29 10 -39 24.5t-10 45.5v100q0 32 9.5 48t39.5 22l497 106q32 8 48 8 q53 0 53 -64v-2074zM1328 3125l-451 -290q-30 -19 -52 -19q-32 0 -60 42l-44 63q-21 29 -21 52q0 30 38 60l534 418q32 26 56 26t56 -26l535 -418q38 -30 38 -61q0 -22 -22 -52l-45 -63q-30 -40 -60 -40q-20 0 -52 19z" />
<glyph unicode="&#xfc;" horiz-adv-x="2685" d="M2195 304l223 -76q29 -10 39 -24.5t10 -45.5v-95q0 -33 -9.5 -50t-39.5 -20l-389 -40q-45 -5 -55 -5q-53 0 -70 64l-54 196q-237 -189 -442 -245q-118 -33 -263 -33q-343 0 -519 176q-44 44 -81 105q-32 52 -55 130q-35 112 -35 259v1410l-223 78q-29 10 -39 24.5 t-10 45.5v100q0 32 9.5 48t39.5 22l497 106q32 8 48 8q53 0 53 -64v-1528q0 -35 2 -105q2 -50 5.5 -87t11 -89t22 -91t36.5 -78t56.5 -67t78.5 -43q63 -20 145 -20q327 0 633 260v1480l-223 78q-29 10 -39 24.5t-10 45.5v100q0 32 9.5 48t39.5 22l497 106q32 8 48 8 q53 0 53 -64v-2074zM2047 3150q-2 -109 -81 -187t-188 -78t-187.5 80t-78.5 189t80 187.5t189 78.5t188 -80.5t78 -189.5zM1145 3150q-1 -108 -79 -186.5t-186 -78.5q-110 0 -190 79.5t-80 189.5q0 109 80 187.5t189 78.5t188.5 -80t77.5 -190z" />
<glyph unicode="&#xfd;" horiz-adv-x="2222" d="M883 109l-731 1977l-223 76q-29 10 -39 24.5t-10 45.5v98q0 39 15.5 54.5t54.5 15.5h819q39 0 54.5 -15.5t15.5 -54.5v-98q0 -31 -10 -45.5t-39 -24.5l-223 -76l522 -1578l574 1578l-223 76q-29 10 -39 24.5t-10 45.5v98q0 39 15.5 54.5t54.5 15.5h646q25 0 43 -12.5 t18 -37.5q0 -12 -7 -30l-124 -302l-113 -280l-669 -1677l-101 -261l-76 -188l-47 -111q-19 -43 -52 -108.5t-61 -110t-69.5 -98t-83.5 -89.5t-96 -67t-113 -47q-69 -19 -156 -19q-90 0 -163 18q-25 6 -39 10t-31.5 17t-22.5 32q-3 12 -3 36v158q0 75 66 75q10 0 20.5 -1.5 t24 -4t20.5 -3.5q91 -13 130 -13q65 0 111 32t86 93q24 37 45 75.5t42.5 90.5t31 77t34 94.5t29.5 82.5zM1498 3500q33 23 52 23q33 0 60 -41l134 -194q19 -28 19 -49q0 -34 -46 -58l-806 -418q-32 -15 -48 -15q-32 0 -61 43l-35 52q-20 32 -20 53q0 28 39 59z" />
<glyph unicode="&#xfe;" d="M825 2225q61 55 161 111q236 134 484 134q132 0 241 -32q70 -22 130 -57q206 -119 301 -417q74 -225 95 -496q8 -118 8 -222q0 -120 -11 -254q-12 -130 -31 -221q-21 -109 -52.5 -208t-83 -200.5t-116.5 -180.5t-156.5 -140t-198.5 -88q-94 -24 -193 -24 q-153 0 -291.5 57.5t-286.5 162.5v-858l223 -76q29 -10 39 -25t10 -45v-98q0 -40 -15 -55t-55 -15h-779q-40 0 -55 15t-15 55v98q0 30 10 45t39 25l223 76v3769l-223 77q-29 10 -39 25t-10 45v100q0 33 9.5 48.5t39.5 21.5l497 107q37 7 48 7q53 0 53 -64v-1203zM825 1890 v-1410l131 -81q49 -29 121 -63.5t142 -50t144 -15.5q85 0 154 21q234 74 293 469q9 58 15 121q5 50 11 150q4 91 4 203q0 84 -3 168q-1 41 -5 118q-5 73 -11.5 125.5t-23 124t-39.5 123t-64 103t-95 84.5q-37 23 -81 37q-55 18 -124 18q-72 0 -143 -18t-147 -57.5t-123 -68 t-129 -83.5z" />
<glyph unicode="&#xff;" horiz-adv-x="2222" d="M883 109l-731 1977l-223 76q-29 10 -39 24.5t-10 45.5v98q0 39 15.5 54.5t54.5 15.5h819q39 0 54.5 -15.5t15.5 -54.5v-98q0 -31 -10 -45.5t-39 -24.5l-223 -76l522 -1578l574 1578l-223 76q-29 10 -39 24.5t-10 45.5v98q0 39 15.5 54.5t54.5 15.5h646q25 0 43 -12.5 t18 -37.5q0 -12 -7 -30l-124 -302l-113 -280l-669 -1677l-101 -261l-76 -188l-47 -111q-19 -43 -52 -108.5t-61 -110t-69.5 -98t-83.5 -89.5t-96 -67t-113 -47q-69 -19 -156 -19q-90 0 -163 18q-25 6 -39 10t-31.5 17t-22.5 32q-3 12 -3 36v158q0 75 66 75q10 0 20.5 -1.5 t24 -4t20.5 -3.5q91 -13 130 -13q65 0 111 32t86 93q24 37 45 75.5t42.5 90.5t31 77t34 94.5t29.5 82.5zM1833 3150q-1 -109 -80.5 -187t-188.5 -78t-187.5 80t-78.5 189t79.5 187.5t189.5 78.5q109 0 188 -80t78 -190zM931 3150q-1 -108 -79 -186.5t-186 -78.5 q-110 0 -190 79.5t-80 189.5q0 109 80 187.5t189 78.5t188 -80t78 -190z" />
<glyph unicode="&#x152;" horiz-adv-x="3804" d="M2374 1615v-1260h882l123 358q11 32 23 40.5t47 8.5h130q28 0 44 -16t16 -44v-632q0 -18 -1 -27t-5 -19.5t-13 -16t-25 -6.5q-9 -1 -26 -1h-1536q-39 0 -54.5 15.5t-15.5 54.5v140q-272 -280 -632 -280q-155 0 -296 46q-82 26 -171 77q-447 264 -564 1030q-14 96 -25 224 q-17 199 -17 389q0 120 8 258q5 104 21 259q16 138 42.5 264t74.5 261t112 247t158.5 213.5t210.5 169.5q91 54 192 87q146 47 297 47q245 0 433 -112q60 -36 156 -124v90q0 40 15.5 55t54.5 15l1501 4q35 0 51 -8.5t20 -39.5q1 -5 0 -14t-1 -13v-612q0 -28 -16 -44t-44 -16 h-130h-23q-14 1 -23.5 9t-13.5 16t-10 24l-118 343h-852v-1125h980q17 0 26 -1q16 -1 25 -6.5t13 -16t5 -19.5t1 -27v-195q0 -18 -1 -27t-5 -19.5t-13 -16t-25 -6.5q-9 -1 -26 -1h-980zM1963 563v2288q-129 149 -266 231.5t-308 82.5q-85 0 -163 -22q-64 -17 -129 -52 q-69 -39 -123.5 -98t-88.5 -120.5t-62 -144.5t-42 -148t-29 -153q-18 -108 -26 -202q-10 -97 -15 -197q-8 -131 -8 -293q0 -159 9 -320q5 -89 17 -201q13 -112 31 -210q34 -185 84 -322q27 -75 58.5 -133.5t75 -112.5t102 -92t130.5 -58q80 -21 161 -21q169 0 310.5 78.5 t281.5 219.5z" />
<glyph unicode="&#x153;" horiz-adv-x="3902" d="M2047 388q-87 -160 -222.5 -269t-309.5 -154q-133 -35 -278 -35q-178 0 -331 49q-81 27 -156 69q-113 65 -201 165t-142.5 211.5t-89.5 244.5t-48.5 257t-13.5 257q0 131 13.5 253.5t47 252.5t85.5 241t135 212.5t189 173.5q99 67 210 103q157 51 336 51q135 0 251 -31 q161 -43 296 -152.5t232 -261.5q92 154 213 252q116 94 260 143.5t295 49.5q135 0 261 -36q116 -31 212 -89q95 -57 170 -140.5t124 -177t81.5 -202.5t46.5 -215.5t14 -218.5q0 -109 -20 -159q-13 -34 -40 -57.5t-53 -35t-70 -17.5t-68.5 -6.5t-70.5 -0.5h-17h-1148 q8 -88 15.5 -149.5t25 -145t41.5 -146t65.5 -129t95.5 -117.5q48 -44 94 -73q58 -36 128 -58q90 -27 195 -27q193 0 405 91q53 24 138 68q4 2 16.5 10t20.5 12.5t19.5 8.5t20.5 4q34 0 53 -42l83 -180q13 -28 13 -42q0 -19 -12 -34.5t-22.5 -22t-33.5 -17.5q-10 -6 -30 -16 l-26 -13l-50 -23q-309 -144 -623 -144q-191 0 -369.5 62.5t-306.5 186.5q-13 12 -25 25.5l-25 29.5l-20 28q-8 11 -21.5 32t-18.5 30l-20 33q-15 25 -19 31zM1850 1215q-2 93 -5 140q-6 89 -16 164t-32.5 164t-56 159t-89 136t-127.5 108q-46 26 -94 42q-84 27 -183 27 q-98 0 -179 -27q-83 -27 -149.5 -83.5t-109 -125t-73 -156t-45.5 -167t-23 -166.5q-8 -99 -8 -188q0 -102 7 -190q19 -244 80 -427q58 -177 155 -262q79 -70 201 -103q77 -20 156 -20q87 0 165 23q53 15 104 41q105 56 163 150.5t96 233.5q66 240 63 527zM2240 1425h1113 q-5 73 -10.5 126t-17 122t-31 123t-47.5 110t-70.5 102.5t-97.5 81.5q-51 33 -108 51q-75 24 -164 24q-85 0 -155 -21q-57 -16 -104 -43q-68 -38 -120 -98.5t-84 -124.5t-54 -147.5t-32.5 -152t-17.5 -153.5z" />
<glyph unicode="&#x178;" horiz-adv-x="2415" d="M186 3086l-249 86q-29 10 -39 24.5t-10 45.5v118q0 39 15.5 54.5t54.5 15.5h934q39 0 54.5 -15.5t15.5 -54.5v-118q0 -31 -10 -45.5t-39 -24.5l-248 -86l597 -1231l595 1231l-249 86q-29 10 -38.5 24.5t-9.5 45.5v118q0 39 15 54.5t55 15.5h770q23 0 40 -10.5t17 -32.5 q0 -14 -10 -34l-981 -1898v-1099l263 -91q29 -10 39 -24.5t10 -45.5v-125q0 -40 -15.5 -55t-54.5 -15h-895q-39 0 -54.5 15t-15.5 55v125q0 31 10 45.5t39 24.5l264 91v1089zM2004 4033q-2 -109 -81 -187t-188 -78t-187.5 80t-78.5 189t80 187.5t189 78.5t188 -80.5 t78 -189.5zM1019 4033q-1 -108 -79 -186.5t-186 -78.5q-110 0 -190 80t-80 190q0 108 80 186.5t189 78.5t188 -80t78 -190z" />
<glyph unicode="&#x2c6;" d="M1250 3125l-452 -290q-28 -19 -51 -19q-31 0 -61 42l-43 63q-21 29 -21 52q0 30 38 60l534 418q32 26 56 26t56 -26l534 -418q39 -29 39 -61q0 -21 -23 -52l-45 -63q-28 -40 -60 -40q-19 0 -51 19z" />
<glyph unicode="&#x2dc;" d="M1965 3325q12 -6 18 -10q9 -6 9 -22t-23 -59l-40 -73q-58 -102 -115 -155q-118 -111 -293 -111q-25 0 -49 3t-52 12t-43.5 13.5t-49.5 22.5l-41 21q-7 3 -47.5 25.5t-42.5 23.5q-45 25 -73.5 39t-72 27t-81.5 13q-107 0 -177 -94q-17 -21 -45 -69q-17 -32 -38 -32 q-7 0 -21 6l-158 71q-27 11 -27 33q0 8 16 43q25 55 55 102q57 91 113 143q115 107 277 107q56 0 120 -19.5t104 -39t108 -57.5q5 -3 29 -16l31 -17q8 -5 28.5 -15.5t33.5 -14.5l30 -11q18 -6 34.5 -8t33.5 -2q53 0 103 23.5t80 64.5q6 7 20 30l15 27q14 26 26.5 38.5 t27.5 12.5q8 0 20 -6z" />
<glyph unicode="&#x2000;" horiz-adv-x="2230" />
<glyph unicode="&#x2001;" horiz-adv-x="4460" />
<glyph unicode="&#x2002;" horiz-adv-x="2230" />
<glyph unicode="&#x2003;" horiz-adv-x="4460" />
<glyph unicode="&#x2004;" horiz-adv-x="1486" />
<glyph unicode="&#x2005;" horiz-adv-x="1115" />
<glyph unicode="&#x2006;" horiz-adv-x="743" />
<glyph unicode="&#x2007;" horiz-adv-x="743" />
<glyph unicode="&#x2008;" horiz-adv-x="557" />
<glyph unicode="&#x2009;" horiz-adv-x="892" />
<glyph unicode="&#x200a;" horiz-adv-x="247" />
<glyph unicode="&#x2010;" horiz-adv-x="1760" d="M1494 1465q39 -1 55 -11q26 -15 26 -70v-213q0 -43 -19 -62t-62 -19h-1228q-43 0 -62 19t-19 62v213q0 43 19 62t62 19h1228z" />
<glyph unicode="&#x2011;" horiz-adv-x="1760" d="M1494 1465q39 -1 55 -11q26 -15 26 -70v-213q0 -43 -19 -62t-62 -19h-1228q-43 0 -62 19t-19 62v213q0 43 19 62t62 19h1228z" />
<glyph unicode="&#x2012;" horiz-adv-x="1760" d="M1494 1465q39 -1 55 -11q26 -15 26 -70v-213q0 -43 -19 -62t-62 -19h-1228q-43 0 -62 19t-19 62v213q0 43 19 62t62 19h1228z" />
<glyph unicode="&#x2013;" d="M2229 1445l40 -5q41 -5 41 -76v-173q0 -43 -19 -62t-62 -19h-1953q-43 0 -62 19t-19 62v173q0 43 19 62t62 19h1953z" />
<glyph unicode="&#x2014;" horiz-adv-x="3890" d="M3624 1440q37 -1 52 -10q29 -17 29 -71v-163q0 -43 -19 -62t-62 -19h-3358q-43 0 -62 19t-19 62v163q0 43 19 62t62 19h3358z" />
<glyph unicode="&#x2018;" horiz-adv-x="1205" d="M162 2345q-19 1 -29 3q-27 8 -27 37q0 16 11 36l575 1061q28 49 61 49q16 0 44 -10l90 -32q58 -21 58 -64q0 -9 -7 -37l-283 -975q-11 -39 -30.5 -53.5t-59.5 -14.5h-403z" />
<glyph unicode="&#x2019;" horiz-adv-x="1205" d="M1043 3531q19 -1 29 -3q27 -8 27 -37q0 -16 -11 -36l-575 -1061q-28 -49 -61 -49q-16 0 -44 10l-90 32q-58 21 -58 64q0 9 7 37l283 975q11 39 30.5 53.5t59.5 14.5h403z" />
<glyph unicode="&#x201a;" horiz-adv-x="1205" d="M1027 -533q19 -1 29 -4q27 -7 27 -36q0 -17 -11 -37l-575 -1060q-28 -49 -61 -49q-19 0 -44 9l-90 33q-58 21 -58 64q0 9 7 37l283 975q11 39 30.5 53.5t59.5 14.5h403z" />
<glyph unicode="&#x201c;" horiz-adv-x="2040" d="M970 2314q-19 1 -29 3q-27 8 -27 37q0 16 11 36l575 1061q28 49 61 49q16 0 44 -10l90 -32q58 -21 58 -64q0 -9 -7 -37l-283 -975q-11 -39 -30.5 -53.5t-59.5 -14.5h-403zM147 2314q-20 1 -29 3q-28 9 -28 37q0 14 12 36l575 1061q26 49 60 49q16 0 44 -10l91 -32 q57 -21 57 -64q0 -13 -6 -37l-283 -975q-11 -39 -30.5 -53.5t-59.5 -14.5h-403z" />
<glyph unicode="&#x201d;" horiz-adv-x="2040" d="M1821 3485q19 -1 29 -3q27 -8 27 -37q0 -16 -11 -36l-575 -1061q-28 -49 -61 -49q-16 0 -44 10l-90 32q-58 21 -58 64q0 9 7 37l283 975q11 39 30.5 53.5t59.5 14.5h403zM997 3485q20 -1 29 -3q28 -8 28 -37q0 -16 -11 -36l-575 -1061q-28 -49 -61 -49q-16 0 -44 10 l-90 32q-58 21 -58 64q0 16 7 37l282 975q11 39 30.5 53.5t59.5 14.5h403z" />
<glyph unicode="&#x201e;" horiz-adv-x="2040" d="M1856 570q19 -1 29 -3q27 -8 27 -37q0 -16 -11 -36l-575 -1061q-28 -49 -61 -49q-16 0 -44 10l-90 32q-58 21 -58 64q0 9 7 37l283 975q11 39 30.5 53.5t59.5 14.5h403zM1032 570q20 -1 29 -3q28 -8 28 -37q0 -16 -11 -36l-575 -1061q-28 -49 -61 -49q-16 0 -44 10 l-90 32q-58 21 -58 64q0 16 7 37l282 975q11 39 30.5 53.5t59.5 14.5h403z" />
<glyph unicode="&#x2022;" d="M1965 1740q-2 -136 -44 -246q-77 -206 -262 -335t-404 -129q-229 0 -420 136t-264 352q-36 108 -36 224q0 119 38 231q72 217 260.5 349.5t418.5 132.5q143 0 275 -57.5t228.5 -153.5t153.5 -228.5t56 -275.5z" />
<glyph unicode="&#x2026;" horiz-adv-x="4445" d="M4060 285q-2 -146 -104.5 -250.5t-247.5 -104.5q-146 0 -249.5 104.5t-103.5 250.5t105.5 248t252.5 102q140 0 244 -105t103 -245zM2575 285q-2 -146 -104.5 -250.5t-247.5 -104.5q-146 0 -249.5 104.5t-103.5 250.5t105.5 248t252.5 102q140 0 244 -105t103 -245z M1095 285q-2 -146 -104.5 -250.5t-247.5 -104.5q-147 0 -250 103.5t-103 250.5t105.5 249t252.5 102q140 0 244 -105t103 -245z" />
<glyph unicode="&#x202f;" horiz-adv-x="892" />
<glyph unicode="&#x2039;" horiz-adv-x="1480" d="M700 1195l635 -943q20 -30 20 -50q0 -33 -46 -58l-120 -64q-28 -16 -50 -16q-30 0 -60 38l-822 1040q-26 32 -26 55q0 25 26 57l826 1037q31 39 60 39q17 0 49 -17l117 -62q46 -25 46 -58q0 -18 -19 -50z" />
<glyph unicode="&#x203a;" horiz-adv-x="1480" d="M780 1195l-636 948q-19 32 -19 50q0 33 46 58l117 62q32 17 49 17q29 0 60 -39l826 -1037q26 -32 26 -57q0 -23 -26 -55l-822 -1040q-30 -38 -60 -38q-22 0 -50 16l-120 64q-46 25 -46 58q0 20 20 50z" />
<glyph unicode="&#x205f;" horiz-adv-x="1115" />
<glyph unicode="&#x20ac;" horiz-adv-x="2515" d="M544 2070q11 112 23 199t32.5 193t49 194.5t67.5 180.5t95 175t126 155q61 63 132 110q100 68 214 104q150 49 323 49q328 0 634 -161q63 -33 109 -67q38 -29 52.5 -50t14.5 -60v-476q0 -28 -15.5 -43.5t-43.5 -15.5h-126q-34 0 -46 8t-23 39l-133 387q-110 55 -202 83 t-196 28q-109 0 -203 -29q-116 -36 -201.5 -128.5t-134.5 -215.5q-40 -103 -45 -139l-21 -127l-22 -136q-8 -51 -17 -123.5t-13 -133.5h1012q53 0 53 -42q0 -13 -2 -20l-20 -109q-6 -31 -20 -42.5t-44 -11.5h-987q-1 -18 -1 -53q0 -92 6 -272h912q54 0 54 -42q0 -6 -2 -20 l-21 -109q-5 -31 -19 -42.5t-45 -11.5h-863q43 -481 193 -735q137 -231 339 -282q73 -19 152 -19q180 0 391 114l125 364q7 22 16.5 34t29.5 13h22h126q28 0 43.5 -15t15.5 -43v-453q0 -46 -19 -71.5t-65 -56.5q-42 -29 -99 -59q-304 -156 -612 -156q-176 0 -327 49 q-86 28 -170 76q-129 75 -237 200q-89 103 -155 228.5t-106.5 264t-63.5 267t-37 280.5h-365q-53 0 -53 42q0 13 2 20l20 109q5 30 19.5 42t44.5 12h316q-5 68 -5 204q0 61 3 121h-330q-22 0 -37.5 10t-15.5 32q0 6 2 20l20 109q6 30 20 42t45 12h309z" />
<glyph unicode="&#x2122;" horiz-adv-x="3197" d="M510 1847v1351h-155l-87 -253q-10 -28 -25 -38.5t-45 -10.5h-72q-61 0 -61 61v412q0 61 61 61h1046q61 0 61 -61v-412q0 -61 -61 -61h-72q-30 0 -44.5 10.5t-24.5 38.5l-88 253h-155v-1351l110 -38q28 -10 39 -25t11 -45v-71q0 -61 -61 -61h-475q-61 0 -61 61v71 q0 30 10.5 45t38.5 25zM1403 1841l79 1356l-101 34q-28 10 -39 25t-11 45v68q0 61 61 61h320q30 0 45 -10.5t25 -40.5l305 -890l310 890q10 29 24.5 40t45.5 11h328q61 0 61 -61v-68q0 -30 -10.5 -44.5t-38.5 -24.5l-102 -35l78 -1356l104 -36q29 -10 39.5 -24.5t10.5 -44.5 v-68q0 -61 -61 -61h-465q-61 0 -61 61v68q0 30 10.5 44.5t38.5 24.5l102 35l-29 1021l-278 -788q-21 -57 -79 -57h-64q-32 0 -50 13.5t-28 43.5l-266 780l-32 -1013l102 -35q29 -10 39.5 -24.5t10.5 -44.5v-68q0 -61 -61 -61h-455q-61 0 -61 61v68q0 30 10.5 44.5t39.5 24.5 z" />
<glyph unicode="&#xe000;" horiz-adv-x="2400" d="M0 2400h2400v-2400h-2400v2400z" />
<glyph unicode="&#xfb01;" horiz-adv-x="2871" d="M515 315v1765h-218q-35 0 -47.5 10.5t-12.5 44.5v203q0 30 6.5 43t32.5 16q7 1 21 1h218v272q0 91 1.5 141t11 126t29.5 137q22 74 63 142q55 90 129 150q169 134 452 134q92 0 167 -18q58 -15 76 -31q13 -12 18 -29q3 -11 3 -35v-158q0 -75 -67 -75q-16 0 -65 9 q-89 12 -155 12q-61 0 -102 -12q-184 -56 -186 -379v-119v-267h505q59 0 67 -37q3 -11 3 -33v-178v-17q-5 -32 -20.5 -42.5t-49.5 -10.5h-505v-1765l223 -77q29 -10 39 -24.5t10 -45.5v-98q0 -39 -15 -54.5t-55 -15.5h-779q-40 0 -55 15.5t-15 54.5v98q0 31 9.5 45.5 t38.5 24.5zM2495 3222q-1 -124 -88.5 -212t-211.5 -88q-125 0 -215 89.5t-90 213.5q0 125 91.5 213.5t216.5 88.5q121 0 210 -92t87 -213zM2040 314v1696l-223 78q-28 10 -38.5 25t-10.5 45v100q0 32 9.5 48t39.5 22l497 106q32 8 48 8q53 0 53 -64v-2064l224 -76 q29 -10 38.5 -24.5t9.5 -45.5v-98q0 -39 -15 -54.5t-55 -15.5h-779q-39 0 -54.5 15.5t-15.5 54.5v98q0 31 10 45.5t39 24.5z" />
<glyph unicode="&#xfb02;" horiz-adv-x="2745" d="M515 315v1765h-218q-35 0 -47.5 10.5t-12.5 44.5v203q0 30 6.5 43t32.5 16q7 1 21 1h218v272q0 91 1.5 141t11 126t29.5 137q22 74 63 142q55 90 129 150q169 134 452 134q92 0 167 -18q58 -15 76 -31q13 -12 18 -29q3 -11 3 -35v-158q0 -75 -67 -75q-16 0 -65 9 q-89 12 -155 12q-61 0 -102 -12q-184 -56 -186 -379v-119v-267h505q59 0 67 -37q3 -11 3 -33v-178v-17q-5 -32 -20.5 -42.5t-49.5 -10.5h-505v-1765l223 -77q29 -10 39 -24.5t10 -45.5v-98q0 -39 -15 -54.5t-55 -15.5h-779q-40 0 -55 15.5t-15 54.5v98q0 31 9.5 45.5 t38.5 24.5zM1820 3061l-223 77q-29 10 -39 25t-10 45v100q0 33 9.5 48.5t39.5 21.5l497 107q37 7 48 7q53 0 53 -64v-2523q0 -33 0.5 -100t0.5 -101t2 -76q2 -50 4 -75q3 -42 5 -64t9.5 -60.5t19.5 -61t35.5 -45.5t55.5 -33q25 -8 58 -8q54 0 136 26q6 2 22.5 8.5t28.5 10 t23 3.5q29 0 39 -30l62 -192q3 -11 3 -21q0 -44 -73 -80q-110 -56 -292 -56q-97 0 -172 20q-76 22 -128 54q-50 31 -87.5 78t-59 95.5t-35 113t-19 114.5t-8.5 115q-2 45 -4 125q0 41 -0.5 125t-0.5 125v2146z" />
<glyph unicode="&#xfb03;" horiz-adv-x="4351" d="M3975 3222q-1 -124 -88.5 -212t-211.5 -88q-125 0 -215 89.5t-90 213.5q0 125 91.5 213.5t216.5 88.5q121 0 210 -92t87 -213zM3520 314v1696l-223 78q-28 10 -38.5 25t-10.5 45v100q0 32 9.5 48t39.5 22l497 106q32 8 48 8q53 0 53 -64v-2064l224 -76q29 -10 38.5 -24.5 t9.5 -45.5v-98q0 -39 -15 -54.5t-55 -15.5h-779q-39 0 -54.5 15.5t-15.5 54.5v98q0 31 10 45.5t39 24.5zM1995 315v1765h-218q-35 0 -47.5 10.5t-12.5 44.5v203q0 30 6.5 43t32.5 16q7 1 21 1h218v272q0 91 1.5 141t11 126t29.5 137q22 74 63 142q55 90 129 150 q169 134 452 134q92 0 167 -18q58 -15 76 -31q13 -12 18 -29q3 -11 3 -35v-158q0 -75 -67 -75q-16 0 -65 9q-89 12 -155 12q-61 0 -102 -12q-184 -56 -186 -379v-119v-267h505q59 0 67 -37q3 -11 3 -33v-178v-17q-5 -32 -20.5 -42.5t-49.5 -10.5h-505v-1765l223 -77 q29 -10 39 -24.5t10 -45.5v-98q0 -39 -15 -54.5t-55 -15.5h-779q-40 0 -55 15.5t-15 54.5v98q0 31 9.5 45.5t38.5 24.5zM515 315v1765h-218q-35 0 -47.5 10.5t-12.5 44.5v203q0 30 6.5 43t32.5 16q7 1 21 1h218v272q0 91 1.5 141t11 126t29.5 137q22 74 63 142 q55 90 129 150q169 134 452 134q92 0 167 -18q58 -15 76 -31q13 -12 18 -29q3 -11 3 -35v-158q0 -75 -67 -75q-16 0 -65 9q-89 12 -155 12q-61 0 -102 -12q-184 -56 -186 -379v-119v-267h505q59 0 67 -37q3 -11 3 -33v-178v-17q-5 -32 -20.5 -42.5t-49.5 -10.5h-505v-1765 l223 -77q29 -10 39 -24.5t10 -45.5v-98q0 -39 -15 -54.5t-55 -15.5h-779q-40 0 -55 15.5t-15 54.5v98q0 31 9.5 45.5t38.5 24.5z" />
<glyph unicode="&#xfb04;" horiz-adv-x="4255" d="M3325 3061l-223 77q-29 10 -39 25t-10 45v100q0 33 9.5 48.5t39.5 21.5l497 107q37 7 48 7q53 0 53 -64v-2523q0 -33 0.5 -100t0.5 -101t2 -76q2 -50 4 -75q3 -42 5 -64t9.5 -60.5t19.5 -61t35.5 -45.5t55.5 -33q25 -8 58 -8q54 0 136 26q6 2 22.5 8.5t28.5 10t23 3.5 q29 0 39 -30l62 -192q3 -11 3 -21q0 -44 -73 -80q-110 -56 -292 -56q-97 0 -172 20q-76 22 -128 54q-50 31 -87.5 78t-59 95.5t-35 113t-19 114.5t-8.5 115q-2 45 -4 125q0 41 -0.5 125t-0.5 125v2146zM1995 315v1765h-218q-35 0 -47.5 10.5t-12.5 44.5v203q0 30 6.5 43 t32.5 16q7 1 21 1h218v272q0 91 1.5 141t11 126t29.5 137q22 74 63 142q55 90 129 150q169 134 452 134q92 0 167 -18q58 -15 76 -31q13 -12 18 -29q3 -11 3 -35v-158q0 -75 -67 -75q-16 0 -65 9q-89 12 -155 12q-61 0 -102 -12q-184 -56 -186 -379v-119v-267h505 q59 0 67 -37q3 -11 3 -33v-178v-17q-5 -32 -20.5 -42.5t-49.5 -10.5h-505v-1765l223 -77q29 -10 39 -24.5t10 -45.5v-98q0 -39 -15 -54.5t-55 -15.5h-779q-40 0 -55 15.5t-15 54.5v98q0 31 9.5 45.5t38.5 24.5zM515 315v1765h-218q-35 0 -47.5 10.5t-12.5 44.5v203 q0 30 6.5 43t32.5 16q7 1 21 1h218v272q0 91 1.5 141t11 126t29.5 137q22 74 63 142q55 90 129 150q169 134 452 134q92 0 167 -18q58 -15 76 -31q13 -12 18 -29q3 -11 3 -35v-158q0 -75 -67 -75q-16 0 -65 9q-89 12 -155 12q-61 0 -102 -12q-184 -56 -186 -379v-119v-267 h505q59 0 67 -37q3 -11 3 -33v-178v-17q-5 -32 -20.5 -42.5t-49.5 -10.5h-505v-1765l223 -77q29 -10 39 -24.5t10 -45.5v-98q0 -39 -15 -54.5t-55 -15.5h-779q-40 0 -55 15.5t-15 54.5v98q0 31 9.5 45.5t38.5 24.5z" />
</font>
</defs>
</svg>
